STARTFONT 2.1
FONT -ADECW-Hei-Medium-R-Normal--24-240-75-75-M-240-DEC.DTSCS.1990-2
SIZE 24 75 75
FONTBOUNDINGBOX 24 24 0 -4

STARTPROPERTIES 26
FONTNAME_REGISTRY ""
FAMILY_NAME "Hei"
FOUNDRY "ADECW"
WEIGHT_NAME "Medium"
SLANT "R"
SETWIDTH_NAME "Normal"
ADD_STYLE_NAME ""
PIXEL_SIZE 24
POINT_SIZE 240
RESOLUTION_X 75
RESOLUTION_Y 75
SPACING "M"
AVERAGE_WIDTH 240
CHARSET_REGISTRY "DEC.DTSCS.1990"
CHARSET_ENCODING "2"
DEVICE_FONT_NAME "Hei-DEC.DTSCS.1990-2"
CHARSET_COLLECTIONS "DEC.DTSCS.1990 2"
FULL_NAME "Hei DEC.DTSCS.1990 2"
COPYRIGHT "Copyright © 1992 Digital Equipment Corporation Asia."
CAP_HEIGHT 18
X_HEIGHT 13
WEIGHT 10
QUAD_WIDTH 24
DEFAULT_CHAR 65021
FONT_DESCENT 4
FONT_ASCENT 20
ENDPROPERTIES

CHARS 6320

STARTCHAR A1A1
ENCODING 41377
SWIDTH 960 0
DWIDTH 24 0
BBX 24 24 0 -4
BITMAP
000000
000C00
000C00
000C00
000C00
000C00
000C00
000C00
000C00
000C00
000C00
000C00
000C00
000C00
000C00
000C00
000C00
000C00
000C00
000C00
000C00
000C00
000C00
000000
ENDCHAR

STARTCHAR A1A2
ENCODING 41378
SWIDTH 960 0
DWIDTH 24 0
BBX 24 24 0 -4
BITMAP
000000
000000
000000
000000
000000
000000
000000
000000
000000
006000
003000
001800
000C00
000600
000600
000000
000000
000000
000000
000000
000000
000000
000000
000000
ENDCHAR

STARTCHAR A1A3
ENCODING 41379
SWIDTH 960 0
DWIDTH 24 0
BBX 24 24 0 -4
BITMAP
000000
000300
000300
000300
000300
000300
000300
000300
000300
000300
000300
000300
000300
000700
000600
000600
000600
000C00
000C00
000C00
001800
003800
001000
000000
ENDCHAR

STARTCHAR A1A4
ENCODING 41380
SWIDTH 960 0
DWIDTH 24 0
BBX 24 24 0 -4
BITMAP
000000
000600
000600
000600
000600
000600
000600
000600
000600
000600
000600
000600
000600
000600
000600
000600
000600
000600
000600
000600
000600
003E00
003C00
000000
ENDCHAR

STARTCHAR A1A5
ENCODING 41381
SWIDTH 960 0
DWIDTH 24 0
BBX 24 24 0 -4
BITMAP
000000
7FFFFE
7FFFFE
001800
001800
001800
001800
001800
001800
001800
001800
001800
001800
001800
001800
001800
001800
001800
001800
001800
001800
001800
001800
000000
ENDCHAR

STARTCHAR A1A6
ENCODING 41382
SWIDTH 960 0
DWIDTH 24 0
BBX 24 24 0 -4
BITMAP
000000
001800
001800
001800
001800
001800
001800
001800
001800
001800
001800
001800
001800
001800
001800
001800
001800
001800
001800
001800
001800
7FFFFE
7FFFFE
000000
ENDCHAR

STARTCHAR A1A7
ENCODING 41383
SWIDTH 960 0
DWIDTH 24 0
BBX 24 24 0 -4
BITMAP
000000
7FFFFE
7FFFFE
600006
600006
600006
600006
600006
600006
600006
600006
600006
600006
600006
600006
600006
600006
600006
600006
600006
600006
60007E
60007C
000000
ENDCHAR

STARTCHAR A1A8
ENCODING 41384
SWIDTH 960 0
DWIDTH 24 0
BBX 24 24 0 -4
BITMAP
000000
000000
000000
000000
000000
000000
000000
000000
000000
000000
7FFFFE
7FFFFE
600006
600006
000000
000000
000000
000000
000000
000000
000000
000000
000000
000000
ENDCHAR

STARTCHAR A1A9
ENCODING 41385
SWIDTH 960 0
DWIDTH 24 0
BBX 24 24 0 -4
BITMAP
000000
7FFFFC
7FFFFC
600000
600000
600000
600000
600000
600000
600000
600000
600000
600000
600000
600000
600000
600000
600000
600000
600000
7FFFFE
7FFFFE
600000
000000
ENDCHAR

STARTCHAR A1AA
ENCODING 41386
SWIDTH 960 0
DWIDTH 24 0
BBX 24 24 0 -4
BITMAP
000000
07FFF0
07FFF0
006030
006030
006030
006030
006030
006030
006030
006030
006030
006030
006030
0063F0
0063E0
006000
006000
006000
006000
006000
006000
006000
000000
ENDCHAR

STARTCHAR A1AB
ENCODING 41387
SWIDTH 960 0
DWIDTH 24 0
BBX 24 24 0 -4
BITMAP
000000
000000
000000
000000
000C00
000C00
001800
001800
003800
003000
0070E0
006060
00C030
00C030
018010
018018
0300F8
061F0C
0FE00C
78000C
000006
000000
000000
000000
ENDCHAR

STARTCHAR A1AC
ENCODING 41388
SWIDTH 960 0
DWIDTH 24 0
BBX 24 24 0 -4
BITMAP
000000
000C00
001C00
003C00
003600
006300
00C180
0180C0
030070
0E1838
38180E
201800
001800
001800
001800
001800
001800
001800
001800
001800
001800
001800
001800
000000
ENDCHAR

STARTCHAR A1AD
ENCODING 41389
SWIDTH 960 0
DWIDTH 24 0
BBX 24 24 0 -4
BITMAP
000000
018000
018000
010000
030000
03FFFE
07FFFE
060600
0C0600
180600
300600
600600
000600
000600
000600
000600
000600
000600
000600
000600
000600
000600
000600
000000
ENDCHAR

STARTCHAR A1AE
ENCODING 41390
SWIDTH 960 0
DWIDTH 24 0
BBX 24 24 0 -4
BITMAP
000000
000018
060018
060018
032030
033030
031870
019C60
018CE0
00CCC0
00C1C0
006180
003300
001B00
001E00
000C00
001E00
003300
0061C0
0180E0
030078
0C001E
700006
000000
ENDCHAR

STARTCHAR A1AF
ENCODING 41391
SWIDTH 960 0
DWIDTH 24 0
BBX 24 24 0 -4
BITMAP
000000
001800
003800
00E000
038000
03FF80
03FF80
030180
030180
030180
030180
030180
030180
030180
030180
060180
060180
060180
0C0186
0C0186
18018E
3001FE
6000FC
000000
ENDCHAR

STARTCHAR A1B0
ENCODING 41392
SWIDTH 960 0
DWIDTH 24 0
BBX 24 24 0 -4
BITMAP
000000
001800
0C1800
0C1800
0C1800
181800
181800
181800
181800
301800
301C00
3FFC00
3FF600
003600
006300
006300
00C180
0181C0
0300E0
060070
0C0038
18001C
70000E
000000
ENDCHAR

STARTCHAR A1B1
ENCODING 41393
SWIDTH 960 0
DWIDTH 24 0
BBX 24 24 0 -4
BITMAP
000000
1FFFF8
1FFFF8
000000
000000
000000
000000
7FFFFE
7FFFFE
018000
018000
030000
03FFFC
07FFFC
06000C
06000C
00000C
000018
000018
000018
000030
001FF0
001FE0
000000
ENDCHAR

STARTCHAR A1B2
ENCODING 41394
SWIDTH 960 0
DWIDTH 24 0
BBX 24 24 0 -4
BITMAP
000000
000000
000000
001800
003C00
007600
00E300
018180
0300C0
060070
1C003C
70000E
07FFF0
07FFF0
000000
000000
000000
000000
000000
000000
000000
000000
000000
000000
ENDCHAR

STARTCHAR A1B3
ENCODING 41395
SWIDTH 960 0
DWIDTH 24 0
BBX 24 24 0 -4
BITMAP
000000
600000
600600
600600
600600
600600
600C00
600C00
600C00
601800
601800
601C00
603C00
603600
606300
60E380
61C1C0
6380E0
670070
6E0038
600000
7FFFFE
7FFFFE
000000
ENDCHAR

STARTCHAR A1B4
ENCODING 41396
SWIDTH 960 0
DWIDTH 24 0
BBX 24 24 0 -4
BITMAP
000000
600000
606000
606000
606000
603000
603000
603000
601800
601800
601C00
603C00
603600
606600
606300
60C180
61C1C0
6380E0
670070
6E0038
600000
7FFFFE
7FFFFE
000000
ENDCHAR

STARTCHAR A1B5
ENCODING 41397
SWIDTH 960 0
DWIDTH 24 0
BBX 24 24 0 -4
BITMAP
000000
001800
001800
001800
001800
03FF80
03FF80
030180
030180
030180
030180
030180
030180
030180
030180
030180
060180
060180
0C0186
0C0186
180186
3001FE
6000FC
000000
ENDCHAR

STARTCHAR A1B6
ENCODING 41398
SWIDTH 960 0
DWIDTH 24 0
BBX 24 24 0 -4
BITMAP
000000
3FFFF0
3FFFF0
003030
003030
0C3030
0E3030
063030
033030
01B030
00E030
007030
007830
00CC30
00C630
0183B0
0180F0
030078
06003C
0C0036
180060
300FE0
600FC0
000000
ENDCHAR

STARTCHAR A1B7
ENCODING 41399
SWIDTH 960 0
DWIDTH 24 0
BBX 24 24 0 -4
BITMAP
000000
060300
060300
060300
060300
060300
060300
7FF300
7FF300
063300
063300
063300
0C3300
0C3300
0C3300
183300
183300
183300
303306
303306
607386
63E3FE
43C1FC
000000
ENDCHAR

STARTCHAR A1B8
ENCODING 41400
SWIDTH 960 0
DWIDTH 24 0
BBX 24 24 0 -4
BITMAP
000000
018180
018180
018180
018180
018180
018180
018180
018180
018180
7FFFFE
7FFFFE
018180
018180
018180
018180
018180
018180
018180
018180
018180
018180
018180
000000
ENDCHAR

STARTCHAR A1B9
ENCODING 41401
SWIDTH 960 0
DWIDTH 24 0
BBX 24 24 0 -4
BITMAP
000000
000000
000000
000000
00C000
00C000
01FFF0
01FFF0
0380C0
0780C0
0EC180
186300
303600
601E00
001E00
0073C0
01C0FC
0E001E
700000
000000
000000
000000
000000
000000
ENDCHAR

STARTCHAR A1BA
ENCODING 41402
SWIDTH 960 0
DWIDTH 24 0
BBX 24 24 0 -4
BITMAP
000000
000000
000000
00C000
00C000
318000
3DFFE0
0FFFE0
070180
0D8380
18C300
307600
001C00
001C00
003700
00E380
01C1E0
0700FC
0C003C
300000
000000
000000
000000
000000
ENDCHAR

STARTCHAR A1BB
ENCODING 41403
SWIDTH 960 0
DWIDTH 24 0
BBX 24 24 0 -4
BITMAP
000000
000000
000000
000000
000000
000000
000000
003000
003800
001800
1FFFFC
1FFFFC
38000C
300018
700018
000000
000000
000000
000000
000000
000000
000000
000000
000000
ENDCHAR

STARTCHAR A1BC
ENCODING 41404
SWIDTH 960 0
DWIDTH 24 0
BBX 24 24 0 -4
BITMAP
000000
000000
000000
00C630
01C630
018C60
030C60
0718C0
0630C0
0C2180
086300
18C300
0C6180
0C3080
0630C0
061860
061860
030C30
030C30
030C30
030C30
000000
000000
000000
ENDCHAR

STARTCHAR A1BD
ENCODING 41405
SWIDTH 960 0
DWIDTH 24 0
BBX 24 24 0 -4
BITMAP
000000
000C00
001C00
001800
003000
006000
00C000
018060
030060
0700C0
0380C0
01C180
00E300
007600
003C00
001800
003000
006030
00C038
018018
030FFC
0FFFEC
0FF00C
000000
ENDCHAR

STARTCHAR A1BE
ENCODING 41406
SWIDTH 960 0
DWIDTH 24 0
BBX 24 24 0 -4
BITMAP
000000
000C00
000E00
000600
1FFFFE
1FFFFE
180000
180000
180000
180000
180000
180000
180000
180000
180000
180000
180000
300000
300000
300000
300000
600000
600000
000000
ENDCHAR

STARTCHAR A1BF
ENCODING 41407
SWIDTH 960 0
DWIDTH 24 0
BBX 24 24 0 -4
BITMAP
000000
3F8000
3F8000
030000
030000
060000
060000
0C0000
0C0000
1FC000
3FC000
00C000
00C000
018000
318000
1B0000
1B0000
0E0000
0E0000
0F0000
198000
30FFFE
603FFE
000000
ENDCHAR

STARTCHAR A1C0
ENCODING 41408
SWIDTH 960 0
DWIDTH 24 0
BBX 24 24 0 -4
BITMAP
000000
000000
000000
000000
000000
000000
1FFFE0
1FFFE0
000060
000060
000060
1FFFE0
1FFFE0
000060
000060
000060
3FFFFE
3FFFFE
000000
000000
000000
000000
000000
000000
ENDCHAR

STARTCHAR A1C1
ENCODING 41409
SWIDTH 960 0
DWIDTH 24 0
BBX 24 24 0 -4
BITMAP
000000
003000
003000
006000
006000
007FF8
00FFF8
00C018
018018
018030
018030
030030
030060
060060
07FFE0
07FFC0
0600C0
0000C0
0000C0
000180
000180
7FFFFE
7FFFFE
000000
ENDCHAR

STARTCHAR A1C2
ENCODING 41410
SWIDTH 960 0
DWIDTH 24 0
BBX 24 24 0 -4
BITMAP
000000
000180
000380
000700
000E00
001C00
003000
00E060
0180E0
0001C0
000380
000600
000C00
003800
00E030
038060
0000C0
000180
000300
000E00
007800
01E000
0F0000
000000
ENDCHAR

STARTCHAR A1C3
ENCODING 41411
SWIDTH 960 0
DWIDTH 24 0
BBX 24 24 0 -4
BITMAP
000000
01FF80
01FF80
018300
018300
018600
018600
018E00
018C00
018600
018600
018300
018300
018180
018180
018180
018180
01FF80
019F00
018000
018000
018000
018000
000000
ENDCHAR

STARTCHAR A1C4
ENCODING 41412
SWIDTH 960 0
DWIDTH 24 0
BBX 24 24 0 -4
BITMAP
000000
000CC0
000C60
000C30
000C00
7FFFFE
7FFFFE
000C00
000C00
000C00
060C00
030C00
018C00
00CC00
006C00
007800
003800
003C00
006E00
018380
0700E0
1C0038
70000E
000000
ENDCHAR

STARTCHAR A1C5
ENCODING 41413
SWIDTH 960 0
DWIDTH 24 0
BBX 24 24 0 -4
BITMAP
000000
018180
018180
030180
030180
060180
060180
0C3180
0C3180
386180
186180
0CC180
06C180
038180
010180
030180
066180
063180
0C3186
0CF986
1FD986
3C19FE
1000FC
000000
ENDCHAR

STARTCHAR A1C6
ENCODING 41414
SWIDTH 960 0
DWIDTH 24 0
BBX 24 24 0 -4
BITMAP
000000
060300
060300
060300
066300
666300
666300
666300
666300
666300
666300
666300
666300
666300
666300
666300
666300
666300
7FE306
7FE306
606306
0003FE
0001FC
000000
ENDCHAR

STARTCHAR A1C7
ENCODING 41415
SWIDTH 960 0
DWIDTH 24 0
BBX 24 24 0 -4
BITMAP
000000
006000
003000
001800
001800
7FFFFE
7FFFFE
018180
018180
018180
018180
018180
018180
018180
018180
018180
030180
030180
060180
060180
0C0180
180180
300180
000000
ENDCHAR

STARTCHAR A1C8
ENCODING 41416
SWIDTH 960 0
DWIDTH 24 0
BBX 24 24 0 -4
BITMAP
000000
001800
001800
001800
001800
7FFFFE
7FFFFE
601806
601806
603C06
603606
606306
60C186
6180C6
630066
660026
6C0006
600006
600006
600006
60000E
60007E
60007C
000000
ENDCHAR

STARTCHAR A1C9
ENCODING 41417
SWIDTH 960 0
DWIDTH 24 0
BBX 24 24 0 -4
BITMAP
000000
030000
030000
033FFC
063FFC
063018
0E3018
0C3018
1C1830
1C1830
3C1830
3C0C60
6C0C60
0C06C0
0C06C0
0C0380
0C0380
0C0380
0C06C0
0C0C60
0C1830
0C301C
0C600E
000000
ENDCHAR

STARTCHAR A1CA
ENCODING 41418
SWIDTH 960 0
DWIDTH 24 0
BBX 24 24 0 -4
BITMAP
000000
030000
030300
030300
060300
060600
0E0600
0C0600
1C0C00
1C0C00
3C0C00
3C1800
6C1800
0C1800
0C3000
0C3060
0C6030
0C6030
0CC018
0CFFFC
0DFFCE
0C0006
0C0000
000000
ENDCHAR

STARTCHAR A1CB
ENCODING 41419
SWIDTH 960 0
DWIDTH 24 0
BBX 24 24 0 -4
BITMAP
000000
000000
000000
01C1C0
018180
018180
018180
018180
018180
018180
01C1C0
03C3C0
036360
036360
063360
063630
0C3630
0C1C18
181C18
18180C
30300E
604006
000000
000000
ENDCHAR

STARTCHAR A1CC
ENCODING 41420
SWIDTH 960 0
DWIDTH 24 0
BBX 24 24 0 -4
BITMAP
000000
001C00
001800
003800
003800
006C00
006600
00C300
01C180
0380C0
070070
0C1C1C
181806
601800
003800
003C00
006600
00C300
01C180
0380E0
070030
0E001C
380006
000000
ENDCHAR

STARTCHAR A1CD
ENCODING 41421
SWIDTH 960 0
DWIDTH 24 0
BBX 24 24 0 -4
BITMAP
000000
0FFFF0
0FFFF0
0C0030
0C0030
0C0030
0C0030
7FFFFE
7FFFFE
0C0030
0C0030
0C0030
0C0030
7FFFFE
7FFFFE
0C0030
0C0030
0C0030
180030
180030
180030
3001F0
3001E0
000000
ENDCHAR

STARTCHAR A1CE
ENCODING 41422
SWIDTH 960 0
DWIDTH 24 0
BBX 24 24 0 -4
BITMAP
000000
3FFFFC
3FFFFC
30180C
30180C
30180C
30180C
30180C
30180C
30180C
3FFFFC
3FFFFC
30000C
30000C
30000C
30000C
30000C
30000C
30000C
30000C
30000C
3000FC
3000F8
000000
ENDCHAR

STARTCHAR A1CF
ENCODING 41423
SWIDTH 960 0
DWIDTH 24 0
BBX 24 24 0 -4
BITMAP
000000
7FFFFE
7FFFFE
600006
600006
600006
600006
600006
000000
0180C0
0180C0
0180C0
0180C0
0180C0
0180C0
0300C0
0300C0
0300C6
0600C6
0600C6
0C00CE
1800FE
30007C
000000
ENDCHAR

STARTCHAR A1D0
ENCODING 41424
SWIDTH 960 0
DWIDTH 24 0
BBX 24 24 0 -4
BITMAP
000000
707FFE
387FFE
1C00C0
0C00C0
0000C0
0000C0
0000C0
0000C0
0000C0
0000C0
0000C0
0600C0
0600C0
0C00C0
0C00C0
1800C0
1800C0
3000C0
6000C0
0000C0
000FC0
000F80
000000
ENDCHAR

STARTCHAR A1D1
ENCODING 41425
SWIDTH 960 0
DWIDTH 24 0
BBX 24 24 0 -4
BITMAP
000000
0FFFF0
0FFFF0
0C0030
0C0030
0DFFB0
0DFFB0
0CC330
0CC330
0CC330
0C6630
0C6630
0C6630
0C3C30
0C1830
0C1830
0C3C30
186630
18C330
3181B6
300036
60003E
40001C
000000
ENDCHAR

STARTCHAR A1D2
ENCODING 41426
SWIDTH 960 0
DWIDTH 24 0
BBX 24 24 0 -4
BITMAP
000000
7FFFF0
7FFFF0
003030
003030
003030
303030
303030
186038
186038
0C603C
0C6036
06C036
06C030
02C030
018060
018060
030060
0600C0
0C00C0
180180
300F80
600E00
000000
ENDCHAR

STARTCHAR A1D3
ENCODING 41427
SWIDTH 960 0
DWIDTH 24 0
BBX 24 24 0 -4
BITMAP
000000
006000
006000
006000
006000
3FFFE0
3FFFE0
006060
006060
0C6078
0C6078
0CC06C
18C06C
18C06E
318066
618066
030060
030060
0600C0
0600C0
0C0180
180F80
300F00
000000
ENDCHAR

STARTCHAR A1D4
ENCODING 41428
SWIDTH 960 0
DWIDTH 24 0
BBX 24 24 0 -4
BITMAP
000000
0000C0
0000C0
7FF0C0
7FF0C0
3037FE
3037FE
3030C6
1860C6
1860C6
1860C6
0CC0C6
0CC0C6
0680C6
0780C6
030186
030186
078186
06C306
0CC306
186606
302C3E
60083C
000000
ENDCHAR

STARTCHAR A1D5
ENCODING 41429
SWIDTH 960 0
DWIDTH 24 0
BBX 24 24 0 -4
BITMAP
000000
030000
030000
060000
07FFFE
0FFFFE
180006
306006
606006
406006
006006
00E006
00F006
00D006
019806
018C06
030C06
07060C
0E030C
1C030C
30001C
0000F8
0000F0
000000
ENDCHAR

STARTCHAR A1D6
ENCODING 41430
SWIDTH 960 0
DWIDTH 24 0
BBX 24 24 0 -4
BITMAP
000000
060000
060000
0C0000
0FFFFE
1FFFFE
180006
300006
600006
000006
1FC006
1FFF86
003F86
000006
000006
000786
007F86
1FF806
1F800C
00000C
00001C
0000F8
0000F0
000000
ENDCHAR

STARTCHAR A1D7
ENCODING 41431
SWIDTH 960 0
DWIDTH 24 0
BBX 24 24 0 -4
BITMAP
000000
000000
3FFFFC
3FFFFC
300000
3000C0
3080C0
30C0C0
306180
303180
301B00
300F00
300600
300F00
301D80
3038C0
307060
30E030
31C018
338000
300000
3FFFFE
3FFFFE
000000
ENDCHAR

STARTCHAR A1D8
ENCODING 41432
SWIDTH 960 0
DWIDTH 24 0
BBX 24 24 0 -4
BITMAP
000000
0C0300
0C0300
0C0300
0C0300
0C3FFE
0C3FFE
7F8306
7F8306
0C0306
0C0306
0C0306
0C0606
0C0606
0C0606
0C0C06
0C0C06
0C1806
0C180C
0C300C
0C600C
0C6078
0CC070
000000
ENDCHAR

STARTCHAR A1D9
ENCODING 41433
SWIDTH 960 0
DWIDTH 24 0
BBX 24 24 0 -4
BITMAP
000000
00C000
00C000
3FFFC0
3FFFC0
00C0C0
00C0C0
0180C0
0180C0
0300C0
0300C6
0600C6
0C18FE
18187C
301800
001800
7FFFFE
7FFFFE
001800
001800
001800
001800
001800
000000
ENDCHAR

STARTCHAR A1DA
ENCODING 41434
SWIDTH 960 0
DWIDTH 24 0
BBX 24 24 0 -4
BITMAP
000000
00C300
00C300
00C300
00C300
00C300
00C300
00C300
00C300
00C300
7FC3FE
7FC3FE
00C300
00C300
00C300
00C300
00C300
00C300
00C300
00C300
00C300
00C300
00C300
000000
ENDCHAR

STARTCHAR A1DB
ENCODING 41435
SWIDTH 960 0
DWIDTH 24 0
BBX 24 24 0 -4
BITMAP
000000
1FFFFE
1FFFFE
180000
180C00
180C00
180C00
19FFFC
19FFFC
180C0C
180C0C
180C0C
18180C
18180C
18180C
18300C
18300C
30300C
30600C
30600C
60C01C
6181F8
0301F0
000000
ENDCHAR

STARTCHAR A1DC
ENCODING 41436
SWIDTH 960 0
DWIDTH 24 0
BBX 24 24 0 -4
BITMAP
000000
00C000
00C000
00C000
00C000
7FFFFE
7FFFFE
018000
018600
018600
018600
030C00
030C00
030C00
031800
061800
063060
063030
0C6030
0C6018
18C7FC
18FF86
300006
000000
ENDCHAR

STARTCHAR A1DD
ENCODING 41437
SWIDTH 960 0
DWIDTH 24 0
BBX 24 24 0 -4
BITMAP
000000
003000
003000
006000
006000
00C0C0
00C060
018030
030018
07FFF8
1FE00C
183006
003000
006000
006000
00C0C0
018060
018060
030030
0607F8
07FF18
1FF00C
1C000C
000000
ENDCHAR

STARTCHAR A1DE
ENCODING 41438
SWIDTH 960 0
DWIDTH 24 0
BBX 24 24 0 -4
BITMAP
000000
000000
7FF7FE
7FF7FE
183306
183306
18330C
0C630C
0C610C
0C618C
0C6198
06C198
06C0D8
06C0D0
0380F0
038070
038060
0780F0
0CC198
18630C
303606
601406
000000
000000
ENDCHAR

STARTCHAR A1DF
ENCODING 41439
SWIDTH 960 0
DWIDTH 24 0
BBX 24 24 0 -4
BITMAP
000000
3FFFF0
3FFFF0
038060
01C0C0
00E180
007300
003E00
007700
03C1C0
1F0078
000000
3FFFF0
3FFFF0
038060
01C0C0
00E380
007700
001E00
003F00
01E3C0
0F80F0
7C003E
000000
ENDCHAR

STARTCHAR A1E0
ENCODING 41440
SWIDTH 960 0
DWIDTH 24 0
BBX 24 24 0 -4
BITMAP
000000
006000
006000
006FFE
306FFE
306606
30660C
30660C
30660C
306618
306318
306318
306330
3061B0
3061B0
3FE0E0
3FE0E0
0060C0
0061E0
006330
006618
006C0C
006806
000000
ENDCHAR

STARTCHAR A1E1
ENCODING 41441
SWIDTH 960 0
DWIDTH 24 0
BBX 24 24 0 -4
BITMAP
000000
000000
001800
001800
001800
001800
001800
001800
001800
1FFFF8
1FFFF8
001800
001800
001800
001830
001838
00181C
00180C
001800
001800
001800
7FFFFE
7FFFFE
000000
ENDCHAR

STARTCHAR A1E2
ENCODING 41442
SWIDTH 960 0
DWIDTH 24 0
BBX 24 24 0 -4
BITMAP
000000
001800
181818
181818
181818
181818
181818
181818
181818
181818
181818
181818
1FFFF8
1FFFF8
181818
001800
001800
001800
001800
001800
001800
7FFFFE
7FFFFE
000000
ENDCHAR

STARTCHAR A1E3
ENCODING 41443
SWIDTH 960 0
DWIDTH 24 0
BBX 24 24 0 -4
BITMAP
000000
7FFFFE
7FFFFE
001800
001800
001800
001800
1FFFF8
1FFFF8
181818
181818
181818
181818
181818
181818
181818
1818F8
1818F0
001800
001800
001800
001800
001800
000000
ENDCHAR

STARTCHAR A1E4
ENCODING 41444
SWIDTH 960 0
DWIDTH 24 0
BBX 24 24 0 -4
BITMAP
000000
000C00
000C60
000C30
000C18
000C18
000C00
7FFFFE
7FFFFE
000C00
000C00
000C00
000600
000600
000300
000300
3FF180
3FF180
0000C6
0000C6
000066
00003E
00001C
000000
ENDCHAR

STARTCHAR A1E5
ENCODING 41445
SWIDTH 960 0
DWIDTH 24 0
BBX 24 24 0 -4
BITMAP
000000
003000
003800
001C00
000E00
000600
07FFFE
07FFFE
060006
060006
060006
060006
07FFFE
07FFFE
060006
060000
060000
0C0000
0C0000
180000
180000
300000
300000
000000
ENDCHAR

STARTCHAR A1E6
ENCODING 41446
SWIDTH 960 0
DWIDTH 24 0
BBX 24 24 0 -4
BITMAP
000000
000000
1FFFFC
1FFFFC
000000
000000
000000
0FFFFC
0FFFFC
0C000C
0C000C
0C000C
0C000C
0FFFFC
0FFFFC
0C000C
0C0000
180000
180000
300000
300000
600000
600000
000000
ENDCHAR

STARTCHAR A1E7
ENCODING 41447
SWIDTH 960 0
DWIDTH 24 0
BBX 24 24 0 -4
BITMAP
000000
001800
001800
001800
001FF0
001FF0
001800
001800
001800
07FFC0
07FFC0
018180
018180
00C300
00E300
006600
003E00
001C00
003E00
006780
01C1E0
070078
1C001C
000000
ENDCHAR

STARTCHAR A1E8
ENCODING 41448
SWIDTH 960 0
DWIDTH 24 0
BBX 24 24 0 -4
BITMAP
000000
00C000
00C000
00C000
018000
018000
03FFFE
03FFFE
0700C0
0700C0
0F8180
0D8180
18C180
18E300
007300
003E00
001E00
001C00
003700
006380
01C0E0
070038
1C000E
000000
ENDCHAR

STARTCHAR A1E9
ENCODING 41449
SWIDTH 960 0
DWIDTH 24 0
BBX 24 24 0 -4
BITMAP
000000
000000
07FFF8
07FFF8
000C00
000C00
000C00
000C00
000C00
3FFFFE
3FFFFE
001E00
001E00
003600
003600
006600
006600
00C606
018606
030606
060606
1C07FE
3003FC
000000
ENDCHAR

STARTCHAR A1EA
ENCODING 41450
SWIDTH 960 0
DWIDTH 24 0
BBX 24 24 0 -4
BITMAP
000000
1FFFFC
1FFFFC
180600
180600
180600
180600
180600
180600
3FFFFE
3FFFFE
000600
000600
038600
00E600
003E00
000F00
0007C0
0006F0
000638
00060C
007E00
007C00
000000
ENDCHAR

STARTCHAR A1EB
ENCODING 41451
SWIDTH 960 0
DWIDTH 24 0
BBX 24 24 0 -4
BITMAP
000000
030000
030000
030000
060000
07FFF8
0FFFF8
0C1800
181800
301800
601800
001800
001800
0FFFF0
0FFFF0
001800
001860
001870
001838
001818
001800
7FFFFE
7FFFFE
000000
ENDCHAR

STARTCHAR A1EC
ENCODING 41452
SWIDTH 960 0
DWIDTH 24 0
BBX 24 24 0 -4
BITMAP
000000
001800
181818
181818
181818
181818
181818
181818
1FFFF8
1FFFF8
180018
000000
000000
000000
0FFFF0
0FFFF0
000000
000000
000000
000000
000000
7FFFFE
7FFFFE
000000
ENDCHAR

STARTCHAR A1ED
ENCODING 41453
SWIDTH 960 0
DWIDTH 24 0
BBX 24 24 0 -4
BITMAP
000000
030000
033FFC
033FFC
060300
060300
0E0300
0C0300
1C0300
1C0300
3CFFFE
3CFFFE
6C0300
6C0300
0C0300
0C0300
0C0300
0C0300
0C0300
0C0300
0C0300
0C0300
0C0300
000000
ENDCHAR

STARTCHAR A1EE
ENCODING 41454
SWIDTH 960 0
DWIDTH 24 0
BBX 24 24 0 -4
BITMAP
000000
00C300
018300
018300
030300
030300
060300
0E0300
0EFFFE
1EFFFE
360300
660300
060780
060780
0606C0
060CC0
060C60
061860
061830
063030
063018
06600C
06C006
000000
ENDCHAR

STARTCHAR A1EF
ENCODING 41455
SWIDTH 960 0
DWIDTH 24 0
BBX 24 24 0 -4
BITMAP
000000
030000
037FE0
037FE0
066060
066060
0E6060
0C6060
1C6C60
1C6C60
3C6660
6C6660
0C6360
0C6360
0C6060
0C6060
0C6060
0C6060
0CC066
0CC066
0CC066
0D807E
0D003C
000000
ENDCHAR

STARTCHAR A1F0
ENCODING 41456
SWIDTH 960 0
DWIDTH 24 0
BBX 24 24 0 -4
BITMAP
000000
003000
003000
003000
003000
003FF0
003FF0
003000
003000
003000
003000
7FFFFE
7FFFFE
003000
003800
006C00
00C600
018300
030180
0600C0
0C0070
38001C
600006
000000
ENDCHAR

STARTCHAR A1F1
ENCODING 41457
SWIDTH 960 0
DWIDTH 24 0
BBX 24 24 0 -4
BITMAP
000000
030000
030000
037FFE
067FFE
060CC0
0C0CC0
0C0CC0
1C0CC0
1C0CC0
3C0CC0
2C0CC0
6C0CC0
4C18C0
0C18C0
0C18C0
0C30C0
0C30C0
0C60C0
0C60C6
0CC0C6
0CC0FE
0D807C
000000
ENDCHAR

STARTCHAR A1F2
ENCODING 41458
SWIDTH 960 0
DWIDTH 24 0
BBX 24 24 0 -4
BITMAP
000000
030300
030300
060300
060300
060300
0C0300
0C3300
1C3360
1C3330
3C6318
2C6318
6C630C
0CC30C
0CC306
0D8306
0D8300
0C0300
0C0300
0C0300
0C0300
0C1F00
0C0E00
000000
ENDCHAR

STARTCHAR A1F3
ENCODING 41459
SWIDTH 960 0
DWIDTH 24 0
BBX 24 24 0 -4
BITMAP
000000
018000
018180
030300
030300
060600
0607FE
0E0FFE
0E1C0C
1E180C
16300C
366C18
66C718
060398
0600F0
060070
060060
0600C0
060180
060300
060600
060C00
063800
000000
ENDCHAR

STARTCHAR A1F4
ENCODING 41460
SWIDTH 960 0
DWIDTH 24 0
BBX 24 24 0 -4
BITMAP
000000
018300
018300
018300
030618
030618
067FFE
067FFE
0E0C18
1E0C18
360C18
661830
061830
063030
063060
067860
060EC0
0603C0
0601E0
060730
060C18
06380C
066006
000000
ENDCHAR

STARTCHAR A1F5
ENCODING 41461
SWIDTH 960 0
DWIDTH 24 0
BBX 24 24 0 -4
BITMAP
000000
001800
001800
003C00
006600
00C300
018180
0306E0
060C30
1C181C
707006
01C300
070600
000C00
0038C0
00E180
038300
060600
001C00
007000
01C000
070000
1C0000
000000
ENDCHAR

STARTCHAR A1F6
ENCODING 41462
SWIDTH 960 0
DWIDTH 24 0
BBX 24 24 0 -4
BITMAP
000000
003800
001C00
003600
006300
00C180
0180C0
030060
0E0030
18001C
700006
0FFFF8
0FFFF8
001800
001800
001800
001800
001800
001800
001800
001800
7FFFFE
7FFFFE
000000
ENDCHAR

STARTCHAR A1F7
ENCODING 41463
SWIDTH 960 0
DWIDTH 24 0
BBX 24 24 0 -4
BITMAP
000000
3FFFFE
3FFFFE
300006
300006
33FFE6
33FFE6
330066
330066
330066
330066
33FFE6
33FFE6
330066
330006
330006
330006
330036
33FFF6
31FFE6
300006
30007E
30003C
000000
ENDCHAR

STARTCHAR A1F8
ENCODING 41464
SWIDTH 960 0
DWIDTH 24 0
BBX 24 24 0 -4
BITMAP
000000
3FFFFE
3FFFFE
300006
300006
300006
300006
31FFC6
31FFC6
3180C6
3180C6
3180C6
3180C6
3180C6
31FFC6
31FFC6
3180C6
300006
300006
300006
300006
3000FE
3000FC
000000
ENDCHAR

STARTCHAR A1F9
ENCODING 41465
SWIDTH 960 0
DWIDTH 24 0
BBX 24 24 0 -4
BITMAP
000000
1FC7F0
1FC7F0
18C630
18C630
18C630
18C630
18C630
18C630
18C630
7FFFFE
7FFFFE
18C630
18C630
18C630
18C630
18C630
18C630
18C630
18C630
18C630
1BC6F0
1B86E0
000000
ENDCHAR

STARTCHAR A1FA
ENCODING 41466
SWIDTH 960 0
DWIDTH 24 0
BBX 24 24 0 -4
BITMAP
000000
7FFFFE
7FFFFE
600006
618006
618006
61FFE6
63FFE6
030000
030000
030000
07FFC0
07FFC0
0600C0
0000C0
0000C0
3FFFFC
3FFFFC
000180
000180
000380
003F00
003E00
000000
ENDCHAR

STARTCHAR A1FB
ENCODING 41467
SWIDTH 960 0
DWIDTH 24 0
BBX 24 24 0 -4
BITMAP
000000
1FFFFE
1FFFFE
180006
180006
1FFFFE
1FFFFE
180000
180000
183FE0
183FE0
183060
183060
183060
183060
183060
306060
306060
306066
30C066
60C066
61807E
43003C
000000
ENDCHAR

STARTCHAR A1FC
ENCODING 41468
SWIDTH 960 0
DWIDTH 24 0
BBX 24 24 0 -4
BITMAP
000000
067FFE
067FFE
060306
060306
060306
060306
7FC306
7FC306
060306
060606
060606
060606
060606
060C06
060C06
07CC06
7F9806
78180C
00300C
00601C
00C1F8
0001F0
000000
ENDCHAR

STARTCHAR A1FD
ENCODING 41469
SWIDTH 960 0
DWIDTH 24 0
BBX 24 24 0 -4
BITMAP
000000
007806
03E006
3F8186
018186
018186
018186
018186
018186
7FFD86
7FFD86
018186
018186
018186
018186
018186
018186
030006
030006
030006
060006
06003E
0C003C
000000
ENDCHAR

STARTCHAR A1FE
ENCODING 41470
SWIDTH 960 0
DWIDTH 24 0
BBX 24 24 0 -4
BITMAP
000000
000000
001FFE
031FFE
030186
060186
0E0186
1C0186
782186
306186
186186
0CC186
06C186
038186
030306
060306
0CC306
186606
37E606
7E6C0C
000C0C
0018FC
0010F8
000000
ENDCHAR

STARTCHAR A2A1
ENCODING 41633
SWIDTH 960 0
DWIDTH 24 0
BBX 24 24 0 -4
BITMAP
000000
7FFFFE
7FFFFE
603006
603006
603006
67FFE6
67FFE6
603066
603066
603066
606066
606066
606066
60C066
60C066
618066
6183E6
6303C6
600006
7FFFFE
7FFFFE
600006
000000
ENDCHAR

STARTCHAR A2A2
ENCODING 41634
SWIDTH 960 0
DWIDTH 24 0
BBX 24 24 0 -4
BITMAP
000000
018000
018000
030000
030000
07FFFE
07FFFE
0C1806
0C0C06
1BFFE6
33FFE6
618006
018006
018006
018006
018006
018066
018066
01FFE6
00FFC6
00000E
0001FC
0001F8
000000
ENDCHAR

STARTCHAR A2A3
ENCODING 41635
SWIDTH 960 0
DWIDTH 24 0
BBX 24 24 0 -4
BITMAP
000000
018000
018000
030000
030000
07FFFE
07FFFE
0C0006
180C06
360C06
660C06
061C06
061E06
063306
066186
06C0C6
060006
07FFE6
07FFE6
060006
00000C
0000FC
0000F8
000000
ENDCHAR

STARTCHAR A2A4
ENCODING 41636
SWIDTH 960 0
DWIDTH 24 0
BBX 24 24 0 -4
BITMAP
000000
018000
018000
030000
030000
07FFFE
07FFFE
0E0006
0C0C06
181806
183FE6
307FE6
60E066
01C0C6
0360C6
063186
001B06
000606
001C06
00F006
07800C
0001FC
0001F8
000000
ENDCHAR

STARTCHAR A2A5
ENCODING 41637
SWIDTH 960 0
DWIDTH 24 0
BBX 24 24 0 -4
BITMAP
000000
030000
030000
060000
07FFF8
0FFFF8
0C6318
186318
306318
606318
0CC318
07C318
01E618
037618
061E18
0C0F98
181DD8
303878
00703C
00E03E
01C076
0707E2
0003C0
000000
ENDCHAR

STARTCHAR A2A6
ENCODING 41638
SWIDTH 960 0
DWIDTH 24 0
BBX 24 24 0 -4
BITMAP
000000
7FFFFC
7FFFFC
600000
600000
67FFF8
67FFF8
600C00
600C00
600C00
600C00
600C00
600C00
600C00
600C00
600C00
6FFFFC
6FFFFC
600000
600000
7FFFFE
7FFFFE
600000
000000
ENDCHAR

STARTCHAR A2A7
ENCODING 41639
SWIDTH 960 0
DWIDTH 24 0
BBX 24 24 0 -4
BITMAP
000000
000300
000300
7F8300
7F8300
618300
618300
618380
6183C0
618360
618330
618318
61830C
618306
618300
7F8300
7F8300
618300
600300
000300
000300
000300
000300
000000
ENDCHAR

STARTCHAR A2A8
ENCODING 41640
SWIDTH 960 0
DWIDTH 24 0
BBX 24 24 0 -4
BITMAP
000000
0007FE
7FE7FE
7FE606
030606
030606
030606
030606
030606
030606
030606
030606
030606
030606
03F606
0FC606
7E0606
70067E
00067C
000600
000600
000600
000600
000000
ENDCHAR

STARTCHAR A2A9
ENCODING 41641
SWIDTH 960 0
DWIDTH 24 0
BBX 24 24 0 -4
BITMAP
000000
1FFFFE
1FFFFE
180000
180000
1FFFFC
1FFFFC
183000
183000
183000
183FF8
183FF8
187018
186018
186018
30C018
30C018
318018
318018
630018
630030
4607F0
0607E0
000000
ENDCHAR

STARTCHAR A2AA
ENCODING 41642
SWIDTH 960 0
DWIDTH 24 0
BBX 24 24 0 -4
BITMAP
000000
001800
001800
003000
7FFFFE
7FFFFE
006300
00C100
01C180
0380C0
073060
0E3030
18301C
306006
406000
00C180
00C0C0
018060
018030
0301F8
031FEC
0FFC0E
1F8006
000000
ENDCHAR

STARTCHAR A2AB
ENCODING 41643
SWIDTH 960 0
DWIDTH 24 0
BBX 24 24 0 -4
BITMAP
000000
0007F0
00FF80
1FF000
003000
003000
003000
7FFFFE
7FFFFE
006000
006000
00FFF0
00FFF0
01E060
01A060
0330C0
031980
060F00
0C0F00
181D80
3070E0
01C038
0F000E
000000
ENDCHAR

STARTCHAR A2AC
ENCODING 41644
SWIDTH 960 0
DWIDTH 24 0
BBX 24 24 0 -4
BITMAP
000000
000600
000600
7F8600
7F8600
618600
618600
618600
618600
618E00
618E00
618F00
618F00
619980
619980
7F98C0
7FB0C0
61B060
606060
006030
00C018
01800C
030006
000000
ENDCHAR

STARTCHAR A2AD
ENCODING 41645
SWIDTH 960 0
DWIDTH 24 0
BBX 24 24 0 -4
BITMAP
000000
000180
000180
7F0180
7F0180
630180
630180
637FFE
637FFE
630180
630180
630180
630180
630180
630180
7F0180
7F0180
630180
600180
000180
000180
000180
000180
000000
ENDCHAR

STARTCHAR A2AE
ENCODING 41646
SWIDTH 960 0
DWIDTH 24 0
BBX 24 24 0 -4
BITMAP
000000
07FFF0
07FFF0
060030
060030
060030
07FFF0
07FFF0
060030
000000
3FFFFE
3FFFFE
018000
018000
03FFF8
03FFF8
000018
000018
000018
000030
000070
001FE0
001FC0
000000
ENDCHAR

STARTCHAR A2AF
ENCODING 41647
SWIDTH 960 0
DWIDTH 24 0
BBX 24 24 0 -4
BITMAP
000000
003FFC
7FBFFC
7F980C
61980C
619818
619818
618C18
618C30
618C30
618630
618660
618360
6183C0
7F81C0
7F81C0
6183C0
600660
000C30
001838
00700C
00E006
018002
000000
ENDCHAR

STARTCHAR A2B0
ENCODING 41648
SWIDTH 960 0
DWIDTH 24 0
BBX 24 24 0 -4
BITMAP
000000
000600
000600
7F8600
7F8600
618600
618600
61FFF0
61FFF0
618630
618630
618630
618630
618630
618C30
7F8C30
7F8C30
619830
601830
003036
003036
00603E
00C01C
000000
ENDCHAR

STARTCHAR A2B1
ENCODING 41649
SWIDTH 960 0
DWIDTH 24 0
BBX 24 24 0 -4
BITMAP
000000
00C000
00C000
00C180
3FFF80
3FFF80
00C180
00C180
018180
018186
030186
070186
0E01FE
1C00FC
300000
0FFFF0
0FFFF0
0C0030
0C0030
0C0030
0FFFF0
0FFFF0
0C0030
000000
ENDCHAR

STARTCHAR A2B2
ENCODING 41650
SWIDTH 960 0
DWIDTH 24 0
BBX 24 24 0 -4
BITMAP
000000
7FFFFE
7FFFFE
600006
600006
67FFE6
67FFE6
6180C6
60C186
60C186
606306
603706
601E06
601C06
603C06
606606
61C386
6380E6
6E0036
600006
7FFFFE
7FFFFE
600006
000000
ENDCHAR

STARTCHAR A2B3
ENCODING 41651
SWIDTH 960 0
DWIDTH 24 0
BBX 24 24 0 -4
BITMAP
000000
060180
060180
060180
060180
060180
061FFE
7FDFFE
7FC186
060186
060186
060186
060186
060306
060306
060306
07E606
7F8606
780606
000C06
000C0C
00187C
003078
000000
ENDCHAR

STARTCHAR A2B4
ENCODING 41652
SWIDTH 960 0
DWIDTH 24 0
BBX 24 24 0 -4
BITMAP
000000
030300
030300
030300
030300
030300
030300
3FE300
3FE3C0
030360
030330
030318
03030C
030306
030300
037300
03E300
0F8300
7E0300
700300
000300
000300
000300
000000
ENDCHAR

STARTCHAR A2B5
ENCODING 41653
SWIDTH 960 0
DWIDTH 24 0
BBX 24 24 0 -4
BITMAP
000000
000000
030000
0300C0
0300C0
0600C0
07F8C0
07F980
0E3180
0E31C0
1E33C0
1B6360
336730
61C618
018C0C
01CC06
03E002
073000
0E1C00
180780
3001F0
60003E
000000
000000
ENDCHAR

STARTCHAR A2B6
ENCODING 41654
SWIDTH 960 0
DWIDTH 24 0
BBX 24 24 0 -4
BITMAP
000000
0303FE
0303FE
030306
060306
07FB06
07FB06
0C1B06
0C1B06
183306
183306
3C6306
676306
41C306
00C306
018306
018306
03033E
06033C
0C0300
180300
300300
000300
000000
ENDCHAR

STARTCHAR A2B7
ENCODING 41655
SWIDTH 960 0
DWIDTH 24 0
BBX 24 24 0 -4
BITMAP
000000
001800
001800
001800
001800
001800
7FFFFE
7FFFFE
001800
003C00
007E00
00DB00
019980
0318C0
061860
0C1830
181818
33FFCC
63FFC6
001800
001800
001800
001800
000000
ENDCHAR

STARTCHAR A2B8
ENCODING 41656
SWIDTH 960 0
DWIDTH 24 0
BBX 24 24 0 -4
BITMAP
000000
006000
006000
006000
7FFFFE
7FFFFE
00C300
00C180
0180C0
030060
060030
0D80D8
1980CC
3180C6
6180C0
0180C0
0180C0
0300C0
0300C0
0600C0
0600C0
0C00C0
1800C0
000000
ENDCHAR

STARTCHAR A2B9
ENCODING 41657
SWIDTH 960 0
DWIDTH 24 0
BBX 24 24 0 -4
BITMAP
000000
060C00
038C00
01CC00
00CC00
000C00
1C0C00
070C00
038C00
000C00
7FFFFE
7FFFFE
001E00
001E00
003300
003180
006180
00C0C0
018060
030030
060018
1C000C
700006
000000
ENDCHAR

STARTCHAR A2BA
ENCODING 41658
SWIDTH 960 0
DWIDTH 24 0
BBX 24 24 0 -4
BITMAP
000000
001800
001800
001800
001800
7FFFFE
7FFFFE
003600
003300
006180
00C0C0
018060
030070
060078
1E006C
760066
060060
060060
060060
060060
07FFE0
07FFE0
060060
000000
ENDCHAR

STARTCHAR A2BB
ENCODING 41659
SWIDTH 960 0
DWIDTH 24 0
BBX 24 24 0 -4
BITMAP
000000
0C0000
0C1FFE
0C1FFE
0CC0C0
7FE0C0
7FE0C0
18C0C0
18C0C0
18C0C0
18C0C0
18C0C0
3180C0
3180C0
7980C0
1F80C0
0700C0
0380C0
06E0C0
0C60C0
1800C0
3007C0
000780
000000
ENDCHAR

STARTCHAR A2BC
ENCODING 41660
SWIDTH 960 0
DWIDTH 24 0
BBX 24 24 0 -4
BITMAP
000000
001800
001C00
000C00
7FFFFE
7FFFFE
600006
600006
67FFE6
07FFE0
00C0C0
00C0C0
006180
006180
003300
003600
001C00
003E00
007300
00E1C0
01C0E0
038030
0E0018
000000
ENDCHAR

STARTCHAR A2BD
ENCODING 41661
SWIDTH 960 0
DWIDTH 24 0
BBX 24 24 0 -4
BITMAP
000000
001800
001C00
000C00
7FFFFE
7FFFFE
600006
600006
00C180
00C180
00C180
00C180
00C180
00C180
00C180
00C180
018180
018180
018186
030186
030186
0601FE
1C00FC
000000
ENDCHAR

STARTCHAR A2BE
ENCODING 41662
SWIDTH 960 0
DWIDTH 24 0
BBX 24 24 0 -4
BITMAP
000000
000018
7FF818
7FF818
183018
183018
183018
1867FE
0C67FE
0C6018
0CC018
06C618
06C618
038318
038318
030198
078018
06C018
0CC018
0C6018
183018
3018F8
6008F0
000000
ENDCHAR

STARTCHAR A2BF
ENCODING 41663
SWIDTH 960 0
DWIDTH 24 0
BBX 24 24 0 -4
BITMAP
000000
01C000
018000
030000
030000
07FFFC
0FFFFC
0C0C18
180C30
300C00
000C00
030C60
030C60
030C30
060C30
060C18
0C0C18
0C0C0C
180C0C
300C0C
000C00
00FC00
007800
000000
ENDCHAR

STARTCHAR A2C0
ENCODING 41664
SWIDTH 960 0
DWIDTH 24 0
BBX 24 24 0 -4
BITMAP
000000
0FFFFE
0FFFFE
0C0006
0C0006
0FFFFE
0FFFFE
0C0000
0C0000
0C7FF8
0C7FF8
0C3030
0C3030
0C1860
0C0C60
0C06C0
0C0380
180380
1806C0
180C60
301830
30701C
61C00E
000000
ENDCHAR

STARTCHAR A2C1
ENCODING 41665
SWIDTH 960 0
DWIDTH 24 0
BBX 24 24 0 -4
BITMAP
000000
0607F0
0607F0
060630
066630
666630
666630
666630
666630
666630
666630
666630
666630
666630
666630
666630
666C30
7FEC30
7FEC36
600C36
001836
00183E
00301C
000000
ENDCHAR

STARTCHAR A2C2
ENCODING 41666
SWIDTH 960 0
DWIDTH 24 0
BBX 24 24 0 -4
BITMAP
000000
001800
181818
181818
181818
181818
181818
1FFFF8
1FFFF8
180018
001800
001800
001800
003C00
003C00
006600
00E300
01C180
0380C0
070060
0E0030
18001C
30000E
000000
ENDCHAR

STARTCHAR A2C3
ENCODING 41667
SWIDTH 960 0
DWIDTH 24 0
BBX 24 24 0 -4
BITMAP
000000
001800
181818
181818
181818
181818
181818
1FFFF8
1FFFF8
180018
006000
003000
001800
001800
003C00
007600
00E300
01C180
0380C0
070060
0E0030
18001C
300006
000000
ENDCHAR

STARTCHAR A2C4
ENCODING 41668
SWIDTH 960 0
DWIDTH 24 0
BBX 24 24 0 -4
BITMAP
000000
001800
181818
181818
181818
181818
1FFFF8
1FFFF8
180018
000000
3FFFC0
3FFFC0
00C0C0
00C0C0
00C180
0181FE
0181FE
030006
030006
06000C
0C000C
1801F8
3000F0
000000
ENDCHAR

STARTCHAR A2C5
ENCODING 41669
SWIDTH 960 0
DWIDTH 24 0
BBX 24 24 0 -4
BITMAP
000000
0FFFF0
0FFFF0
000030
000030
0C0030
0C0030
0C0030
0FFFF0
0FFFF0
0C0000
0C0000
0C0000
0FFFF8
0FFFF8
0C0018
0C0018
0C0018
0C0018
0C0018
0C0018
0FFFF8
0FFFF8
000000
ENDCHAR

STARTCHAR A2C6
ENCODING 41670
SWIDTH 960 0
DWIDTH 24 0
BBX 24 24 0 -4
BITMAP
000000
060600
060600
060600
060600
7FE600
7FE600
6667FE
6667FE
666600
666600
666600
666600
666600
666600
666600
66E600
66C600
060606
060606
060606
0607FE
0603FC
000000
ENDCHAR

STARTCHAR A2C7
ENCODING 41671
SWIDTH 960 0
DWIDTH 24 0
BBX 24 24 0 -4
BITMAP
000000
000C00
000E00
000600
1FFFFE
1FFFFE
180000
180000
19FFFC
19FFFC
180600
180600
180600
180600
180600
180600
180600
300600
300600
300600
600600
607E00
403C00
000000
ENDCHAR

STARTCHAR A2C8
ENCODING 41672
SWIDTH 960 0
DWIDTH 24 0
BBX 24 24 0 -4
BITMAP
000000
001C00
000E00
000600
1FFFFE
1FFFFE
180000
180000
183000
183000
183000
186000
186000
186000
18C000
18C180
18C0C0
318060
318030
330018
331FFC
67FC0C
67C006
000000
ENDCHAR

STARTCHAR A2C9
ENCODING 41673
SWIDTH 960 0
DWIDTH 24 0
BBX 24 24 0 -4
BITMAP
000000
000600
0006C0
000660
000630
000600
7FFFFC
7FFFFC
000600
000600
000600
000300
1FE300
1FE300
000300
000180
000180
000180
3FF0C6
3FF0C6
000066
00007E
00003C
000000
ENDCHAR

STARTCHAR A2CA
ENCODING 41674
SWIDTH 960 0
DWIDTH 24 0
BBX 24 24 0 -4
BITMAP
000000
060000
063FFC
063FFC
06000C
06000C
46000C
66000C
36000C
36000C
1E000C
0E3FFC
063FFC
06000C
06000C
06000C
06000C
0C000C
0C000C
0C000C
183FFC
183FFC
300000
000000
ENDCHAR

STARTCHAR A2CB
ENCODING 41675
SWIDTH 960 0
DWIDTH 24 0
BBX 24 24 0 -4
BITMAP
000000
018000
033FFE
063FFE
0C00C0
1800C0
3180C0
0180C0
0300C0
0300C0
0600C0
0E00C0
0E00C0
1E00C0
3600C0
6600C0
0600C0
0600C0
0600C0
0600C0
0600C0
060FC0
060780
000000
ENDCHAR

STARTCHAR A2CC
ENCODING 41676
SWIDTH 960 0
DWIDTH 24 0
BBX 24 24 0 -4
BITMAP
000000
060000
061FFE
061FFE
060060
06C060
36C060
366060
366060
666060
660060
660060
060060
060060
060060
060060
060060
060060
060060
060060
060060
0607E0
0603C0
000000
ENDCHAR

STARTCHAR A2CD
ENCODING 41677
SWIDTH 960 0
DWIDTH 24 0
BBX 24 24 0 -4
BITMAP
000000
060300
060300
060300
060300
068300
36DFFE
36DFFE
36C306
664306
660306
660306
060306
060306
060606
060606
060606
060C06
060C06
061806
06180C
0630FC
066078
000000
ENDCHAR

STARTCHAR A2CE
ENCODING 41678
SWIDTH 960 0
DWIDTH 24 0
BBX 24 24 0 -4
BITMAP
000000
000FF8
0FFFC0
0FF000
0C0000
0FFFFE
0FFFFE
0C0006
0C0006
0FFFFE
0FFFFE
0C0006
0C0000
0CFFC0
0CFFC0
0C0300
0C0E00
183800
187006
18E006
31C00E
31FFFC
20FFF8
000000
ENDCHAR

STARTCHAR A2CF
ENCODING 41679
SWIDTH 960 0
DWIDTH 24 0
BBX 24 24 0 -4
BITMAP
000000
060000
063FFE
063FFE
060186
7FC186
7FC186
060186
060186
060186
06C306
07C306
0F0306
3E0306
760606
060606
060C06
060C0C
06180C
06180C
063018
3E61F8
3CC0F0
000000
ENDCHAR

STARTCHAR A2D0
ENCODING 41680
SWIDTH 960 0
DWIDTH 24 0
BBX 24 24 0 -4
BITMAP
000000
060600
060600
060600
060600
7FC600
7FC600
063FE0
063FE0
060660
060660
060660
06C660
0F8C60
7E0C60
660C60
061860
061860
063060
063066
066066
3E607E
3CC03C
000000
ENDCHAR

STARTCHAR A2D1
ENCODING 41681
SWIDTH 960 0
DWIDTH 24 0
BBX 24 24 0 -4
BITMAP
000000
180000
18FFFC
18FFFC
18C00C
18C00C
18C00C
18C00C
18C00C
18C00C
18C00C
18FFFC
18FFFC
18C00C
18C00C
18C00C
18C00C
18C00C
18C00C
18C00C
18FFFC
18FFFC
18C00C
000000
ENDCHAR

STARTCHAR A2D2
ENCODING 41682
SWIDTH 960 0
DWIDTH 24 0
BBX 24 24 0 -4
BITMAP
000000
001800
001980
0018E0
001830
001800
7FFFFE
7FFFFE
003C00
007E00
007B00
00D980
019980
0198C0
031860
061830
0C1818
18180C
301806
601800
001800
001800
001800
000000
ENDCHAR

STARTCHAR A2D3
ENCODING 41683
SWIDTH 960 0
DWIDTH 24 0
BBX 24 24 0 -4
BITMAP
000000
000C00
000C00
000FF8
000FF8
000C00
000C00
01FFE0
01FFE0
030060
060060
0F80C0
18C0C0
307180
001B80
000F00
000600
000C00
001800
007000
01C000
070000
3C0000
000000
ENDCHAR

STARTCHAR A2D4
ENCODING 41684
SWIDTH 960 0
DWIDTH 24 0
BBX 24 24 0 -4
BITMAP
000000
7FF800
7FF800
0030C0
0030C0
0060C0
00C0CC
01BED8
033EF0
0606E0
060CC0
0C0CF0
0C18D8
1818CC
1830C6
3060C0
30C0C6
600FC6
600786
600006
30000E
1FFFFC
07FFF8
000000
ENDCHAR

STARTCHAR A2D5
ENCODING 41685
SWIDTH 960 0
DWIDTH 24 0
BBX 24 24 0 -4
BITMAP
000000
006000
306000
186000
0C6000
046000
00601C
0060F0
606780
307C00
186000
006000
006000
066000
066000
0C6000
0C6000
186000
186006
306006
706006
607FFE
003FFC
000000
ENDCHAR

STARTCHAR A2D6
ENCODING 41686
SWIDTH 960 0
DWIDTH 24 0
BBX 24 24 0 -4
BITMAP
000000
007FE0
307FE0
186060
0C6060
046060
006060
006060
606060
306060
186060
006060
006060
066060
066060
0C6060
0CC060
18C060
18C066
318066
318066
63007E
03003C
000000
ENDCHAR

STARTCHAR A2D7
ENCODING 41687
SWIDTH 960 0
DWIDTH 24 0
BBX 24 24 0 -4
BITMAP
000000
001C00
301800
181800
0C1800
061800
00180C
001818
001870
7F98C0
7F9980
019900
019980
0318C0
0318C0
061860
061870
0C1838
18181C
30180E
603800
03F800
01F000
000000
ENDCHAR

STARTCHAR A2D8
ENCODING 41688
SWIDTH 960 0
DWIDTH 24 0
BBX 24 24 0 -4
BITMAP
000000
000600
300600
180600
0C0600
040600
000600
000600
600600
700E00
180E00
000F00
000F00
001980
061980
0C18C0
0C30C0
183060
186070
30C038
31801C
63000E
660006
000000
ENDCHAR

STARTCHAR A2D9
ENCODING 41689
SWIDTH 960 0
DWIDTH 24 0
BBX 24 24 0 -4
BITMAP
000000
000000
38FFFE
0CFFFE
060C00
000C00
000C00
601800
381800
0C1FFC
003FFC
00300C
00300C
03000C
03000C
06000C
060018
0C0018
0C0018
180018
300030
6003F0
0003E0
000000
ENDCHAR

STARTCHAR A2DA
ENCODING 41690
SWIDTH 960 0
DWIDTH 24 0
BBX 24 24 0 -4
BITMAP
000000
000300
7FE300
7FE300
060300
060300
060300
060300
060300
060300
3FC300
3FC300
060300
060300
060300
060300
060300
06E300
07C306
7E0306
780306
0003FE
0001FC
000000
ENDCHAR

STARTCHAR A2DB
ENCODING 41691
SWIDTH 960 0
DWIDTH 24 0
BBX 24 24 0 -4
BITMAP
000000
000600
000700
000300
07FFFE
07FFFE
060000
660000
360000
1E0000
060000
060000
060000
060000
1E0000
360000
660000
0C0000
0C0000
0C0000
180000
180000
300000
000000
ENDCHAR

STARTCHAR A2DC
ENCODING 41692
SWIDTH 960 0
DWIDTH 24 0
BBX 24 24 0 -4
BITMAP
000000
000000
000000
000000
000000
000000
000000
1FF0C0
1FF0C0
003984
0C3D8C
066718
02C1B0
0180E0
070038
1C000E
700000
000000
000000
000000
000000
000000
000000
000000
ENDCHAR

STARTCHAR A2DD
ENCODING 41693
SWIDTH 960 0
DWIDTH 24 0
BBX 24 24 0 -4
BITMAP
000000
7FFDFE
7FFDFE
180D86
181986
18198C
0C198C
0C3198
0C3198
0631B0
062198
036198
03618C
03C18C
01C186
018186
03C186
066186
0C7186
1831BC
3019BC
600D80
000580
000000
ENDCHAR

STARTCHAR A2DE
ENCODING 41694
SWIDTH 960 0
DWIDTH 24 0
BBX 24 24 0 -4
BITMAP
000000
7FFDFE
7FFDFE
018186
018186
01818C
01818C
018198
018198
0181B0
018198
018198
01818C
01818C
018186
018186
018186
018186
018186
0181BC
0181BC
1F8180
0F0180
000000
ENDCHAR

STARTCHAR A2DF
ENCODING 41695
SWIDTH 960 0
DWIDTH 24 0
BBX 24 24 0 -4
BITMAP
000000
1FE1FE
1FE1FE
186186
186186
18618C
18618C
186198
186198
1861B0
186198
186198
18618C
18618C
186186
186186
186186
306186
306186
3061BC
607D9C
603D80
400180
000000
ENDCHAR

STARTCHAR A2E0
ENCODING 41696
SWIDTH 960 0
DWIDTH 24 0
BBX 24 24 0 -4
BITMAP
000000
7FBFFE
7FBFFE
6180C0
6180C0
6300C0
6300C0
6600C0
6600C0
6C00C0
6600C0
6600C0
6300C0
6300C0
6180C0
6180C0
6180C0
6180C0
6180C0
6F00C0
6F00C0
600FC0
600F80
000000
ENDCHAR

STARTCHAR A2E1
ENCODING 41697
SWIDTH 960 0
DWIDTH 24 0
BBX 24 24 0 -4
BITMAP
000000
7FFFFE
7FFFFE
001800
001800
001800
7FFFFE
7FFFFE
601806
601806
661866
661866
661866
661866
661866
67FFE6
67FFE6
660066
600006
600006
600006
60007E
60007C
000000
ENDCHAR

STARTCHAR A2E2
ENCODING 41698
SWIDTH 960 0
DWIDTH 24 0
BBX 24 24 0 -4
BITMAP
000000
00C600
00C600
00C600
00C600
00C600
00C600
3FC7FC
3FC7FC
00C600
00C600
00C600
00C600
00C600
00C600
00C606
0FC606
7EC7FE
70C3FC
000000
000000
7FFFFE
7FFFFE
000000
ENDCHAR

STARTCHAR A2E3
ENCODING 41699
SWIDTH 960 0
DWIDTH 24 0
BBX 24 24 0 -4
BITMAP
000000
000FF0
1FFF80
1FF800
001800
001800
001800
1FFFF0
1FFFF0
001800
001800
001800
7FFFFE
7FFFFE
003000
003000
0060C0
006060
00C030
018018
030FFC
0FFFFE
3FF006
000000
ENDCHAR

STARTCHAR A2E4
ENCODING 41700
SWIDTH 960 0
DWIDTH 24 0
BBX 24 24 0 -4
BITMAP
000000
030300
030300
060300
060300
0CC300
0CE300
186300
183300
7FFB00
7F1B00
000300
000300
3FF300
3FF300
303300
303300
303300
303306
303306
3FF306
3FF3FE
3031FC
000000
ENDCHAR

STARTCHAR A2E5
ENCODING 41701
SWIDTH 960 0
DWIDTH 24 0
BBX 24 24 0 -4
BITMAP
000000
018000
018000
03FF00
07FF00
0C0600
180C00
67FFF0
07FFF0
001830
001830
7FFFFE
7FFFFE
001830
001830
0FFFF0
0FFFF0
001830
001800
001800
001800
00F800
00F000
000000
ENDCHAR

STARTCHAR A2E6
ENCODING 41702
SWIDTH 960 0
DWIDTH 24 0
BBX 24 24 0 -4
BITMAP
000000
7FFFFE
7FFFFE
000000
000000
0FFFF0
0FFFF0
0C0030
0C0030
0C0030
0C0030
0FFFF0
0FFFF0
0C0030
0C0030
0C0030
0C0030
0FFFF0
0FFFF0
0C0030
000000
7FFFFE
7FFFFE
000000
ENDCHAR

STARTCHAR A2E7
ENCODING 41703
SWIDTH 960 0
DWIDTH 24 0
BBX 24 24 0 -4
BITMAP
000000
030300
030300
030300
063FF8
063FF8
0E0300
0C0300
1C0300
1C7FFC
3C7FFC
3C0300
6C0300
4C0300
0CFFFE
0CFFFE
0C0300
0C0300
0C0300
0C0300
0C0300
0C0300
0C0300
000000
ENDCHAR

STARTCHAR A2E8
ENCODING 41704
SWIDTH 960 0
DWIDTH 24 0
BBX 24 24 0 -4
BITMAP
000000
030180
030180
030180
0601A0
0609B0
0E1998
0C198C
1C3186
1C3186
3C6180
3C6180
6CC180
0C018C
0C019C
0C0038
0C0070
0C00C0
0C0180
0C0700
0C1C00
0C7000
0DC000
000000
ENDCHAR

STARTCHAR A2E9
ENCODING 41705
SWIDTH 960 0
DWIDTH 24 0
BBX 24 24 0 -4
BITMAP
000000
030000
030600
030600
060300
060300
0E7FFE
0C7FFE
1C6186
1C61C6
3C61C6
3C63C6
6C6366
0C6666
0C6636
0C6C36
0C6806
0C6006
0C6006
0C6006
0C6006
0C607E
0C603C
000000
ENDCHAR

STARTCHAR A2EA
ENCODING 41706
SWIDTH 960 0
DWIDTH 24 0
BBX 24 24 0 -4
BITMAP
000000
030360
030F60
033C60
067860
061860
0C1860
0C1860
1C1860
1C1860
3DFFFE
3DFFFE
6C1860
0C1860
0C1860
0C1860
0C3060
0C3060
0C3060
0C6060
0C6060
0CC060
0CC060
000000
ENDCHAR

STARTCHAR A2EB
ENCODING 41707
SWIDTH 960 0
DWIDTH 24 0
BBX 24 24 0 -4
BITMAP
000000
030078
0303E0
037F80
067F00
060300
0C0300
0C0300
1C0300
1C0300
3CFFFE
3CFFFE
6C0300
0C0380
0C0780
0C06C0
0C0CC0
0C0C60
0C1830
0C3030
0C6018
0CC00C
0D8006
000000
ENDCHAR

STARTCHAR A2EC
ENCODING 41708
SWIDTH 960 0
DWIDTH 24 0
BBX 24 24 0 -4
BITMAP
000000
033000
033000
033000
063FFE
067FFE
0E6666
0CC666
1CCC66
1D8C66
3C18C6
3C18C6
6C3186
0C3186
0C6306
0CC306
0D8606
0C0606
0C0C0E
0C180C
0C301C
0C63F8
0C01F0
000000
ENDCHAR

STARTCHAR A2ED
ENCODING 41709
SWIDTH 960 0
DWIDTH 24 0
BBX 24 24 0 -4
BITMAP
000000
030000
037FFC
037FFC
06000C
060018
0E0E30
0C03E0
1C00C0
1C0060
3CFFFE
3CFFFE
6C0186
0C018C
0C018C
0C0198
0C0180
0C0180
0C0180
0C0180
0C0180
0C0F80
0C0F00
000000
ENDCHAR

STARTCHAR A2EE
ENCODING 41710
SWIDTH 960 0
DWIDTH 24 0
BBX 24 24 0 -4
BITMAP
000000
030000
030000
03FFFC
06FFFC
060300
0E0300
0C0300
1C0300
1C0300
3C0300
3C0300
6C7FF8
0C7FF8
0C0300
0C0300
0C0300
0C0300
0C0300
0C0300
0C0300
0DFFFE
0DFFFE
000000
ENDCHAR

STARTCHAR A2EF
ENCODING 41711
SWIDTH 960 0
DWIDTH 24 0
BBX 24 24 0 -4
BITMAP
000000
060000
067FFE
067FFE
066000
0C6000
0C6000
1C6000
1C7FFC
3C7FFC
3C640C
6C660C
4C660C
0C6318
0C6318
0C61B0
0C61F0
0C60E0
0CC0E0
0CC1B0
0CC318
0D8E0C
0D9C06
000000
ENDCHAR

STARTCHAR A2F0
ENCODING 41712
SWIDTH 960 0
DWIDTH 24 0
BBX 24 24 0 -4
BITMAP
000000
031800
031800
061800
06FFFE
06FFFE
0C1800
0C1800
1C1FF8
1C1FF8
3C3018
6C3630
0C3630
0C3660
0C6360
0C63C0
0C61C0
0CC1C0
0CC360
0D8630
0D8C18
0D180C
0C6006
000000
ENDCHAR

STARTCHAR A2F1
ENCODING 41713
SWIDTH 960 0
DWIDTH 24 0
BBX 24 24 0 -4
BITMAP
000000
033000
033000
033FF8
067FF8
066000
0EC000
0CFFF0
1DBFF0
1C0000
3C0000
3DFFE0
6DFFE0
0C0060
0C0060
0C0060
0C0060
0C0060
0C0060
0C0066
0C0036
0C003E
0C001C
000000
ENDCHAR

STARTCHAR A2F2
ENCODING 41714
SWIDTH 960 0
DWIDTH 24 0
BBX 24 24 0 -4
BITMAP
000000
031800
031800
031800
061FFE
063FFE
0C3006
0C6006
1C6006
1CC006
3DBFE6
3C3FE6
6C0006
0C0006
0C0006
0C0006
0C3FE6
0C3FE6
0C0006
0C000C
0C000C
0C01F8
0C00F0
000000
ENDCHAR

STARTCHAR A2F3
ENCODING 41715
SWIDTH 960 0
DWIDTH 24 0
BBX 24 24 0 -4
BITMAP
000000
030C00
030C00
030C00
06FFE0
06FFE0
060C60
0C0C60
0C1860
1C1860
1C3060
3C3066
6C6366
4CC37E
0D833C
0C0300
0FFFFE
0FFFFE
0C0300
0C0300
0C0300
0C0300
0C0300
000000
ENDCHAR

STARTCHAR A2F4
ENCODING 41716
SWIDTH 960 0
DWIDTH 24 0
BBX 24 24 0 -4
BITMAP
000000
018000
019FE0
019FE0
031860
031860
063060
063060
0E6060
0E607E
1EC03C
360000
667FF8
467FF8
061818
061830
060C60
0606C0
0603C0
060380
060EE0
063838
06E00E
000000
ENDCHAR

STARTCHAR A2F5
ENCODING 41717
SWIDTH 960 0
DWIDTH 24 0
BBX 24 24 0 -4
BITMAP
000000
001800
003C00
007600
00E300
01C180
0300C0
060070
0C0018
31FFCC
61FFC6
000000
000000
1FFFF8
1FFFF8
006000
006000
00C0C0
00C060
018030
018030
1FFFF8
1FF018
000000
ENDCHAR

STARTCHAR A2F6
ENCODING 41718
SWIDTH 960 0
DWIDTH 24 0
BBX 24 24 0 -4
BITMAP
000000
003800
007C00
00E600
01C300
0381C0
070060
0C0030
38001C
63FFCE
03FFC0
030000
030000
030000
030000
03FF80
03FF80
030000
030000
030000
030000
03FFE0
03FFE0
000000
ENDCHAR

STARTCHAR A2F7
ENCODING 41719
SWIDTH 960 0
DWIDTH 24 0
BBX 24 24 0 -4
BITMAP
000000
001800
001800
003000
003800
007C00
006600
00C300
018180
0300E0
060070
0C0018
3300CE
6300C0
0300C0
0701C0
0781E0
0D8360
0CC330
186630
187618
303C0C
601806
000000
ENDCHAR

STARTCHAR A2F8
ENCODING 41720
SWIDTH 960 0
DWIDTH 24 0
BBX 24 24 0 -4
BITMAP
000000
018600
018300
030180
0300C0
066060
0C6030
18C018
30C18C
6180C6
4307E0
07FE70
07FE30
018600
018600
018600
018600
030600
030606
060606
0C0606
1807FE
3003FC
000000
ENDCHAR

STARTCHAR A2F9
ENCODING 41721
SWIDTH 960 0
DWIDTH 24 0
BBX 24 24 0 -4
BITMAP
000000
006000
006000
003000
003000
001800
003C00
006600
00C300
018180
0700E0
0C0030
38001C
6FFFFE
0FFFF8
0C0018
0C0018
0FFFF8
0FFFF8
0C0018
0C0018
0FFFF8
0FFFF8
000000
ENDCHAR

STARTCHAR A2FA
ENCODING 41722
SWIDTH 960 0
DWIDTH 24 0
BBX 24 24 0 -4
BITMAP
000000
3FFFFE
3FFFFE
001800
001800
001800
0FFFF8
0FFFF8
001800
001800
001800
7FFFFE
7FFFFE
000000
006600
006600
00C300
018180
0380C0
070060
0E0030
18001C
70000E
000000
ENDCHAR

STARTCHAR A2FB
ENCODING 41723
SWIDTH 960 0
DWIDTH 24 0
BBX 24 24 0 -4
BITMAP
000000
3FFFFC
3FFFFC
001800
001800
0FFFF0
0FFFF0
0C1830
0C1830
0C1830
7FFFFE
7FFFFE
0C1830
0C1830
0C1830
7FFFFE
7FFFFE
0C0030
0C0030
0C0030
0C0030
0C01F0
0C01E0
000000
ENDCHAR

STARTCHAR A2FC
ENCODING 41724
SWIDTH 960 0
DWIDTH 24 0
BBX 24 24 0 -4
BITMAP
000000
007FFC
707FFC
186060
0C6060
046060
006060
006060
006060
007FFE
067FFE
060360
0C0360
0C0660
180660
180C60
300C60
301860
603060
606060
00C060
0187E0
0303C0
000000
ENDCHAR

STARTCHAR A2FD
ENCODING 41725
SWIDTH 960 0
DWIDTH 24 0
BBX 24 24 0 -4
BITMAP
000000
000600
700600
380600
1C0600
04FFF8
00FFF8
000618
000618
000618
000618
0C0618
0DFFFE
19FFFE
180600
180F00
300D80
3018C0
603060
606030
40C018
01800C
030006
000000
ENDCHAR

STARTCHAR A2FE
ENCODING 41726
SWIDTH 960 0
DWIDTH 24 0
BBX 24 24 0 -4
BITMAP
000000
000300
600300
300300
180300
0C0300
01FFFE
01FFFE
018306
018306
018306
018306
0D8306
0DFFFE
19FFFE
198300
180300
300300
300300
600300
600300
000300
000300
000000
ENDCHAR

STARTCHAR A3A1
ENCODING 41889
SWIDTH 960 0
DWIDTH 24 0
BBX 24 24 0 -4
BITMAP
000000
0000F8
6007E0
30FF00
18FE00
0C0600
000600
000600
000600
000600
01FFFE
0DFFFE
0C0600
0C0700
180F00
180D80
301980
3030C0
603060
606030
00C018
01800C
030006
000000
ENDCHAR

STARTCHAR A3A2
ENCODING 41890
SWIDTH 960 0
DWIDTH 24 0
BBX 24 24 0 -4
BITMAP
000000
1FFFF0
1FFFF0
180030
180030
19FF30
19FF30
180030
180030
180030
1BFFB0
1BFFB0
186030
186030
186030
18C630
18C630
18C336
1987B6
31BFB6
33F8DE
67C0CC
400000
000000
ENDCHAR

STARTCHAR A3A3
ENCODING 41891
SWIDTH 960 0
DWIDTH 24 0
BBX 24 24 0 -4
BITMAP
000000
006000
003000
003800
001800
6FFFF6
6FFFF6
618186
60C386
60C306
60C706
606606
606E06
603C06
603C06
606E06
60C786
6381C6
660066
600006
7FFFFE
7FFFFE
600006
000000
ENDCHAR

STARTCHAR A3A4
ENCODING 41892
SWIDTH 960 0
DWIDTH 24 0
BBX 24 24 0 -4
BITMAP
000000
018006
018006
0180C6
0180C6
1FFCC6
1FFCC6
018CC6
018CC6
018CC6
018CC6
018CC6
3FFFC6
3FFFC6
0180C6
0180C6
032006
033006
061806
061C06
0C0E06
18073E
30031C
000000
ENDCHAR

STARTCHAR A3A5
ENCODING 41893
SWIDTH 960 0
DWIDTH 24 0
BBX 24 24 0 -4
BITMAP
000000
060006
060006
060066
0FFE66
0FFE66
180066
180066
33F866
63F866
000066
000066
0FF866
0FF866
003066
006066
01C006
038006
060606
0C0606
180606
1FFE3E
0FFC3C
000000
ENDCHAR

STARTCHAR A3A6
ENCODING 41894
SWIDTH 960 0
DWIDTH 24 0
BBX 24 24 0 -4
BITMAP
000000
1FFFF0
1FFFF0
001830
001830
003030
003030
006030
00E030
01C060
0783E0
1E03C0
000000
7FF7FE
7FF7FE
0630C6
0630C6
0C3186
0C3186
183306
18770E
33EE3C
61CC38
000000
ENDCHAR

STARTCHAR A3A7
ENCODING 41895
SWIDTH 960 0
DWIDTH 24 0
BBX 24 24 0 -4
BITMAP
000000
030006
038006
018066
01C066
00C066
7FFF66
7FFF66
0C1866
0C1866
0C1866
0C3066
063066
063066
076066
036066
03E066
01C006
01C006
037006
063806
1C1C3E
70073C
000000
ENDCHAR

STARTCHAR A3A8
ENCODING 41896
SWIDTH 960 0
DWIDTH 24 0
BBX 24 24 0 -4
BITMAP
000000
0000C0
0000C0
3FF0C0
3FF0C0
000FFE
000FFE
0000C6
7FFCC6
7FFCC6
0600C6
0600C6
0600C6
060186
0C4186
0C6186
0C6306
183306
183306
1FF60C
3F360C
7014F8
0008F0
000000
ENDCHAR

STARTCHAR A3A9
ENCODING 41897
SWIDTH 960 0
DWIDTH 24 0
BBX 24 24 0 -4
BITMAP
000000
001800
001800
001800
3FFFF8
3FFFF8
001800
0018C0
0318C0
0318C0
0318C0
0300C0
7FE7FE
7FE7FE
0300C0
0300C0
0300C0
0600C0
0600C0
0C00C0
0C00C0
1800C0
1800C0
000000
ENDCHAR

STARTCHAR A3AA
ENCODING 41898
SWIDTH 960 0
DWIDTH 24 0
BBX 24 24 0 -4
BITMAP
000000
001800
001800
001800
001800
3FFFF8
3FFFF8
001800
001860
061860
061860
061860
060060
7FFFFE
7FFFFE
060060
060060
060060
060060
060060
07FFE0
07FFE0
060060
000000
ENDCHAR

STARTCHAR A3AB
ENCODING 41899
SWIDTH 960 0
DWIDTH 24 0
BBX 24 24 0 -4
BITMAP
000000
0C0600
0C0600
0C0600
0C0600
0C0600
0C7FF0
7FFFF0
7F8630
0C0630
0C0638
0C663C
0C6636
0CCC36
0CCC30
0D8C30
0C1830
0C1830
0C1830
0C3030
0C3060
0C63E0
0CC1C0
000000
ENDCHAR

STARTCHAR A3AC
ENCODING 41900
SWIDTH 960 0
DWIDTH 24 0
BBX 24 24 0 -4
BITMAP
000000
7FFFFE
7FFFFE
000C00
003C00
006F80
01CDE0
030C78
0E0C1C
380C06
700C00
000C00
000000
000C00
000C00
7FFFFE
7FFFFE
000C00
000C00
000C00
000C00
000C00
000C00
000000
ENDCHAR

STARTCHAR A3AD
ENCODING 41901
SWIDTH 960 0
DWIDTH 24 0
BBX 24 24 0 -4
BITMAP
000000
601FFE
601FFE
601800
601800
601800
601800
601800
601800
601800
601800
7FFFFE
7FFFFE
001806
001806
001806
001806
001806
001806
001806
001806
7FF806
7FF806
000000
ENDCHAR

STARTCHAR A3AE
ENCODING 41902
SWIDTH 960 0
DWIDTH 24 0
BBX 24 24 0 -4
BITMAP
000000
1FFFFE
1FFFFE
180000
180000
1BFFFC
1BFFFC
180C00
181800
183000
186060
19C0C0
18E180
187300
181E00
180C00
3018C0
303060
306030
60C0F8
63FFD8
41F01C
00000C
000000
ENDCHAR

STARTCHAR A3AF
ENCODING 41903
SWIDTH 960 0
DWIDTH 24 0
BBX 24 24 0 -4
BITMAP
000000
0FFFFE
0FFFFE
0C0000
0C0600
0C0600
0C0600
0C0600
0C0600
0C0600
0C0600
0DFFFC
0DFFFC
0C0600
180660
180630
180630
180618
300618
300600
300600
67FFFE
67FFFE
000000
ENDCHAR

STARTCHAR A3B0
ENCODING 41904
SWIDTH 960 0
DWIDTH 24 0
BBX 24 24 0 -4
BITMAP
000000
0FFFFE
0FFFFE
0C0000
0C0600
0C0E00
0C1B00
0C3180
0C60C0
0CC070
0D8018
0D7FEC
0C7FE0
0C0000
180000
19FFF8
19FFF8
180030
300060
3000C0
300180
600300
400600
000000
ENDCHAR

STARTCHAR A3B1
ENCODING 41905
SWIDTH 960 0
DWIDTH 24 0
BBX 24 24 0 -4
BITMAP
000000
000000
7FFFF8
7FFFF8
003018
003018
003018
1FFFD8
1FFFD8
003018
003018
00300C
3FFFEC
3FFFEC
006006
00C006
00C000
018300
030180
0300C0
060FE0
1FFF30
1FF030
000000
ENDCHAR

STARTCHAR A3B2
ENCODING 41906
SWIDTH 960 0
DWIDTH 24 0
BBX 24 24 0 -4
BITMAP
000000
001800
001800
3FFFFC
3FFFFC
30180C
30180C
30180C
3FFFFC
3FFFFC
30180C
001800
0FFFE0
0FFFE0
030060
0180C0
00C180
006700
003E00
003E00
00E780
0781F0
3C003C
000000
ENDCHAR

STARTCHAR A3B3
ENCODING 41907
SWIDTH 960 0
DWIDTH 24 0
BBX 24 24 0 -4
BITMAP
000000
01FFC0
01FFC0
006180
003180
001B00
000E00
003B00
00E1C0
0780F0
1C003C
000000
1FF3FC
1FF3FC
0C6198
0C6198
06C1B0
02C0F0
038060
0380F0
06C1B8
1C731C
30180E
000000
ENDCHAR

STARTCHAR A3B4
ENCODING 41908
SWIDTH 960 0
DWIDTH 24 0
BBX 24 24 0 -4
BITMAP
000000
003006
003006
3F980C
3F8C0C
318618
318330
3181E0
3180C0
3180C0
3180C0
3180C0
3180C0
3180C0
3180C0
3F80C0
3F80C0
3180C0
3000C0
0000C0
0000C0
0000C0
0000C0
000000
ENDCHAR

STARTCHAR A3B5
ENCODING 41909
SWIDTH 960 0
DWIDTH 24 0
BBX 24 24 0 -4
BITMAP
000000
000000
000000
003FFC
7F3FFC
7F0300
630300
630300
630300
630300
630300
630300
630300
630300
7F0300
7F0300
630300
600300
000300
000300
000300
00FFFE
00FFFE
000000
ENDCHAR

STARTCHAR A3B6
ENCODING 41910
SWIDTH 960 0
DWIDTH 24 0
BBX 24 24 0 -4
BITMAP
000000
001FFE
001FFE
7F9806
7F9806
619806
619806
619806
619FFE
619FFE
619806
619800
619800
619800
619800
7F9800
7F9800
619800
603000
003000
006000
006000
00C000
000000
ENDCHAR

STARTCHAR A3B7
ENCODING 41911
SWIDTH 960 0
DWIDTH 24 0
BBX 24 24 0 -4
BITMAP
000000
000078
0003E0
7F8F80
7FBD80
618180
618180
618180
618180
618180
61FFFE
61FFFE
618180
618180
618180
7F8180
7F8180
618180
600180
000180
000180
000180
000180
000000
ENDCHAR

STARTCHAR A3B8
ENCODING 41912
SWIDTH 960 0
DWIDTH 24 0
BBX 24 24 0 -4
BITMAP
000000
0FFFF0
0FFFF0
0C0030
0C0030
0C0030
0C0030
0C0030
0FFFF0
0FFFF0
001800
001800
7FFFFE
7FFFFE
001800
003800
006C00
00C600
018300
030180
0600E0
0C0070
38001C
000000
ENDCHAR

STARTCHAR A3B9
ENCODING 41913
SWIDTH 960 0
DWIDTH 24 0
BBX 24 24 0 -4
BITMAP
000000
000000
003FFC
7F3FFC
7F300C
63300C
63300C
63300C
63300C
63300C
63300C
63300C
63300C
63300C
7F300C
7F300C
63300C
60300C
003FFC
003FFC
00300C
00300C
000000
000000
ENDCHAR

STARTCHAR A3BA
ENCODING 41914
SWIDTH 960 0
DWIDTH 24 0
BBX 24 24 0 -4
BITMAP
000000
000000
007FFE
7F7FFE
7F0300
630300
630300
630300
630380
6303E0
630378
63031C
63030E
630306
630300
7F0300
7F0300
630300
600300
000300
000300
000300
000300
000000
ENDCHAR

STARTCHAR A3BB
ENCODING 41915
SWIDTH 960 0
DWIDTH 24 0
BBX 24 24 0 -4
BITMAP
000000
0FFFF8
0FFFF8
0C0018
0C0018
0C0018
0C0018
0FFFF8
0FFFF8
0C0018
000000
000000
000000
3FFFFE
3FFFFE
300006
300006
300006
300006
300006
3FFFFE
3FFFFE
300006
000000
ENDCHAR

STARTCHAR A3BC
ENCODING 41916
SWIDTH 960 0
DWIDTH 24 0
BBX 24 24 0 -4
BITMAP
000000
000000
0001C0
7F0180
7F0300
630300
630600
630600
630CC0
630CC0
631980
633180
633300
636300
634600
7F4660
7F0C30
630C18
601818
60180C
0033FE
01FF86
01E000
000000
ENDCHAR

STARTCHAR A3BD
ENCODING 41917
SWIDTH 960 0
DWIDTH 24 0
BBX 24 24 0 -4
BITMAP
000000
7FFFFE
7FFFFE
600006
618186
618186
618186
618186
618186
6FFFF6
6FFFF6
618186
618186
618186
630186
630186
660186
660186
6C0186
600006
7FFFFE
7FFFFE
600006
000000
ENDCHAR

STARTCHAR A3BE
ENCODING 41918
SWIDTH 960 0
DWIDTH 24 0
BBX 24 24 0 -4
BITMAP
000000
7FFFFE
7FFFFE
600606
600606
600606
600606
6FFFE6
6FFFE6
600606
600606
630606
618606
61C606
60C606
600606
600606
607E06
603C06
600006
7FFFFE
7FFFFE
600006
000000
ENDCHAR

STARTCHAR A3BF
ENCODING 41919
SWIDTH 960 0
DWIDTH 24 0
BBX 24 24 0 -4
BITMAP
000000
000600
0C0600
0C0600
0C0600
0C0600
0C0600
0C0600
0C0600
7FC600
7FC7FC
0C07FC
0C0600
0C0600
0C0600
0C0600
0C0600
0D8600
0F0600
1C0600
780600
61FFFE
01FFFE
000000
ENDCHAR

STARTCHAR A3C0
ENCODING 41920
SWIDTH 960 0
DWIDTH 24 0
BBX 24 24 0 -4
BITMAP
000000
001800
001800
003000
7FFFFE
7FFFFE
00C0C0
018070
06181C
1C1806
701800
001800
001800
0FFFF8
0FFFF8
001800
001800
001800
001800
001800
001800
3FFFFE
3FFFFE
000000
ENDCHAR

STARTCHAR A3C1
ENCODING 41921
SWIDTH 960 0
DWIDTH 24 0
BBX 24 24 0 -4
BITMAP
000000
006000
03C0C0
7F00C0
0300C0
0300C0
0300C0
0300C0
0300C0
030FFC
7FEFFC
7FE0C0
0300C0
0300C0
0300C0
0600C0
0600C0
0600C0
0C00C0
0C00C0
1800C0
187FFE
307FFE
000000
ENDCHAR

STARTCHAR A3C2
ENCODING 41922
SWIDTH 960 0
DWIDTH 24 0
BBX 24 24 0 -4
BITMAP
000000
06003C
0601F0
061FC0
061F80
060180
060180
060180
7FC180
7FC180
063FFE
063FFE
060180
060180
060180
060180
06C180
078180
1E0180
780180
600180
000180
000180
000000
ENDCHAR

STARTCHAR A3C3
ENCODING 41923
SWIDTH 960 0
DWIDTH 24 0
BBX 24 24 0 -4
BITMAP
000000
018180
018180
018180
018180
618180
798180
1F8180
078180
01FFFE
01FFFE
018180
018180
078180
1D8180
798180
618180
018180
018180
018180
018180
01BFFC
01BFFC
000000
ENDCHAR

STARTCHAR A3C4
ENCODING 41924
SWIDTH 960 0
DWIDTH 24 0
BBX 24 24 0 -4
BITMAP
000000
006000
00FFE0
01FFE0
0380C0
0EC180
387300
003E00
007700
03CDE0
1E0C78
700C0E
07FFE0
07FFE0
060C00
060C00
060C00
07FFFC
07FFFC
000C00
000C00
000C00
000C00
000000
ENDCHAR

STARTCHAR A3C5
ENCODING 41925
SWIDTH 960 0
DWIDTH 24 0
BBX 24 24 0 -4
BITMAP
000000
0007F0
0FFF80
0FF800
001800
003000
7FFFFE
7FFFFE
006300
00C180
0180C0
0380E0
070078
1D80DC
7180C6
0180C0
0180C0
0300C0
0300C0
0600C0
0600C0
0C00C0
1800C0
000000
ENDCHAR

STARTCHAR A3C6
ENCODING 41926
SWIDTH 960 0
DWIDTH 24 0
BBX 24 24 0 -4
BITMAP
000000
001800
001800
003000
7FFFFE
7FFFFE
006300
00C300
01C180
0380C0
070060
0E0038
19819C
318186
018180
7FFFFE
7FFFFE
018180
018180
030180
030180
060180
0C0180
000000
ENDCHAR

STARTCHAR A3C7
ENCODING 41927
SWIDTH 960 0
DWIDTH 24 0
BBX 24 24 0 -4
BITMAP
000000
0600C0
0600C0
0600C0
0600C0
0600C0
0600C0
0600C0
7FF7FE
7FF7FE
0600C0
0600C0
0700E0
0700E0
0F01E0
0D01B0
0D8330
198318
18C618
18C618
306C0C
303C0C
601806
000000
ENDCHAR

STARTCHAR A3C8
ENCODING 41928
SWIDTH 960 0
DWIDTH 24 0
BBX 24 24 0 -4
BITMAP
000000
001800
001800
001800
7FFFFE
7FFFFE
001C00
003600
006300
00C180
0180C0
070070
1C181C
701806
001800
7FFFFE
7FFFFE
003C00
006700
00C180
0380E0
1E0038
70000E
000000
ENDCHAR

STARTCHAR A3C9
ENCODING 41929
SWIDTH 960 0
DWIDTH 24 0
BBX 24 24 0 -4
BITMAP
000000
0C0000
0C3FF0
0C3FF0
0CC630
7FE630
7FE630
0CC630
0CC630
18C630
18DFB0
199FB0
318630
318630
398630
6F0630
070C30
078C36
0DCC36
0CD81E
18181E
70300C
006000
000000
ENDCHAR

STARTCHAR A3CA
ENCODING 41930
SWIDTH 960 0
DWIDTH 24 0
BBX 24 24 0 -4
BITMAP
000000
0C0300
0C0360
0C0370
0CC318
7FE308
7FE300
0CDFFE
18DFFE
18C300
18C300
18C300
318180
318180
318180
7980C0
0F00C0
030060
07C066
0E6036
0C2036
18001E
70000C
000000
ENDCHAR

STARTCHAR A3CB
ENCODING 41931
SWIDTH 960 0
DWIDTH 24 0
BBX 24 24 0 -4
BITMAP
000000
060000
060600
060600
06C600
7FE7F8
7FE7F8
0CCC18
0CCC18
18CC18
18D818
18D830
31B030
31A030
318060
7D8060
0F00E0
0300B0
07C1B0
0CE318
1C0618
380C0C
603806
000000
ENDCHAR

STARTCHAR A3CC
ENCODING 41932
SWIDTH 960 0
DWIDTH 24 0
BBX 24 24 0 -4
BITMAP
000000
006000
0060C0
7FFFFE
7FFFFE
00C0C0
0181C0
01E380
033F00
000F00
0079C0
01C070
0F301C
0060C0
7FFFFE
7FFFFE
00C0C0
018180
03F380
063F00
0039C0
01E070
1F001C
000000
ENDCHAR

STARTCHAR A3CD
ENCODING 41933
SWIDTH 960 0
DWIDTH 24 0
BBX 24 24 0 -4
BITMAP
000000
018300
018300
018300
018318
718318
39FFFE
0FFFFE
038618
018618
018618
018C18
018C18
078C30
1D9830
719C30
41BF70
01B3E0
0180E0
0181B0
018718
019C0C
01B006
000000
ENDCHAR

STARTCHAR A3CE
ENCODING 41934
SWIDTH 960 0
DWIDTH 24 0
BBX 24 24 0 -4
BITMAP
000000
030C18
061830
061860
0C30C0
1870E0
0C1870
060C38
030C18
000000
07FFE0
07FFE0
000380
000E00
000C00
000C00
7FFFFE
7FFFFE
000C00
000C00
000C00
007C00
007800
000000
ENDCHAR

STARTCHAR A3CF
ENCODING 41935
SWIDTH 960 0
DWIDTH 24 0
BBX 24 24 0 -4
BITMAP
000000
001800
001C00
000C00
7FFFFE
7FFFFE
600006
60C006
00FF80
01FF80
038180
070300
0E0300
1C0600
300600
000C00
001E00
003300
00E180
01C0C0
070070
1C001C
700006
000000
ENDCHAR

STARTCHAR A3D0
ENCODING 41936
SWIDTH 960 0
DWIDTH 24 0
BBX 24 24 0 -4
BITMAP
000000
001800
000C00
7FFFFE
7FFFFE
600006
600006
0FFFF0
0FFFF0
000030
000030
0FFFF0
0FFFF0
0C0000
180000
1FFFF8
1FFFF8
380018
000018
000038
000070
0007E0
0007C0
000000
ENDCHAR

STARTCHAR A3D1
ENCODING 41937
SWIDTH 960 0
DWIDTH 24 0
BBX 24 24 0 -4
BITMAP
000000
301818
181830
0C1830
061860
061860
0318C0
0318C0
001800
7FFFFE
7FFFFE
000006
000006
000006
000006
0FFFFE
0FFFFE
000006
000006
000006
000006
7FFFFE
7FFFFE
000000
ENDCHAR

STARTCHAR A3D2
ENCODING 41938
SWIDTH 960 0
DWIDTH 24 0
BBX 24 24 0 -4
BITMAP
000000
000C00
000C00
000C00
030C60
030C30
060C18
0E0C18
1C0C0C
380C06
700C06
007C00
003800
000000
000C00
000C00
1FFFF8
1FFFF8
000C00
000C00
000C00
7FFFFE
7FFFFE
000000
ENDCHAR

STARTCHAR A3D3
ENCODING 41939
SWIDTH 960 0
DWIDTH 24 0
BBX 24 24 0 -4
BITMAP
000000
0FFFFE
0FFFFE
0C0006
0C0006
0FFFFE
0FFFFE
0C0006
0C0000
0CFFF0
0CFFF0
0C0060
0C01C0
0C0F00
0C0600
0C0300
0DFFFE
19FFFE
180300
180300
300300
301F00
601E00
000000
ENDCHAR

STARTCHAR A3D4
ENCODING 41940
SWIDTH 960 0
DWIDTH 24 0
BBX 24 24 0 -4
BITMAP
000000
07FFFC
07FFFC
06000C
06000C
06000C
06000C
07FFFC
07FFFC
06030C
060300
060300
066180
063180
0C1980
0C0CC0
0C00C0
0CE060
187060
181C30
300E18
30020C
600006
000000
ENDCHAR

STARTCHAR A3D5
ENCODING 41941
SWIDTH 960 0
DWIDTH 24 0
BBX 24 24 0 -4
BITMAP
000000
060000
060000
060000
066FFC
666FFC
6660C0
6660C0
6660C0
6660C0
6660C0
6660C0
6660C0
6660C0
6660C0
6660C0
6660C0
7FE0C0
7FE0C0
6060C0
6000C0
001FFE
001FFE
000000
ENDCHAR

STARTCHAR A3D6
ENCODING 41942
SWIDTH 960 0
DWIDTH 24 0
BBX 24 24 0 -4
BITMAP
000000
060000
061FFC
061FFC
06600C
666018
666030
666360
6661C0
6660C0
6660C0
667FFE
667FFE
6660C0
6660C0
6660C0
6660C0
6660C0
7FE0C0
7FE0C0
6060C0
6007C0
000780
000000
ENDCHAR

STARTCHAR A3D7
ENCODING 41943
SWIDTH 960 0
DWIDTH 24 0
BBX 24 24 0 -4
BITMAP
000000
001800
001800
003000
7FFFFE
7FFFFE
006300
00C180
00C180
0180C0
030060
060030
0C0C1C
300C0E
6C0C0C
0C0C0C
0C0C0C
0C0C0C
0C0C0C
0C0C0C
0FFFFC
0FFFFC
0C000C
000000
ENDCHAR

STARTCHAR A3D8
ENCODING 41944
SWIDTH 960 0
DWIDTH 24 0
BBX 24 24 0 -4
BITMAP
000000
3FFFF8
3FFFF8
000018
000018
000018
3FFFF8
3FFFF8
300018
300000
30000C
30000C
30001C
3FFFF8
1FFFF0
001800
30180C
30180C
30180C
30180C
3FFFFC
3FFFFC
30000C
000000
ENDCHAR

STARTCHAR A3D9
ENCODING 41945
SWIDTH 960 0
DWIDTH 24 0
BBX 24 24 0 -4
BITMAP
000000
060000
0607FC
0607FC
06060C
06660C
66660C
66660C
66660C
66660C
6667FC
6667FC
66660C
666600
666600
666600
666600
666600
7FE606
7FE606
60660E
0007FC
0003F8
000000
ENDCHAR

STARTCHAR A3DA
ENCODING 41946
SWIDTH 960 0
DWIDTH 24 0
BBX 24 24 0 -4
BITMAP
000000
001800
001800
001800
30180C
30180C
30180C
30180C
30180C
3FFFFC
3FFFFC
30000C
001800
001800
001800
30180C
30180C
30180C
30180C
30180C
3FFFFC
3FFFFC
30000C
000000
ENDCHAR

STARTCHAR A3DB
ENCODING 41947
SWIDTH 960 0
DWIDTH 24 0
BBX 24 24 0 -4
BITMAP
000000
180C00
180C00
181C00
181E00
183700
186380
18C0E0
180000
1FFFFC
0FFFFC
0318C0
0318C0
0318C0
0318C0
0318C0
0618C0
0618C0
0C18C6
0C18C6
1818C6
3018FE
60187C
000000
ENDCHAR

STARTCHAR A3DC
ENCODING 41948
SWIDTH 960 0
DWIDTH 24 0
BBX 24 24 0 -4
BITMAP
000000
0DFFFE
0DFFFE
0C0300
0C0300
0C0300
0CFFFC
0CFFFC
4CC30C
6CC30C
3CC30C
1CC30C
0CC30C
0CC30C
0CC30C
0CC30C
0CC30C
18C30C
18C33C
18C318
300300
300300
600300
000000
ENDCHAR

STARTCHAR A3DD
ENCODING 41949
SWIDTH 960 0
DWIDTH 24 0
BBX 24 24 0 -4
BITMAP
000000
060300
060300
060600
060600
7FEFE0
7FEFE0
666C60
666C60
666C60
666C60
666C60
666C60
666C60
666C60
666C60
666C60
67EC60
66CC66
061866
061866
06307E
06603C
000000
ENDCHAR

STARTCHAR A3DE
ENCODING 41950
SWIDTH 960 0
DWIDTH 24 0
BBX 24 24 0 -4
BITMAP
000000
001800
000C00
000400
1FFFFE
1FFFFE
180000
180C00
180FE0
181FE0
183860
187060
18E0C0
1980C0
180180
180380
1806C0
300C60
301860
303030
606018
61C00C
430006
000000
ENDCHAR

STARTCHAR A3DF
ENCODING 41951
SWIDTH 960 0
DWIDTH 24 0
BBX 24 24 0 -4
BITMAP
000000
001800
000C00
000600
1FFFFE
1FFFFE
180000
180000
19FFF8
19FFF8
180600
180600
180600
1BFFFE
1BFFFE
180600
180600
300600
300600
300600
600600
603E00
401C00
000000
ENDCHAR

STARTCHAR A3E0
ENCODING 41952
SWIDTH 960 0
DWIDTH 24 0
BBX 24 24 0 -4
BITMAP
000000
001800
001C00
000C00
1FFFFE
1FFFFE
180000
1803F8
183FC0
1BFC00
180C00
180C00
180C00
180C00
1BFFFE
1BFFFE
180C00
300C00
300C06
300C06
300C06
600FFE
6007FC
000000
ENDCHAR

STARTCHAR A3E1
ENCODING 41953
SWIDTH 960 0
DWIDTH 24 0
BBX 24 24 0 -4
BITMAP
000000
7F0666
7F0C66
030CCC
0618CC
0C1998
0C3318
183330
306660
3F6630
7F6330
633318
033198
33198C
3318CC
1B0CC6
0E0C66
0E0666
0F0600
1B8000
19E000
307FFE
601FFE
000000
ENDCHAR

STARTCHAR A3E2
ENCODING 41954
SWIDTH 960 0
DWIDTH 24 0
BBX 24 24 0 -4
BITMAP
000000
000300
000360
000370
000318
000300
7FFFFE
7FFFFE
000300
000300
1FF300
1FF180
000180
000180
000180
1FF0C0
1FF0C0
0000C0
000066
000066
3FFC36
3FFC1E
00000C
000000
ENDCHAR

STARTCHAR A3E3
ENCODING 41955
SWIDTH 960 0
DWIDTH 24 0
BBX 24 24 0 -4
BITMAP
000000
7FC600
7FC600
00C600
00CC00
00CFFE
3FCFFE
3FD806
301806
601006
600006
7FC606
7FC306
60C386
00C1C6
00C0C6
00C006
00C006
00C006
018006
03800C
3F01FC
3E00F8
000000
ENDCHAR

STARTCHAR A3E4
ENCODING 41956
SWIDTH 960 0
DWIDTH 24 0
BBX 24 24 0 -4
BITMAP
000000
7F8000
7F9FFC
019FFC
018000
018000
018000
3FBFFE
3FBFFE
300600
300600
600600
7F8FFC
7F8FFC
619C0C
01980C
01800C
018018
030018
030018
070030
3E03F0
3C03E0
000000
ENDCHAR

STARTCHAR A3E5
ENCODING 41957
SWIDTH 960 0
DWIDTH 24 0
BBX 24 24 0 -4
BITMAP
000000
000060
0E00E0
0381C0
00C300
007600
001C00
007700
01E1C0
0780F0
1E003C
30000C
000000
019800
019C18
198E0C
19860E
198006
318000
318030
618030
01FFF0
00FFE0
000000
ENDCHAR

STARTCHAR A3E6
ENCODING 41958
SWIDTH 960 0
DWIDTH 24 0
BBX 24 24 0 -4
BITMAP
000000
060000
063FFC
063FFC
060180
078180
378180
36C180
36C180
66C180
667FFE
467FFE
060180
060180
060180
060180
060180
060180
060180
060180
060180
060180
060180
000000
ENDCHAR

STARTCHAR A3E7
ENCODING 41959
SWIDTH 960 0
DWIDTH 24 0
BBX 24 24 0 -4
BITMAP
000000
060180
060180
061980
061980
061998
3799F8
36DBF8
36DF98
66FD98
667998
061998
061998
061998
061998
061998
0619F8
0619F0
061806
061806
06180E
061FFC
060FF8
000000
ENDCHAR

STARTCHAR A3E8
ENCODING 41960
SWIDTH 960 0
DWIDTH 24 0
BBX 24 24 0 -4
BITMAP
000000
0C0000
0C7FFC
0C7FFC
0C030C
0D830C
3D830C
3DB30C
6CDB0C
6CCF0C
6C070C
0C070C
0C038C
0C07CC
0C06CC
0C066C
0C0C6C
0C0C0C
0C180C
0C1818
0C3038
0C61F0
0CC1E0
000000
ENDCHAR

STARTCHAR A3E9
ENCODING 41961
SWIDTH 960 0
DWIDTH 24 0
BBX 24 24 0 -4
BITMAP
000000
060000
061FE0
061FE0
061860
079860
379860
36D860
26D860
665860
661F60
061BE0
061860
061860
061860
061860
063060
063060
063066
066066
066066
06C07E
06803C
000000
ENDCHAR

STARTCHAR A3EA
ENCODING 41962
SWIDTH 960 0
DWIDTH 24 0
BBX 24 24 0 -4
BITMAP
000000
003300
003380
003180
003000
1FFFF0
1FFFF0
003000
003000
1FFFE0
1FFFE0
003000
003000
7FFFFC
7FFFFC
001800
0018E0
000DC0
000780
001F06
00F1C6
07C0FE
7E003C
000000
ENDCHAR

STARTCHAR A3EB
ENCODING 41963
SWIDTH 960 0
DWIDTH 24 0
BBX 24 24 0 -4
BITMAP
000000
000180
7FF1B0
7FF198
18318C
183180
183180
186FFC
0C6FFC
0C6180
0CC180
06C18C
06C18C
078198
0301B0
0380F0
0380E0
06C0E0
0CC1E6
0C6336
18363E
30141C
600000
000000
ENDCHAR

STARTCHAR A3EC
ENCODING 41964
SWIDTH 960 0
DWIDTH 24 0
BBX 24 24 0 -4
BITMAP
000000
060000
061FFC
061FFC
060000
7FC000
7FC000
063FFE
063FFE
060600
060600
06C600
07CFFC
0F0FFC
7E0C0C
76180C
06100C
06000C
060018
060018
060030
3E03F0
3C01E0
000000
ENDCHAR

STARTCHAR A3ED
ENCODING 41965
SWIDTH 960 0
DWIDTH 24 0
BBX 24 24 0 -4
BITMAP
000000
060000
063FF0
063FF0
060630
7FC630
7FC630
060630
060630
060630
061FB0
079FB0
0F0630
1E0630
760630
660C30
060C30
060C32
061836
061836
06301E
3E301E
3C600C
000000
ENDCHAR

STARTCHAR A3EE
ENCODING 41966
SWIDTH 960 0
DWIDTH 24 0
BBX 24 24 0 -4
BITMAP
000000
0C0600
0C0600
0C0600
0C0600
7F8600
7FFFE0
0C7FE0
0C0660
0C0660
0C0660
0DE660
0F3E60
1E1C60
7C0E60
6C0F60
0C1B60
0C1860
0C3066
0C3066
0C6066
3C207E
38C03C
000000
ENDCHAR

STARTCHAR A3EF
ENCODING 41967
SWIDTH 960 0
DWIDTH 24 0
BBX 24 24 0 -4
BITMAP
000000
060180
060180
060180
060180
7FC180
7FC180
060180
063FFC
063FFC
060180
06C180
07C180
0F0180
7E0180
760180
060180
060180
060180
060180
060180
3E7FFE
1C7FFE
000000
ENDCHAR

STARTCHAR A3F0
ENCODING 41968
SWIDTH 960 0
DWIDTH 24 0
BBX 24 24 0 -4
BITMAP
000000
001800
001C00
000C00
7FFFFE
7FFFFE
038070
01C0C0
00E180
003300
001E00
00FF80
07C3E0
7D80F8
0180CE
0180C0
0180C0
0300C0
0300C0
0600C0
0600C0
0C00C0
1800C0
000000
ENDCHAR

STARTCHAR A3F1
ENCODING 41969
SWIDTH 960 0
DWIDTH 24 0
BBX 24 24 0 -4
BITMAP
000000
0C0180
0E0180
070180
030180
7FF180
7FF180
0C0180
0C0180
0C0180
0FE1C0
0FE1C0
1863C0
186360
186360
186360
186660
306630
306630
306C18
30CC1C
67D80E
63B006
000000
ENDCHAR

STARTCHAR A3F2
ENCODING 41970
SWIDTH 960 0
DWIDTH 24 0
BBX 24 24 0 -4
BITMAP
000000
003FFE
7FBFFE
7F8186
618186
618186
618186
618186
618186
7F8186
7F8186
618186
618306
618306
618306
618606
7F8606
7F8C06
618C06
001806
001806
00307E
00607C
000000
ENDCHAR

STARTCHAR A3F3
ENCODING 41971
SWIDTH 960 0
DWIDTH 24 0
BBX 24 24 0 -4
BITMAP
000000
000180
7F8180
7F8180
618180
618180
618180
618180
61FFFE
7FFFFE
7F8180
618180
618180
618180
618180
618180
7F8180
7F8180
618180
000180
000180
000180
000180
000000
ENDCHAR

STARTCHAR A3F4
ENCODING 41972
SWIDTH 960 0
DWIDTH 24 0
BBX 24 24 0 -4
BITMAP
000000
001800
001800
001800
3FFFFC
3FFFFC
30180C
30180C
3FFFFC
3FFFFC
30180C
30180C
3FFFFC
3FFFFC
30180C
003C00
006E00
00E700
01C380
0381C0
0E00E0
1C0038
70000E
000000
ENDCHAR

STARTCHAR A3F5
ENCODING 41973
SWIDTH 960 0
DWIDTH 24 0
BBX 24 24 0 -4
BITMAP
000000
060000
060000
061FFE
061FFE
060186
7FE186
7FE186
060186
060186
0F8186
0FC186
1EE186
1E6186
360186
360306
660306
060606
060606
060C06
061806
06303E
06601C
000000
ENDCHAR

STARTCHAR A3F6
ENCODING 41974
SWIDTH 960 0
DWIDTH 24 0
BBX 24 24 0 -4
BITMAP
000000
060000
063FF8
063FF8
060C18
060C18
7FEC30
7FEC30
060C30
060C60
078C7E
0ECCFE
0EECC6
1E6C06
1E1806
361806
361806
661806
063006
063006
06300E
0660FC
064078
000000
ENDCHAR

STARTCHAR A3F7
ENCODING 41975
SWIDTH 960 0
DWIDTH 24 0
BBX 24 24 0 -4
BITMAP
000000
060300
060300
060300
060300
060300
7FE300
7FE300
060300
060380
0F8380
0EC780
1EE780
1E46C0
360CC0
360CE0
661860
061830
063038
063018
06600C
06C006
068000
000000
ENDCHAR

STARTCHAR A3F8
ENCODING 41976
SWIDTH 960 0
DWIDTH 24 0
BBX 24 24 0 -4
BITMAP
000000
1FFFC0
1FFFC0
00C0C0
00C180
0183FC
0183FC
03000C
06000C
0C000C
1818F8
301870
001800
7FFFFE
7FFFFE
00DB00
00D980
0198C0
031870
06183C
1C180E
301800
001800
000000
ENDCHAR

STARTCHAR A3F9
ENCODING 41977
SWIDTH 960 0
DWIDTH 24 0
BBX 24 24 0 -4
BITMAP
000000
000300
000300
7FF300
7FF300
1833FE
1837FE
183606
0C66CC
0C6CCC
066CD8
06C8D8
03C0C0
0381C0
0181C0
0381E0
03C360
06C330
0CC630
186618
306C1C
60280C
000006
000000
ENDCHAR

STARTCHAR A3FA
ENCODING 41978
SWIDTH 960 0
DWIDTH 24 0
BBX 24 24 0 -4
BITMAP
000000
018000
030000
03FFFC
07FFFC
0E0000
0C0000
1BFFF0
33FFF0
030C30
030C30
030C30
7FFFFE
7FFFFE
061830
061830
061830
0FFFFC
0FFFFC
0C0060
0000E0
0007C0
000780
000000
ENDCHAR

STARTCHAR A3FB
ENCODING 41979
SWIDTH 960 0
DWIDTH 24 0
BBX 24 24 0 -4
BITMAP
000000
01E000
1F8000
7E3FE0
063FE0
060C60
060C60
060C60
060CC0
3FCCFC
3FCCFC
060CCC
060C0C
06180C
7FD80C
7FD818
063018
0630F8
0660F2
060006
060006
07FFFE
03FFFC
000000
ENDCHAR

STARTCHAR A3FC
ENCODING 41980
SWIDTH 960 0
DWIDTH 24 0
BBX 24 24 0 -4
BITMAP
000000
000078
7003E0
381F80
1C7D80
0C0180
000180
000180
600180
700180
18FFFE
00FFFE
000180
000180
060180
060180
0C0180
0C0180
180180
180180
300180
700180
600180
000000
ENDCHAR

STARTCHAR A3FD
ENCODING 41981
SWIDTH 960 0
DWIDTH 24 0
BBX 24 24 0 -4
BITMAP
000000
300000
1801F0
0C1FC0
04FE00
000600
000600
600600
300600
180600
000600
00FFFC
06FFFC
060600
0C0600
0C0600
180600
180606
300606
300606
60060E
6007FC
0003F8
000000
ENDCHAR

STARTCHAR A3FE
ENCODING 41982
SWIDTH 960 0
DWIDTH 24 0
BBX 24 24 0 -4
BITMAP
000000
000C00
300C00
180C00
0C1800
001FF8
001FF8
003818
003018
607030
307830
18D860
019860
000CC0
0004C0
060780
0C0380
0C0780
180CC0
181860
307030
31C01C
630006
000000
ENDCHAR

STARTCHAR A4A1
ENCODING 42145
SWIDTH 960 0
DWIDTH 24 0
BBX 24 24 0 -4
BITMAP
000000
001800
001820
001870
3F98E0
3F9B80
019B00
031980
0718C0
0E1860
18F838
70701C
000000
001800
001800
003C00
006600
00C300
018180
0300C0
060070
1C0038
70000E
000000
ENDCHAR

STARTCHAR A4A2
ENCODING 42146
SWIDTH 960 0
DWIDTH 24 0
BBX 24 24 0 -4
BITMAP
000000
030000
030300
030300
060300
060300
0C0300
0DFB0C
1DFB1C
1C1B18
3C1B30
6C3360
4C3340
0C6360
0C6360
0CC330
0CC330
0D8318
0D030C
0C0306
0C0300
0C3F00
0C3E00
000000
ENDCHAR

STARTCHAR A4A3
ENCODING 42147
SWIDTH 960 0
DWIDTH 24 0
BBX 24 24 0 -4
BITMAP
000000
000000
387FFC
0C7FFC
060600
000600
000600
61FFFE
39FFFE
0C0C00
000C00
001800
001FFC
031FFC
03000C
06000C
06000C
0C000C
0C0018
180018
380030
3003F0
0003E0
000000
ENDCHAR

STARTCHAR A4A4
ENCODING 42148
SWIDTH 960 0
DWIDTH 24 0
BBX 24 24 0 -4
BITMAP
000000
30FFFC
38FFFC
0E000C
06000C
00000C
60000C
70000C
18000C
0C7FFC
007FFC
00600C
006000
026000
066000
066000
0C6000
0C6000
186006
186006
306006
607FFE
003FFC
000000
ENDCHAR

STARTCHAR A4A5
ENCODING 42149
SWIDTH 960 0
DWIDTH 24 0
BBX 24 24 0 -4
BITMAP
000000
000000
3C7FFE
0E7FFE
070018
000030
0000E0
600780
380300
1C0380
000180
00FFFE
00FFFE
060180
060180
0C0180
0C0180
180180
180180
300180
300180
601F80
000F00
000000
ENDCHAR

STARTCHAR A4A6
ENCODING 42150
SWIDTH 960 0
DWIDTH 24 0
BBX 24 24 0 -4
BITMAP
000000
060000
061FFE
061FFE
060060
066060
666060
666060
36C060
36C060
160060
160060
060060
060060
0E0060
0F0060
0D8060
0D8060
18C060
180060
300060
300FE0
600FC0
000000
ENDCHAR

STARTCHAR A4A7
ENCODING 42151
SWIDTH 960 0
DWIDTH 24 0
BBX 24 24 0 -4
BITMAP
000000
00C006
00C006
00C006
60C006
60C666
30C666
30C666
18CC66
18CC66
09C066
01E066
01E066
03B066
033066
033066
061866
061806
0C0C06
0C0C06
180406
30007E
00003C
000000
ENDCHAR

STARTCHAR A4A8
ENCODING 42152
SWIDTH 960 0
DWIDTH 24 0
BBX 24 24 0 -4
BITMAP
000000
001800
181800
181818
0C1830
0C3C60
063CC0
006600
00C380
0181C0
070070
1C001C
706306
006300
006300
00C300
00C300
018300
038306
070306
0E0306
1C03FE
7001FC
000000
ENDCHAR

STARTCHAR A4A9
ENCODING 42153
SWIDTH 960 0
DWIDTH 24 0
BBX 24 24 0 -4
BITMAP
000000
0FFFFE
0FFFFE
0C0000
0C0600
0C0600
0C0600
0CC60C
0CC618
0C6630
0C6660
0C0700
0C0F00
0C0D80
0C1980
1818C0
1830C0
187060
386030
30C018
31800C
630006
060000
000000
ENDCHAR

STARTCHAR A4AA
ENCODING 42154
SWIDTH 960 0
DWIDTH 24 0
BBX 24 24 0 -4
BITMAP
000000
0FFFF0
0FFFF0
0C1830
0C1830
0C1830
0D98B0
0D98B0
0CD9B0
0CD9B0
0CD930
0C1830
0C3C30
0C3630
0C7630
0C6336
18C336
18C1B6
198196
3300DE
3600CE
34000C
600000
000000
ENDCHAR

STARTCHAR A4AB
ENCODING 42155
SWIDTH 960 0
DWIDTH 24 0
BBX 24 24 0 -4
BITMAP
000000
030000
030000
060000
07FFFE
0FFFFE
1C1806
381806
601806
001826
0C1866
0618C6
031986
033C0C
003C3C
003638
006600
006300
00C380
0181C0
0300E0
060070
1C001C
000000
ENDCHAR

STARTCHAR A4AC
ENCODING 42156
SWIDTH 960 0
DWIDTH 24 0
BBX 24 24 0 -4
BITMAP
000000
000600
30C600
198600
0F0600
0E0600
1E7FE0
767FE0
630660
030660
030660
030660
07B660
0D9E60
198E60
718F60
418DE0
019860
031866
033066
073066
3E607E
3CC03C
000000
ENDCHAR

STARTCHAR A4AD
ENCODING 42157
SWIDTH 960 0
DWIDTH 24 0
BBX 24 24 0 -4
BITMAP
000000
00C060
19C060
1D8060
0F0060
063FFE
0F3FFE
1B00E0
3300E0
0181E0
0181E0
038360
078360
0D8660
198660
618C60
019860
01B060
018060
018060
030060
1F0FE0
1E0FC0
000000
ENDCHAR

STARTCHAR A4AE
ENCODING 42158
SWIDTH 960 0
DWIDTH 24 0
BBX 24 24 0 -4
BITMAP
000000
000000
000000
7FE300
7FE300
030300
030300
030300
030300
030300
030600
3FC600
3FC600
030600
030600
030C30
030C18
030C18
03CC0C
078FFC
1E3F06
383806
000006
000000
ENDCHAR

STARTCHAR A4AF
ENCODING 42159
SWIDTH 960 0
DWIDTH 24 0
BBX 24 24 0 -4
BITMAP
000000
000180
000180
7FF180
7FF180
030180
030FFE
030FFE
030186
030186
030186
3FE186
3FE186
030186
030306
030306
030306
030606
03E606
078606
1E0C0C
780C7C
001878
000000
ENDCHAR

STARTCHAR A4B0
ENCODING 42160
SWIDTH 960 0
DWIDTH 24 0
BBX 24 24 0 -4
BITMAP
000000
000300
000300
7FE300
7FE300
060300
060300
060380
0603C0
060360
060330
3FC318
3FC30C
060306
060300
060300
060300
060300
066300
07C300
1F0300
780300
000300
000000
ENDCHAR

STARTCHAR A4B1
ENCODING 42161
SWIDTH 960 0
DWIDTH 24 0
BBX 24 24 0 -4
BITMAP
000000
000006
000006
7FF8C6
7FF8C6
0300C6
0300C6
0300C6
0300C6
0300C6
0300C6
3FF0C6
3FF0C6
0300C6
0300C6
0300C6
0300C6
030006
037806
03E006
1F8006
7C007E
00003C
000000
ENDCHAR

STARTCHAR A4B2
ENCODING 42162
SWIDTH 960 0
DWIDTH 24 0
BBX 24 24 0 -4
BITMAP
000000
7FFFFE
7FFFFE
001800
001B00
003380
0031C0
0060E0
006060
00C000
01FFFC
03FFFC
07C00C
0EC00C
1CC00C
38C00C
60C00C
00C00C
00C00C
00C00C
00FFFC
00FFFC
00C00C
000000
ENDCHAR

STARTCHAR A4B3
ENCODING 42163
SWIDTH 960 0
DWIDTH 24 0
BBX 24 24 0 -4
BITMAP
000000
0C0300
0E0300
070300
030300
7FE300
7FE300
006300
00C300
018300
038300
070300
0F0300
1BC300
336300
633300
030300
030306
030306
030306
03030E
0301FC
0300F8
000000
ENDCHAR

STARTCHAR A4B4
ENCODING 42164
SWIDTH 960 0
DWIDTH 24 0
BBX 24 24 0 -4
BITMAP
000000
003000
003800
001800
1FFFFC
1FFFFC
030060
018060
0180C0
00C0C0
00C180
7FFFFE
7FFFFE
001800
001800
001800
001800
001800
001800
001800
001800
001800
001800
000000
ENDCHAR

STARTCHAR A4B5
ENCODING 42165
SWIDTH 960 0
DWIDTH 24 0
BBX 24 24 0 -4
BITMAP
000000
3F8600
3F8600
318600
318600
318600
318600
3DFFF0
37FFF0
318630
318630
318630
318630
378630
3D8630
318C30
318C30
318C30
319830
619836
619836
6FB03E
47601C
000000
ENDCHAR

STARTCHAR A4B6
ENCODING 42166
SWIDTH 960 0
DWIDTH 24 0
BBX 24 24 0 -4
BITMAP
000000
7FFFFE
7FFFFE
600006
600006
600006
67FFE6
07FFE0
060060
060060
07F060
07FFE0
060FE0
060060
060060
060FE0
07FFE0
07F060
060060
060060
0C0060
0C03E0
1803C0
000000
ENDCHAR

STARTCHAR A4B7
ENCODING 42167
SWIDTH 960 0
DWIDTH 24 0
BBX 24 24 0 -4
BITMAP
000000
0300C0
0300C0
3FE7FE
3FE7FE
0300C0
000000
000000
3FFFFC
3FFFFC
018000
018000
030000
03FFF0
07FFF0
060030
000030
000030
000030
000030
000060
0007E0
0007C0
000000
ENDCHAR

STARTCHAR A4B8
ENCODING 42168
SWIDTH 960 0
DWIDTH 24 0
BBX 24 24 0 -4
BITMAP
000000
0300C0
0300C0
7FEFFE
7FEFFE
0300C0
0330C0
003000
3FFFFC
3FFFFC
00300C
00300C
00300C
00600C
00600C
00600C
00C00C
00C00C
01800C
01800C
030018
0601F8
0C01F0
000000
ENDCHAR

STARTCHAR A4B9
ENCODING 42169
SWIDTH 960 0
DWIDTH 24 0
BBX 24 24 0 -4
BITMAP
000000
030060
030060
7FF7FE
7FF7FE
030060
030060
000000
000600
018600
018300
018300
018180
030180
0300C0
0300C0
060060
060060
0C0030
0C0018
180018
18000C
300006
000000
ENDCHAR

STARTCHAR A4BA
ENCODING 42170
SWIDTH 960 0
DWIDTH 24 0
BBX 24 24 0 -4
BITMAP
000000
001800
001800
001800
07FFE0
07FFE0
001800
001800
001800
7FFFFE
7FFFFE
000040
0600C0
060180
030300
018600
00DC00
007800
006000
01C000
0FFC00
003FE0
0001FE
000000
ENDCHAR

STARTCHAR A4BB
ENCODING 42171
SWIDTH 960 0
DWIDTH 24 0
BBX 24 24 0 -4
BITMAP
000000
300300
180300
0C0300
0C0300
007FFC
007FFC
00030C
7F030C
7F030C
06030C
06060C
0C060C
0C0C0C
180C0C
38180C
18180C
0C3018
0C31F8
0C61F0
1E0000
33FFFE
61FFFE
000000
ENDCHAR

STARTCHAR A4BC
ENCODING 42172
SWIDTH 960 0
DWIDTH 24 0
BBX 24 24 0 -4
BITMAP
000000
0301FE
0301FE
030186
031986
63198C
63198C
631998
631998
6319B0
631998
631998
63198C
63198C
631986
631986
631986
7FF986
7FF98C
6019BC
6001B8
000180
000180
000000
ENDCHAR

STARTCHAR A4BD
ENCODING 42173
SWIDTH 960 0
DWIDTH 24 0
BBX 24 24 0 -4
BITMAP
000000
0301FE
0301FE
030186
031986
03198C
7FFD8C
7FFD98
061998
0619B0
0619B8
0C1998
0C318C
0C318C
183186
186186
3E6186
33C186
00E18E
01B1BC
0319B8
0E0D80
380180
000000
ENDCHAR

STARTCHAR A4BE
ENCODING 42174
SWIDTH 960 0
DWIDTH 24 0
BBX 24 24 0 -4
BITMAP
000000
7F8000
7FBFFC
61BFFC
618018
630030
6300E0
660380
660180
6C0180
667FFE
637FFE
630180
618180
618180
618180
618180
618180
618180
7F0180
6F0180
600F80
600F00
000000
ENDCHAR

STARTCHAR A4BF
ENCODING 42175
SWIDTH 960 0
DWIDTH 24 0
BBX 24 24 0 -4
BITMAP
000000
7FFFFE
7FFFFE
00C180
00C180
3FFFFC
3FFFFC
31818C
31C1CC
33C3CC
33636C
36363C
3C1C1C
380C0C
30000C
30000C
30000C
30000C
30000C
30000C
30000C
3000FC
3000F8
000000
ENDCHAR

STARTCHAR A4C0
ENCODING 42176
SWIDTH 960 0
DWIDTH 24 0
BBX 24 24 0 -4
BITMAP
000000
00F300
07C300
3F0300
030300
030300
030300
030300
7FFB00
7FFB00
030300
030300
030300
030300
1FF300
1FF300
183300
183306
183306
183306
1FF306
1FF3FE
1831FC
000000
ENDCHAR

STARTCHAR A4C1
ENCODING 42177
SWIDTH 960 0
DWIDTH 24 0
BBX 24 24 0 -4
BITMAP
000000
000000
003FF8
003FF8
003018
3FB018
3FB018
003018
003018
003FF8
0036D8
0006C0
0006C0
7FC6C0
7FC6C0
000CC0
000CC0
0018C6
0018C6
0030C6
0060FE
00C07C
018000
000000
ENDCHAR

STARTCHAR A4C2
ENCODING 42178
SWIDTH 960 0
DWIDTH 24 0
BBX 24 24 0 -4
BITMAP
000000
3FFFFC
3FFFFC
00C300
00C300
00C300
00C300
00C300
1FFFF8
1FFFF8
18C318
18C318
18C318
18C318
1FFFF8
1FFFF8
18C318
00C300
00C300
00C300
00C300
7FFFFE
7FFFFE
000000
ENDCHAR

STARTCHAR A4C3
ENCODING 42179
SWIDTH 960 0
DWIDTH 24 0
BBX 24 24 0 -4
BITMAP
000000
038300
030300
030300
060300
067FF8
0E7FF8
0C0300
1C0300
1C0300
3DFFFE
3DFFFE
6C0300
0C0700
0C0F80
0C1BC0
0C3360
0C6338
0CC31C
0D830E
0C0300
0C0300
0C0300
000000
ENDCHAR

STARTCHAR A4C4
ENCODING 42180
SWIDTH 960 0
DWIDTH 24 0
BBX 24 24 0 -4
BITMAP
000000
030180
030180
030180
060180
067FFE
0C7FFE
0C6186
1C618C
1C618C
3C6180
3C6FFC
6C6FFC
4C6618
0C6618
0C6330
0C6330
0CC1E0
0CC0E0
0CC1C0
0D8370
0D8E18
0D180C
000000
ENDCHAR

STARTCHAR A4C5
ENCODING 42181
SWIDTH 960 0
DWIDTH 24 0
BBX 24 24 0 -4
BITMAP
000000
030000
033FF8
033FF8
063018
063018
0E3018
0C3018
1C3FF8
1C3FF8
3C3018
3C3018
6C3018
0C3018
0C3018
0C3FF8
0C3FF8
0C3018
0C3018
0C3018
0C3018
0DFFFE
0DFFFE
000000
ENDCHAR

STARTCHAR A4C6
ENCODING 42182
SWIDTH 960 0
DWIDTH 24 0
BBX 24 24 0 -4
BITMAP
000000
030300
030300
030300
060300
060300
0CFFFE
0CFFFE
1CC306
1CC306
3CC306
3CC306
6CC306
0CFFFE
0CFFFE
0CC306
0CC306
0CC306
0CC306
0CC306
0CFFFE
0CFFFE
0CC006
000000
ENDCHAR

STARTCHAR A4C7
ENCODING 42183
SWIDTH 960 0
DWIDTH 24 0
BBX 24 24 0 -4
BITMAP
000000
030060
033060
033060
066060
066060
0CC060
0CCDFE
1D8DFE
1D9866
3CD866
3C7066
6C3066
0C6066
0C60C6
0CCCC6
0CCCC6
0DBD86
0DE586
0F8186
0C030C
0C067C
0C0C78
000000
ENDCHAR

STARTCHAR A4C8
ENCODING 42184
SWIDTH 960 0
DWIDTH 24 0
BBX 24 24 0 -4
BITMAP
000000
030000
037FFE
037FFE
066006
066006
0E6006
0C7FFE
1C7FFE
1C6006
3C6000
3C6600
6C6600
0C663C
0C67F0
0C6FC0
0C6600
0CC600
0CC606
0D8606
0D860E
0D07FC
0C03FC
000000
ENDCHAR

STARTCHAR A4C9
ENCODING 42185
SWIDTH 960 0
DWIDTH 24 0
BBX 24 24 0 -4
BITMAP
000000
030000
030000
037FFE
067FFE
060180
0C0180
0C0180
1C0180
1C3180
3C3180
3C31FC
6C31FC
0C3180
0C3180
0C3180
0C3180
0C3180
0C3180
0C3180
0C3180
0DFFFE
0DFFFE
000000
ENDCHAR

STARTCHAR A4CA
ENCODING 42186
SWIDTH 960 0
DWIDTH 24 0
BBX 24 24 0 -4
BITMAP
000000
030000
03FFFE
03FFFE
070300
060300
0EFFFC
0CFFFC
1CC30C
1CC30C
3CC78C
3CC78C
6CCCCC
0CCC6C
0CD83C
0CF01C
0CC00C
0CC00C
0CC00C
0CC00C
0CC00C
0CC0FC
0CC078
000000
ENDCHAR

STARTCHAR A4CB
ENCODING 42187
SWIDTH 960 0
DWIDTH 24 0
BBX 24 24 0 -4
BITMAP
000000
031830
031830
031830
061830
061830
0EFFFE
0CFFFE
1C1830
1C1830
3C1830
3C1830
6C1830
0C1FF0
0C1FF0
0C1830
0C1830
0C1830
0C1830
0C1830
0C1FF0
0C1FF0
0C1830
000000
ENDCHAR

STARTCHAR A4CC
ENCODING 42188
SWIDTH 960 0
DWIDTH 24 0
BBX 24 24 0 -4
BITMAP
000000
018000
01BFFE
01BFFE
030306
030306
070606
060606
0E0C06
0E0C0C
1E187C
1E3078
360000
663FFE
063FFE
063006
063006
063006
063006
063006
063FFE
063FFE
063006
000000
ENDCHAR

STARTCHAR A4CD
ENCODING 42189
SWIDTH 960 0
DWIDTH 24 0
BBX 24 24 0 -4
BITMAP
000000
018000
01BFF8
01BFF8
033018
033618
073318
063198
0E3018
0E3018
1EFFFE
1EFFFE
366018
666618
666318
066198
066018
067FFC
067FFC
066030
060030
0601F0
0601E0
000000
ENDCHAR

STARTCHAR A4CE
ENCODING 42190
SWIDTH 960 0
DWIDTH 24 0
BBX 24 24 0 -4
BITMAP
000000
01BFFC
01BFFC
01B00C
03300C
03300C
06300C
06300C
0E3FFC
0E3FFC
1E300C
363000
663000
063FFE
063FFE
063006
063006
063006
063006
063006
063FFE
063FFE
063006
000000
ENDCHAR

STARTCHAR A4CF
ENCODING 42191
SWIDTH 960 0
DWIDTH 24 0
BBX 24 24 0 -4
BITMAP
000000
030000
037FFE
037FFE
066666
066666
066666
0E6666
0E6666
1E6666
166666
366666
666C66
066C66
06787E
06703E
066006
066006
066006
066006
067FFE
067FFE
066006
000000
ENDCHAR

STARTCHAR A4D0
ENCODING 42192
SWIDTH 960 0
DWIDTH 24 0
BBX 24 24 0 -4
BITMAP
000000
018300
018300
018780
0306C0
030C60
071830
063018
0E600C
0EC306
1E0300
1E0300
363300
663360
466330
066318
06C318
06C30C
06830C
060300
060300
061F00
061E00
000000
ENDCHAR

STARTCHAR A4D1
ENCODING 42193
SWIDTH 960 0
DWIDTH 24 0
BBX 24 24 0 -4
BITMAP
000000
0600C0
0300C0
018180
00C300
00C600
07FFE0
07FFE0
060060
060060
060060
060060
07FFE0
07FFE0
06C660
00C600
018600
018600
030606
060606
0C0606
1807FE
3003FC
000000
ENDCHAR

STARTCHAR A4D2
ENCODING 42194
SWIDTH 960 0
DWIDTH 24 0
BBX 24 24 0 -4
BITMAP
000000
0FFFF8
0FFFF8
003018
006018
00C030
0383F0
0E03E0
000000
1FFFF8
1FFFF8
181818
181818
1FFFF8
1FFFF8
181E18
003600
007600
00E600
01C606
030606
0E07FE
3803FC
000000
ENDCHAR

STARTCHAR A4D3
ENCODING 42195
SWIDTH 960 0
DWIDTH 24 0
BBX 24 24 0 -4
BITMAP
000000
18FFF8
18FFF8
18C018
18C018
18FFF8
18FFF8
18C018
18C018
18FFF8
18FFF8
18C018
000000
018180
018180
018180
030180
030180
060186
060186
0C0186
1801FE
3000FC
000000
ENDCHAR

STARTCHAR A4D4
ENCODING 42196
SWIDTH 960 0
DWIDTH 24 0
BBX 24 24 0 -4
BITMAP
000000
0003F8
01FF80
3FF800
3E1800
001800
001800
1FFFF8
1FFFF8
181818
181818
181818
1FFFF8
1FFFF8
186C18
006C00
00CDC0
00CCF0
018C36
038C06
070C06
0E0FFE
3807FC
000000
ENDCHAR

STARTCHAR A4D5
ENCODING 42197
SWIDTH 960 0
DWIDTH 24 0
BBX 24 24 0 -4
BITMAP
000000
7FFFFE
7FFFFE
601806
601806
631986
631986
631986
6198C6
6198C6
6198C6
6399C6
63D9E6
66DB66
66DB36
6C7E36
783C1E
60180E
601806
601806
601806
60183E
60183C
000000
ENDCHAR

STARTCHAR A4D6
ENCODING 42198
SWIDTH 960 0
DWIDTH 24 0
BBX 24 24 0 -4
BITMAP
000000
000000
1FFFF8
1FFFF8
180018
181818
181818
183018
183818
186C18
18C618
198318
1B0198
180018
7FFFFE
7FFFFE
018300
018180
0300C0
060060
0C0038
18000C
300000
000000
ENDCHAR

STARTCHAR A4D7
ENCODING 42199
SWIDTH 960 0
DWIDTH 24 0
BBX 24 24 0 -4
BITMAP
000000
7FFFFE
7FFFFE
600006
600006
600006
63FFC6
03FFC0
0300C0
0300C0
0300C0
03FFC0
03FFC0
0300C0
0300C0
0300C0
03FFC0
03FFC0
0300C0
0300C0
0300C0
7FFFFE
7FFFFE
000000
ENDCHAR

STARTCHAR A4D8
ENCODING 42200
SWIDTH 960 0
DWIDTH 24 0
BBX 24 24 0 -4
BITMAP
000000
00FFFE
30FFFE
180600
1C0600
0C0600
000600
000C00
000C00
000C00
001FFC
061FFC
063C0C
0C3C0C
0C6C0C
18CC0C
198C0C
330C0C
300C0C
600C0C
000FFC
000FFC
000C0C
000000
ENDCHAR

STARTCHAR A4D9
ENCODING 42201
SWIDTH 960 0
DWIDTH 24 0
BBX 24 24 0 -4
BITMAP
000000
007FF8
307FF8
186018
0C6018
046018
006018
006018
006018
007FF8
007FF8
021980
061980
061980
0C1980
0C1980
183180
183180
303186
606186
006186
00C1FE
0180FC
000000
ENDCHAR

STARTCHAR A4DA
ENCODING 42202
SWIDTH 960 0
DWIDTH 24 0
BBX 24 24 0 -4
BITMAP
000000
000300
300300
103360
183330
0C6338
046318
00C30C
000300
007FF8
007FF8
060300
060300
0C0300
0CFFFE
18FFFE
180300
300300
300300
600300
000300
000300
000300
000000
ENDCHAR

STARTCHAR A4DB
ENCODING 42203
SWIDTH 960 0
DWIDTH 24 0
BBX 24 24 0 -4
BITMAP
000000
0FFFF0
0FFFF0
0C0030
0C0030
0FFFF0
0FFFF0
0C0030
0C0030
0CFF30
0CFF30
0CC330
0CC330
0CFF30
0CFF30
0CC330
0CC330
18FF30
18FF32
18C31A
30001E
30000E
600004
000000
ENDCHAR

STARTCHAR A4DC
ENCODING 42204
SWIDTH 960 0
DWIDTH 24 0
BBX 24 24 0 -4
BITMAP
000000
060006
060006
060066
0C0066
0C3066
0C3866
181C66
18FC66
3FEE66
7F0666
000066
000066
3FFE66
3FFE66
300666
300666
300606
300606
300606
3FFE06
3FFE3E
30063C
000000
ENDCHAR

STARTCHAR A4DD
ENCODING 42205
SWIDTH 960 0
DWIDTH 24 0
BBX 24 24 0 -4
BITMAP
000000
030000
030000
030000
0307FE
3FF7FE
3FF0C6
0300C6
0300C6
0300C6
0300C6
7FF8C6
7FF8C6
0300C6
0600C6
0600C6
0C6186
0C6186
183186
181B06
3FFB06
7E1A3E
00063C
000000
ENDCHAR

STARTCHAR A4DE
ENCODING 42206
SWIDTH 960 0
DWIDTH 24 0
BBX 24 24 0 -4
BITMAP
000000
018006
018006
018066
018066
018066
3FFC66
3FFC66
018066
018066
018066
018066
7FFE66
7FFE66
018066
018066
030066
033006
061806
060C06
0C7E06
3FFF3E
3F833C
000000
ENDCHAR

STARTCHAR A4DF
ENCODING 42207
SWIDTH 960 0
DWIDTH 24 0
BBX 24 24 0 -4
BITMAP
000000
7FFE06
7FFE06
030666
030666
030666
060666
060666
0C0E66
18FC66
30F866
000066
7FFE66
7FFE66
600666
600666
600606
600606
600606
7FFE06
7FFE06
60061E
00001C
000000
ENDCHAR

STARTCHAR A4E0
ENCODING 42208
SWIDTH 960 0
DWIDTH 24 0
BBX 24 24 0 -4
BITMAP
000000
000006
3FF806
3FF8C6
3018C6
3018C6
3018C6
3018C6
3FF8C6
3FF8C6
0600C6
0600C6
0600C6
3FF8C6
3FF8C6
0618C6
061806
0C1806
0C1806
181806
18300C
33F07C
61E078
000000
ENDCHAR

STARTCHAR A4E1
ENCODING 42209
SWIDTH 960 0
DWIDTH 24 0
BBX 24 24 0 -4
BITMAP
000000
000006
3F7E06
3F7E66
336666
336666
336666
336666
336666
336666
7FFF66
7FFF66
336666
336666
336666
336666
336666
336606
336606
336606
336606
301E7E
001C7C
000000
ENDCHAR

STARTCHAR A4E2
ENCODING 42210
SWIDTH 960 0
DWIDTH 24 0
BBX 24 24 0 -4
BITMAP
000000
00300C
18300C
0C1818
061830
060C60
000000
7FFFFE
7FFFFE
600006
601806
601806
6FFFF6
0FFFF0
003030
003030
006030
006030
00C030
018030
030060
0607E0
0C07C0
000000
ENDCHAR

STARTCHAR A4E3
ENCODING 42211
SWIDTH 960 0
DWIDTH 24 0
BBX 24 24 0 -4
BITMAP
000000
00C180
00C180
7FFFFE
7FFFFE
00C180
00C180
000000
7FFFFE
7FFFFE
600006
603006
603006
0FFFF0
0FFFF0
006030
006030
00C030
018030
030030
060060
0C07E0
1807C0
000000
ENDCHAR

STARTCHAR A4E4
ENCODING 42212
SWIDTH 960 0
DWIDTH 24 0
BBX 24 24 0 -4
BITMAP
000000
0300C0
0300C0
0300C0
3330C0
3330C0
3330C0
3337FE
3337FE
3330C6
3FF0C6
3FF0C6
3330C6
0300C6
6318C6
6318C6
6318C6
631986
631986
631986
7FFB0C
7FFB7C
601A78
000000
ENDCHAR

STARTCHAR A4E5
ENCODING 42213
SWIDTH 960 0
DWIDTH 24 0
BBX 24 24 0 -4
BITMAP
000000
7FFFFC
7FFFFC
603000
603000
6060C0
60C060
619FF0
67FCD8
6060C8
6060C0
6060C0
6FFFFE
6FFFFE
6060C0
60C0C0
6180C0
6300C0
6600C0
600000
7FFFFE
7FFFFE
600000
000000
ENDCHAR

STARTCHAR A4E6
ENCODING 42214
SWIDTH 960 0
DWIDTH 24 0
BBX 24 24 0 -4
BITMAP
000000
7FFFFC
7FFFFC
60C000
618000
61FFF0
63FFF0
670C00
660C00
600C00
6FFFFC
6FFFFC
601B00
601B00
603180
603180
6060C0
60C0C0
618060
600000
7FFFFE
7FFFFE
600000
000000
ENDCHAR

STARTCHAR A4E7
ENCODING 42215
SWIDTH 960 0
DWIDTH 24 0
BBX 24 24 0 -4
BITMAP
000000
018000
0181FE
0181FE
018186
3FFD86
3FFD86
018186
018186
018186
018186
7FFF86
7FFF86
030186
030186
060186
066186
0C3186
0C39BE
1819BC
7FFD80
7F8D80
000180
000000
ENDCHAR

STARTCHAR A4E8
ENCODING 42216
SWIDTH 960 0
DWIDTH 24 0
BBX 24 24 0 -4
BITMAP
000000
000000
1FFFFE
1FFFFE
180C00
180E00
180600
19FFFC
19FFFC
180000
184030
186030
186030
186060
183060
183060
1830C0
1818C0
1818C0
300180
300180
67FFFE
47FFFE
000000
ENDCHAR

STARTCHAR A4E9
ENCODING 42217
SWIDTH 960 0
DWIDTH 24 0
BBX 24 24 0 -4
BITMAP
000000
1FFFFE
1FFFFE
180600
180600
180600
180600
1BFFFC
1BFFFC
180600
180600
180600
180600
18FFF8
18FFF8
18C018
18C018
18C018
30C018
30C018
30C018
60FFF8
40FFF8
000000
ENDCHAR

STARTCHAR A4EA
ENCODING 42218
SWIDTH 960 0
DWIDTH 24 0
BBX 24 24 0 -4
BITMAP
000000
1FFFFE
1FFFFE
180000
180000
18FFFC
18FFFC
18C30C
18C30C
18C30C
18FFFC
18FFFC
18C30C
18C30C
18C30C
18FFFC
18FFFC
18C30C
180300
300300
300300
600300
400300
000000
ENDCHAR

STARTCHAR A4EB
ENCODING 42219
SWIDTH 960 0
DWIDTH 24 0
BBX 24 24 0 -4
BITMAP
000000
000600
000700
000380
7F8180
7FFFFE
61FFFE
618300
618300
618300
6183FC
6183FC
61830C
61830C
61860C
61860C
7F860C
7F8C0C
618C0C
60180C
001818
0031F8
0061F0
000000
ENDCHAR

STARTCHAR A4EC
ENCODING 42220
SWIDTH 960 0
DWIDTH 24 0
BBX 24 24 0 -4
BITMAP
000000
000180
000180
000180
7FBFFC
7FBFFC
618180
618180
618180
61BFFC
61BFFC
618180
618180
618180
61FFFE
61FFFE
7F8180
7F8180
618180
600180
000180
000180
000180
000000
ENDCHAR

STARTCHAR A4ED
ENCODING 42221
SWIDTH 960 0
DWIDTH 24 0
BBX 24 24 0 -4
BITMAP
000000
003FFC
003FFC
7F8000
7F8000
618000
618000
618000
61FFFE
61FFFE
618300
618300
618300
618300
618600
7F8618
7F8618
61860C
600C0C
000C7E
000FF6
003F86
003806
000000
ENDCHAR

STARTCHAR A4EE
ENCODING 42222
SWIDTH 960 0
DWIDTH 24 0
BBX 24 24 0 -4
BITMAP
000000
000300
000300
7F0300
7F0300
630300
63FFFE
63FFFE
630300
630700
630780
630F80
630FC0
631B60
631B30
7F3318
7F630C
63C306
618302
000300
000300
000300
000300
000000
ENDCHAR

STARTCHAR A4EF
ENCODING 42223
SWIDTH 960 0
DWIDTH 24 0
BBX 24 24 0 -4
BITMAP
000000
000600
000600
7F0660
7F0630
630618
630600
63FFFC
63FFFC
630780
630780
630780
630D80
630D80
630D80
7F0D80
7F0D80
631980
601986
003186
003186
0061FE
00C0FC
000000
ENDCHAR

STARTCHAR A4F0
ENCODING 42224
SWIDTH 960 0
DWIDTH 24 0
BBX 24 24 0 -4
BITMAP
000000
000FE0
7F0FE0
7F0C60
630C60
630C60
631860
631860
63307E
63603C
630000
637FF8
637FF8
631830
7F0C30
7F0C60
630660
6007C0
000380
000380
000EE0
007838
01C00C
000000
ENDCHAR

STARTCHAR A4F1
ENCODING 42225
SWIDTH 960 0
DWIDTH 24 0
BBX 24 24 0 -4
BITMAP
000000
000060
000660
7F0630
7F0630
630630
630C18
630C18
631818
63180C
63300C
633006
636306
63C300
630300
7F0600
7F0600
630618
600C18
000C0C
0019FE
007F86
006000
000000
ENDCHAR

STARTCHAR A4F2
ENCODING 42226
SWIDTH 960 0
DWIDTH 24 0
BBX 24 24 0 -4
BITMAP
000000
003000
003000
001800
001800
3FFFFE
3FFFFE
300C06
301E06
307386
31C0E6
370036
3C001E
33FFE6
33FFE6
330066
330066
330066
33FFE6
33FFE6
330066
30001E
30001C
000000
ENDCHAR

STARTCHAR A4F3
ENCODING 42227
SWIDTH 960 0
DWIDTH 24 0
BBX 24 24 0 -4
BITMAP
000000
1FFFE0
1FFFE0
006060
006060
00C0FE
00C0FE
018086
030006
060C3E
1C0C3C
000C00
7FFFFE
7FFFFE
000C00
000C00
07FFF0
07FFF0
060030
060030
07FFF0
07FFF0
060030
000000
ENDCHAR

STARTCHAR A4F4
ENCODING 42228
SWIDTH 960 0
DWIDTH 24 0
BBX 24 24 0 -4
BITMAP
000000
000030
000030
7F1830
7F0C30
630630
630330
630130
630030
633830
631C30
630E30
630730
630030
630030
7F7FFE
7F7FFE
630030
600030
000030
000030
000030
000030
000000
ENDCHAR

STARTCHAR A4F5
ENCODING 42229
SWIDTH 960 0
DWIDTH 24 0
BBX 24 24 0 -4
BITMAP
000000
000800
7F0E00
7F0700
630380
6301C0
630000
630C00
630C00
630C00
632C18
632C18
636C0C
636C0C
636C06
7F6C06
7F4C00
630C00
600C0C
000C0C
000C0C
000FFC
0007F8
000000
ENDCHAR

STARTCHAR A4F6
ENCODING 42230
SWIDTH 960 0
DWIDTH 24 0
BBX 24 24 0 -4
BITMAP
000000
000000
7F3FF8
7F3FF8
630318
630318
630318
63FFFE
63FFFE
630318
630318
630318
637FF8
637FF8
7F0318
7F0300
630300
600600
000600
000C00
001800
003000
006000
000000
ENDCHAR

STARTCHAR A4F7
ENCODING 42231
SWIDTH 960 0
DWIDTH 24 0
BBX 24 24 0 -4
BITMAP
000000
007FE6
7F7FE6
7F0066
630066
630066
630066
633FE6
633FE6
633006
633006
633006
633FE6
633FE6
633066
7F0066
7F0066
630066
600066
000066
0000C6
000FC6
000F86
000000
ENDCHAR

STARTCHAR A4F8
ENCODING 42232
SWIDTH 960 0
DWIDTH 24 0
BBX 24 24 0 -4
BITMAP
000000
000300
000300
7F0300
7F7FFC
637FFC
630300
630300
630300
630300
630300
63FFFE
63FFFE
630300
630300
7F0780
7F0680
630CC0
601860
003030
006018
00C00C
038006
000000
ENDCHAR

STARTCHAR A4F9
ENCODING 42233
SWIDTH 960 0
DWIDTH 24 0
BBX 24 24 0 -4
BITMAP
000000
0030C0
0030C0
7F30C0
7F30C0
6330C0
6330C0
6330C0
633EFE
633EFE
6330C0
6330C0
6330C0
6330C0
6330C0
7F30C0
7F30C0
6330C0
6030C0
0030C6
0036C6
007EFE
00787C
000000
ENDCHAR

STARTCHAR A4FA
ENCODING 42234
SWIDTH 960 0
DWIDTH 24 0
BBX 24 24 0 -4
BITMAP
000000
000030
000030
7F1830
7F0C60
636C66
636666
6363C6
6361C6
636186
6361C6
6363C6
636366
636666
636666
7F6C36
7F6C36
636816
606006
006006
007FFE
007FFE
006006
000000
ENDCHAR

STARTCHAR A4FB
ENCODING 42235
SWIDTH 960 0
DWIDTH 24 0
BBX 24 24 0 -4
BITMAP
000000
07FFE0
07FFE0
060060
060060
060060
07FFE0
07FFE0
060060
000000
1FFFF8
1FFFF8
001800
001800
7FFFFE
7FFFFE
001800
003C00
007600
00C300
0381C0
0E0070
3C003C
000000
ENDCHAR

STARTCHAR A4FC
ENCODING 42236
SWIDTH 960 0
DWIDTH 24 0
BBX 24 24 0 -4
BITMAP
000000
07FFE0
07FFE0
060060
060060
060060
07FFE0
07FFE0
018000
018000
03FFC0
03FFC0
000180
000180
7FFFFE
7FFFFE
018300
018300
030180
0300C0
060060
0C0030
180030
000000
ENDCHAR

STARTCHAR A4FD
ENCODING 42237
SWIDTH 960 0
DWIDTH 24 0
BBX 24 24 0 -4
BITMAP
000000
000000
000060
7E0060
7E00C0
6600C0
667FFE
667FFE
666186
6661C6
6661C6
666366
666366
666636
666636
7E6C16
7E6806
666006
606006
006006
006006
00603E
00603C
000000
ENDCHAR

STARTCHAR A4FE
ENCODING 42238
SWIDTH 960 0
DWIDTH 24 0
BBX 24 24 0 -4
BITMAP
000000
003000
001800
018C00
198630
198618
19800C
3180C6
3180C6
6180C2
41FFC0
00FF80
000000
000000
0FFFF8
0FFFF8
0C0018
0C0018
0C0018
0C0018
0FFFF8
0FFFF8
0C0018
000000
ENDCHAR

STARTCHAR A5A1
ENCODING 42401
SWIDTH 960 0
DWIDTH 24 0
BBX 24 24 0 -4
BITMAP
000000
000C00
030C00
030C00
030C00
07FFF8
07FFF8
0C0C00
180C00
300C00
000C00
7FFFFE
7FFFFE
000C00
000C00
07FFF0
07FFF0
060030
060030
060030
060030
07FFF0
07FFF0
000000
ENDCHAR

STARTCHAR A5A2
ENCODING 42402
SWIDTH 960 0
DWIDTH 24 0
BBX 24 24 0 -4
BITMAP
000000
0003F0
03FFE0
0FFC00
003000
003000
003000
7FFFFE
7FFFFE
006300
00C180
0180C0
030060
060070
1FFFFC
77FFEE
060060
060060
060060
060060
07FFE0
07FFE0
060060
000000
ENDCHAR

STARTCHAR A5A3
ENCODING 42403
SWIDTH 960 0
DWIDTH 24 0
BBX 24 24 0 -4
BITMAP
000000
000300
000300
7F8700
7F8600
618600
618FFE
618FFE
618C18
619C18
619818
61BC30
61BC30
61E630
618660
7F8360
7F83C0
618180
6003C0
000660
000C30
00381C
00E006
000000
ENDCHAR

STARTCHAR A5A4
ENCODING 42404
SWIDTH 960 0
DWIDTH 24 0
BBX 24 24 0 -4
BITMAP
000000
0001FC
007FC0
0FF000
0C0000
0FFFFE
0FFFFE
0C0006
0C0006
0C0006
0FFFFE
0FFFFE
0C0000
0C0000
0C0000
0DFFFC
19FFFC
19800C
19800C
31800C
31800C
61FFFC
41FFFC
000000
ENDCHAR

STARTCHAR A5A5
ENCODING 42405
SWIDTH 960 0
DWIDTH 24 0
BBX 24 24 0 -4
BITMAP
000000
000000
007FFC
7FFFFC
7F8300
618300
618300
618300
618300
618300
61FFF0
61FFF0
618630
618630
618630
7F8630
7F8C30
618C30
600C30
000C30
000C30
01FFFE
01FFFE
000000
ENDCHAR

STARTCHAR A5A6
ENCODING 42406
SWIDTH 960 0
DWIDTH 24 0
BBX 24 24 0 -4
BITMAP
000000
7FFFFE
7FFFFE
600006
600006
63FFC6
63FFC6
600006
600006
6FFFF6
6FFFF6
603006
603306
606306
606186
60C0C6
63FFC6
63F066
600066
600006
7FFFFE
7FFFFE
600006
000000
ENDCHAR

STARTCHAR A5A7
ENCODING 42407
SWIDTH 960 0
DWIDTH 24 0
BBX 24 24 0 -4
BITMAP
000000
7FFFFE
7FFFFE
60C306
60C306
60C306
67FFE6
67FFE6
60C306
60C306
60C306
60C306
6FFFF6
6FFFF6
60C306
618306
618306
630306
660306
600306
7FFFFE
7FFFFE
600006
000000
ENDCHAR

STARTCHAR A5A8
ENCODING 42408
SWIDTH 960 0
DWIDTH 24 0
BBX 24 24 0 -4
BITMAP
000000
7FFFFE
7FFFFE
600006
6018C6
60CCC6
666586
633186
618306
60C306
606606
603606
601C06
601E06
603306
606186
60C0C6
618066
660036
600006
7FFFFE
7FFFFE
600006
000000
ENDCHAR

STARTCHAR A5A9
ENCODING 42409
SWIDTH 960 0
DWIDTH 24 0
BBX 24 24 0 -4
BITMAP
000000
7FFFFE
7FFFFE
600006
600006
67FFE6
67FFE6
601806
601806
601806
63FFC6
63FFC6
601806
601806
601806
601806
6FFFF6
6FFFF6
600006
600006
7FFFFE
7FFFFE
600006
000000
ENDCHAR

STARTCHAR A5AA
ENCODING 42410
SWIDTH 960 0
DWIDTH 24 0
BBX 24 24 0 -4
BITMAP
000000
7FFFFE
7FFFFE
600006
600006
63FFC6
63FFC6
600006
600006
6FFFF6
6FFFF6
60C306
60C306
618306
618306
630336
660336
6C03F6
6001E6
600006
7FFFFE
7FFFFE
600006
000000
ENDCHAR

STARTCHAR A5AB
ENCODING 42411
SWIDTH 960 0
DWIDTH 24 0
BBX 24 24 0 -4
BITMAP
000000
7FFFFE
7FFFFE
618186
618186
618186
618186
61FF86
61FF86
618186
618186
618186
618186
618186
61FF86
61FF86
618186
618186
618186
618186
7FFFFE
7FFFFE
600006
000000
ENDCHAR

STARTCHAR A5AC
ENCODING 42412
SWIDTH 960 0
DWIDTH 24 0
BBX 24 24 0 -4
BITMAP
000000
7FFFFE
7FFFFE
601806
601806
601806
601806
6FD866
6FDCC6
60DF86
619B06
619B06
619986
631986
6318C6
6618C6
6C1866
607836
607006
600006
7FFFFE
7FFFFE
600006
000000
ENDCHAR

STARTCHAR A5AD
ENCODING 42413
SWIDTH 960 0
DWIDTH 24 0
BBX 24 24 0 -4
BITMAP
000000
0C0000
0C7FFE
0C7FFE
0C6006
0C6006
0C6006
7F6006
7F6666
0C0660
0C0660
0C0660
0C0660
0C0660
0C0660
0C0C60
0DCC60
1F0C66
701866
401866
003066
00607E
00C03C
000000
ENDCHAR

STARTCHAR A5AE
ENCODING 42414
SWIDTH 960 0
DWIDTH 24 0
BBX 24 24 0 -4
BITMAP
000000
0C0000
0C7FF8
0C7FF8
0C0018
0C0030
0C0E60
7F83C0
7F8180
0C7FFE
0C7FFE
0C018C
0C018C
0C0198
0C0180
0C0180
0FC180
1E0180
780180
000180
000180
000F80
000F00
000000
ENDCHAR

STARTCHAR A5AF
ENCODING 42415
SWIDTH 960 0
DWIDTH 24 0
BBX 24 24 0 -4
BITMAP
000000
0C0FE0
0C0FE0
0C0C60
0C0C60
0C0C60
0C1860
7F9860
7FB07E
0C303E
0C6000
0C0000
0C7FF8
0C7FF8
0C1818
0C1830
0F8C30
1E0660
7803C0
000180
0007C0
001C70
00F01C
000000
ENDCHAR

STARTCHAR A5B0
ENCODING 42416
SWIDTH 960 0
DWIDTH 24 0
BBX 24 24 0 -4
BITMAP
000000
000180
0C01C0
0C03C0
0C0360
0C0660
0C0630
0C0C18
7F980C
7FB006
0C6C62
0C0C60
0C0C60
0C0C60
0C0C60
0C0C60
0D9860
0F1860
0E1860
1C3060
703060
006060
01C060
000000
ENDCHAR

STARTCHAR A5B1
ENCODING 42417
SWIDTH 960 0
DWIDTH 24 0
BBX 24 24 0 -4
BITMAP
000000
07FFF0
07FFF0
060030
060030
060030
07FFF0
07FFF0
060030
060030
060030
07FFF0
07FFF0
061830
001800
001800
0FFFF0
0FFFF0
001800
001800
001800
7FFFFE
7FFFFE
000000
ENDCHAR

STARTCHAR A5B2
ENCODING 42418
SWIDTH 960 0
DWIDTH 24 0
BBX 24 24 0 -4
BITMAP
000000
00C180
00C180
00C180
1FFFF8
1FFFF8
00C180
00C180
00C180
3FFFFE
3FFFFE
00C180
018180
030180
0E1980
001800
07FFF0
07FFF0
001800
001800
001800
7FFFFE
7FFFFE
000000
ENDCHAR

STARTCHAR A5B3
ENCODING 42419
SWIDTH 960 0
DWIDTH 24 0
BBX 24 24 0 -4
BITMAP
000000
07FFE0
07FFE0
000000
000000
000000
1FFFFC
1FFFFC
00C300
00C300
00C30C
01830C
01830C
0303FC
0619F8
001800
0FFFF0
0FFFF0
001800
001800
001800
7FFFFE
7FFFFE
000000
ENDCHAR

STARTCHAR A5B4
ENCODING 42420
SWIDTH 960 0
DWIDTH 24 0
BBX 24 24 0 -4
BITMAP
000000
0C0030
0C0030
0C0C30
0C0630
0C0330
0C01B0
7F8030
7F8030
0C1830
0C0C30
0C0630
0C0330
0C0030
0C0030
0C3FFE
0F3FFE
1C0030
700030
000030
000030
000030
000030
000000
ENDCHAR

STARTCHAR A5B5
ENCODING 42421
SWIDTH 960 0
DWIDTH 24 0
BBX 24 24 0 -4
BITMAP
000000
0C0C00
0C0600
0C0300
0C0300
0C7FFE
0C7FFE
7F9830
7F9830
0C0C60
0C0C60
0C0C60
0C06C0
0C06C0
0C0380
0C0380
0FC380
3F07C0
7806C0
000C60
001830
007018
01C00E
000000
ENDCHAR

STARTCHAR A5B6
ENCODING 42422
SWIDTH 960 0
DWIDTH 24 0
BBX 24 24 0 -4
BITMAP
000000
0C0000
0C3FF8
0C3FF8
0C0000
0C0000
0C0000
7F8000
7F8000
0C7FFC
0C7FFC
0C0CC0
0C0CC0
0C0CC0
0C0CC0
0C0CC0
0D98C0
0F18C0
7C30C6
0030C6
0060C6
00C0FE
01807C
000000
ENDCHAR

STARTCHAR A5B7
ENCODING 42423
SWIDTH 960 0
DWIDTH 24 0
BBX 24 24 0 -4
BITMAP
000000
0C0000
0C0000
0CFFFC
0CFFFC
0C0C00
0C0C00
0C0C00
7F8FF0
7F8FF0
0C0C30
0C0C30
0C1830
0C1830
0C1860
0C1860
0F9FE0
1E1FE0
780060
0000C0
0000C0
01FFFE
01FFFE
000000
ENDCHAR

STARTCHAR A5B8
ENCODING 42424
SWIDTH 960 0
DWIDTH 24 0
BBX 24 24 0 -4
BITMAP
000000
000600
0C0600
0C0600
0C0600
0C7FF8
0C7FF8
0C0618
7F8618
7F8618
0C0618
0C0618
0CFFFE
0CFFFE
0C0600
0C0600
0C0C80
0F8CC0
1E1860
783870
007038
00E01C
01C006
000000
ENDCHAR

STARTCHAR A5B9
ENCODING 42425
SWIDTH 960 0
DWIDTH 24 0
BBX 24 24 0 -4
BITMAP
000000
0030C0
0C30C0
0C30C0
0C30C0
0C30C0
0C30C0
0C30C0
7FB0C0
7FBEFC
0C3EFC
0C30C0
0C30C0
0C30C0
0C30C0
0C30C0
0FB0C0
1E30C0
7030C6
0036C6
003CC6
0070FE
00607C
000000
ENDCHAR

STARTCHAR A5BA
ENCODING 42426
SWIDTH 960 0
DWIDTH 24 0
BBX 24 24 0 -4
BITMAP
000000
0C00F0
0C0FE0
0C7F00
0C0300
0C0300
0C0300
0C0300
7FBFFC
7FBFFC
0C0300
0C0300
0C0300
0C0300
0CFFFE
0CFFFE
0C0300
0F8300
1E0306
780306
000306
0003FE
0001FC
000000
ENDCHAR

STARTCHAR A5BB
ENCODING 42427
SWIDTH 960 0
DWIDTH 24 0
BBX 24 24 0 -4
BITMAP
000000
000C00
0C0C00
0C0C00
0C0FFE
0C1FFE
0C1800
0C1800
7FB180
7FA180
0C0180
0C3FFE
0C3FFE
0C0186
0C0186
0C0186
0C0306
0F8306
1E0606
780606
000C0C
0018FC
0030F8
000000
ENDCHAR

STARTCHAR A5BC
ENCODING 42428
SWIDTH 960 0
DWIDTH 24 0
BBX 24 24 0 -4
BITMAP
000000
000300
0C0300
0C0300
0C0600
0C0600
0C0C00
0C0FFE
7F8FFE
7F9830
0C1830
0C3C30
0C3430
0C6660
0C0360
0C03C0
0C01C0
0F8180
1E03C0
780660
000C30
00381C
00E006
000000
ENDCHAR

STARTCHAR A5BD
ENCODING 42429
SWIDTH 960 0
DWIDTH 24 0
BBX 24 24 0 -4
BITMAP
000000
0C0C00
0C0C00
0C0C00
0C1FFE
0C1FFE
0C3806
7FB006
7FE006
0C6606
0CC606
0C0606
0C0C06
0C0CC6
0C18C6
0D9866
0F3FE6
1C3C66
700066
000006
00000C
0001FC
0001F8
000000
ENDCHAR

STARTCHAR A5BE
ENCODING 42430
SWIDTH 960 0
DWIDTH 24 0
BBX 24 24 0 -4
BITMAP
000000
0C1800
0C1800
0C1800
0C1800
0C3FFE
0C3FFE
7FB336
7FE336
0C6666
0C0666
0C0CC6
0C0CC6
0C1986
0C3186
0DA306
0F0306
1C0606
700C06
00180C
00300C
0001F8
0001F0
000000
ENDCHAR

STARTCHAR A5BF
ENCODING 42431
SWIDTH 960 0
DWIDTH 24 0
BBX 24 24 0 -4
BITMAP
000000
0C1800
0C1800
0C1BFE
0C33FE
0C3006
0C6006
7F6306
7FC606
0CC606
0C6C06
0C3C06
0C1806
0C1806
0C1806
0C3206
0F3306
1C6306
70FF86
01E18C
00001C
0001F8
0001F0
000000
ENDCHAR

STARTCHAR A5C0
ENCODING 42432
SWIDTH 960 0
DWIDTH 24 0
BBX 24 24 0 -4
BITMAP
000000
0C0000
0C3FFE
0C3FFE
0C3000
0C3000
0C3000
7FB000
7FBFFC
0C3FFC
0C360C
0C360C
0C330C
0C3318
0C3318
0C31B0
0DB0F0
0E30E0
3860E0
6061B0
006318
00C60C
00DC06
000000
ENDCHAR

STARTCHAR A5C1
ENCODING 42433
SWIDTH 960 0
DWIDTH 24 0
BBX 24 24 0 -4
BITMAP
000000
001800
001800
001818
3FD830
3FDAE0
00DB80
019980
0318C0
061860
1C1838
31F80C
01F000
000000
001800
001800
0FFFF8
0FFFF8
001800
001800
001800
7FFFFE
7FFFFE
000000
ENDCHAR

STARTCHAR A5C2
ENCODING 42434
SWIDTH 960 0
DWIDTH 24 0
BBX 24 24 0 -4
BITMAP
000000
000078
000FE0
0FFFE0
0FF860
0C1860
0C1860
0C1860
0C1830
181830
181818
301818
30180C
601806
000000
001800
001800
0FFFF8
0FFFF8
001800
001800
7FFFFE
7FFFFE
000000
ENDCHAR

STARTCHAR A5C3
ENCODING 42435
SWIDTH 960 0
DWIDTH 24 0
BBX 24 24 0 -4
BITMAP
000000
001800
001800
7FFFFE
7FFFFE
001800
001800
1FFFF8
1FFFF8
000000
000000
7FFFFE
7FFFFE
660006
660006
0601E0
060F00
067800
07C018
060018
060018
07FFF8
03FFF0
000000
ENDCHAR

STARTCHAR A5C4
ENCODING 42436
SWIDTH 960 0
DWIDTH 24 0
BBX 24 24 0 -4
BITMAP
000000
001800
001800
7FFFFE
7FFFFE
001800
001800
0FFFF0
0FFFF0
000000
000000
7FFFFE
7FFFFE
618306
618306
618306
030300
030300
06030C
06030C
0C030C
1803FC
3001F8
000000
ENDCHAR

STARTCHAR A5C5
ENCODING 42437
SWIDTH 960 0
DWIDTH 24 0
BBX 24 24 0 -4
BITMAP
000000
001800
001800
7FFFFE
7FFFFE
001800
001800
1FFFF8
1FFFF8
000000
000000
1FFFF8
1FFFF8
181818
181818
1FFFF8
1FFFF8
180000
180000
180000
300000
300000
600000
000000
ENDCHAR

STARTCHAR A5C6
ENCODING 42438
SWIDTH 960 0
DWIDTH 24 0
BBX 24 24 0 -4
BITMAP
000000
00C000
00C060
018070
030030
0607F8
1FFF8C
018300
018300
030300
0603FE
0CC1FC
18C000
00FFE0
0DFFE0
0780C0
078180
0EC300
1C7600
303C00
007700
03C1E0
3E007C
000000
ENDCHAR

STARTCHAR A5C7
ENCODING 42439
SWIDTH 960 0
DWIDTH 24 0
BBX 24 24 0 -4
BITMAP
000000
001800
001800
0FFFF0
0FFFF0
001800
001800
07FFE0
07FFE0
001800
001800
3FFFFC
3FFFFC
00C000
00C000
0DFFC0
07FFC0
0D8180
18E300
303E00
01F780
0F81F0
7C003E
000000
ENDCHAR

STARTCHAR A5C8
ENCODING 42440
SWIDTH 960 0
DWIDTH 24 0
BBX 24 24 0 -4
BITMAP
000000
003000
007000
00E000
7FFFFE
7FFFFE
603006
603006
607FE6
60FFE6
61C066
6360C6
6630C6
601986
600F86
600706
600E06
603C06
60F006
61C006
7FFFFE
7FFFFE
600006
000000
ENDCHAR

STARTCHAR A5C9
ENCODING 42441
SWIDTH 960 0
DWIDTH 24 0
BBX 24 24 0 -4
BITMAP
000000
003000
003000
003000
7FFFFE
7FFFFE
006300
00C300
018180
03FFC0
07FFE0
0C0070
18001C
700006
0FFFF0
0FFFF0
006000
006100
00C180
00C0C0
018FE0
0FFFF0
0FF030
000000
ENDCHAR

STARTCHAR A5CA
ENCODING 42442
SWIDTH 960 0
DWIDTH 24 0
BBX 24 24 0 -4
BITMAP
000000
003000
003000
003000
7FFFFE
7FFFFE
006600
00C300
018180
0300C0
0E1870
38181C
001800
3FFFFC
3FFFFC
001800
019880
0318C0
061870
0C1838
30180C
001800
001800
000000
ENDCHAR

STARTCHAR A5CB
ENCODING 42443
SWIDTH 960 0
DWIDTH 24 0
BBX 24 24 0 -4
BITMAP
000000
0C0600
0C0700
0C0380
0C01C0
0D9FFC
7FFFFC
7FE000
198000
198FE0
198FE0
318C60
318C60
330C60
7B0C60
6F0C60
060C60
070C60
0D9860
0CD866
183066
70607E
00C03C
000000
ENDCHAR

STARTCHAR A5CC
ENCODING 42444
SWIDTH 960 0
DWIDTH 24 0
BBX 24 24 0 -4
BITMAP
000000
0C0C60
0C0C60
0C0C60
0CCC60
7FFFFC
7FFFFC
0CCC60
18CC60
18CC60
198C60
318C60
31BFFE
31BFFE
718C60
798C60
6F0C60
070C60
079860
0CD860
181860
303060
602060
000000
ENDCHAR

STARTCHAR A5CD
ENCODING 42445
SWIDTH 960 0
DWIDTH 24 0
BBX 24 24 0 -4
BITMAP
000000
0C0300
0C0360
0C0330
0CC318
7FE318
7FE300
0CDFFE
18DFFE
18C360
18C360
318360
318360
318660
630660
7B0660
0E0660
030C60
078C66
0DD866
18D866
30307E
60603C
000000
ENDCHAR

STARTCHAR A5CE
ENCODING 42446
SWIDTH 960 0
DWIDTH 24 0
BBX 24 24 0 -4
BITMAP
000000
0C0300
0C0300
0C0300
0CC300
7FFFF8
7FFFF8
0CC318
18C318
18C318
198318
31FFFE
31FFFE
318300
798300
1F0640
070660
030C30
078C30
0CD818
18380C
30700C
60E000
000000
ENDCHAR

STARTCHAR A5CF
ENCODING 42447
SWIDTH 960 0
DWIDTH 24 0
BBX 24 24 0 -4
BITMAP
000000
0C0600
0C0600
0C0600
0CC7FE
7FEFFE
7FEC06
0CCC06
18D806
18D806
18D7E6
3187E6
318006
318006
718006
7D0006
6F0FF6
078FF6
0DC00C
0CC00C
18000C
300018
6001F8
000000
ENDCHAR

STARTCHAR A5D0
ENCODING 42448
SWIDTH 960 0
DWIDTH 24 0
BBX 24 24 0 -4
BITMAP
000000
0C7FF0
0C7FF0
0C0C30
0CCC30
7FEC30
7FEC60
0CCC60
18CC60
18DFFC
199FFC
319E18
319B18
331B18
7319B0
7F19B0
6E30E0
0730E0
07B0E0
0DA3B0
18C618
30CC0C
603006
000000
ENDCHAR

STARTCHAR A5D1
ENCODING 42449
SWIDTH 960 0
DWIDTH 24 0
BBX 24 24 0 -4
BITMAP
000000
1FFFF8
1FFFF8
180018
180018
1FFFF8
1FFFF8
180018
180018
1FFFF8
1FFFF8
006000
00C0C0
7FFFFC
7FFFFC
0180C0
0300C0
078180
07E300
007E00
003B80
03E1E0
3F0078
000000
ENDCHAR

STARTCHAR A5D2
ENCODING 42450
SWIDTH 960 0
DWIDTH 24 0
BBX 24 24 0 -4
BITMAP
000000
0C0FF8
0C0FF8
0C0C18
0CCC18
7FEC18
7FFFFE
0CFFFE
18CC18
18CC18
18CC18
30FFFE
31FFFE
318C18
330C18
7B0C18
6E0C18
070C18
078C18
0D8C18
18D818
30D8F8
6010F0
000000
ENDCHAR

STARTCHAR A5D3
ENCODING 42451
SWIDTH 960 0
DWIDTH 24 0
BBX 24 24 0 -4
BITMAP
000000
001800
181818
181818
181818
181818
1FFFF8
1FFFF8
001800
001800
3FFFFC
3FFFFC
003000
006060
7FFFFE
7FFFFE
018060
0380C0
03E180
007F00
000F80
01F8F0
1F801C
000000
ENDCHAR

STARTCHAR A5D4
ENCODING 42452
SWIDTH 960 0
DWIDTH 24 0
BBX 24 24 0 -4
BITMAP
000000
0C0000
0C7FFE
0C7FFE
0C6006
7FE006
7FE006
0CE7E6
0CC7E0
18C660
18C660
198660
318660
318660
318660
7D0C60
6F0C60
070C66
078C66
0DD866
18D866
38307E
60203C
000000
ENDCHAR

STARTCHAR A5D5
ENCODING 42453
SWIDTH 960 0
DWIDTH 24 0
BBX 24 24 0 -4
BITMAP
000000
0C0180
0C0180
0C0180
0C0180
0DBFFE
7FFFFE
7FF186
19B1C6
19B1C6
1983C0
1983C0
3183C0
3306C0
3306C0
7B06C0
6E0CC0
070CC6
0798C6
0D98C6
1830C6
3860FE
70C07C
000000
ENDCHAR

STARTCHAR A5D6
ENCODING 42454
SWIDTH 960 0
DWIDTH 24 0
BBX 24 24 0 -4
BITMAP
000000
0C0000
0C7FFE
0C7FFE
0CC0C0
7FE1C0
7FE180
0CC380
1CC380
18C7E0
18CDB0
399D98
31998C
31B186
79B180
7D8180
6F0180
078180
07C180
0CC180
184180
300180
600180
000000
ENDCHAR

STARTCHAR A5D7
ENCODING 42455
SWIDTH 960 0
DWIDTH 24 0
BBX 24 24 0 -4
BITMAP
000000
0C0070
0C03E0
0C1F00
0CC300
7FE300
7FE300
0CC300
18DFFC
18DFFC
18C300
398300
318300
318300
39BFFE
7FBFFE
6F0300
078300
0DC306
0CC306
180306
3003FE
6001FC
000000
ENDCHAR

STARTCHAR A5D8
ENCODING 42456
SWIDTH 960 0
DWIDTH 24 0
BBX 24 24 0 -4
BITMAP
000000
001800
000C00
7FFFFE
7FFFFE
038070
00E1C0
007380
003E00
007700
03C1E0
1E0078
71FF8E
01FF00
000600
000C00
7FFFFE
7FFFFE
000C00
000C00
000C00
00FC00
00F800
000000
ENDCHAR

STARTCHAR A5D9
ENCODING 42457
SWIDTH 960 0
DWIDTH 24 0
BBX 24 24 0 -4
BITMAP
000000
003000
003800
001800
7FFFFE
7FFFFE
603006
603806
001800
3FFFF8
3FFFF8
000030
000060
0000C0
000180
000700
0C1C00
0E7000
1FC000
1B8000
30E000
307FFE
601FFE
000000
ENDCHAR

STARTCHAR A5DA
ENCODING 42458
SWIDTH 960 0
DWIDTH 24 0
BBX 24 24 0 -4
BITMAP
000000
003000
003800
001800
7FFFFE
7FFFFE
600006
603006
001800
000C00
7FFFFE
7FFFFE
000000
000000
018180
018180
0300C0
0300C0
060060
0C0030
1C0018
38000C
700006
000000
ENDCHAR

STARTCHAR A5DB
ENCODING 42459
SWIDTH 960 0
DWIDTH 24 0
BBX 24 24 0 -4
BITMAP
000000
003000
003800
001800
7FFFFE
7FFFFE
600006
60C0C6
00C0C0
018060
030060
060030
060030
0C3018
18300C
706006
006180
00C0C0
00C060
018030
018FF8
0FFE18
0F000C
000000
ENDCHAR

STARTCHAR A5DC
ENCODING 42460
SWIDTH 960 0
DWIDTH 24 0
BBX 24 24 0 -4
BITMAP
000000
0C0018
0E0018
070018
030018
7FFC18
7FFC18
1837FE
1837FE
183018
0C3618
0C6618
0C6318
066318
06C198
03C018
018018
03C018
06E018
0C7018
183818
3018F8
0000F0
000000
ENDCHAR

STARTCHAR A5DD
ENCODING 42461
SWIDTH 960 0
DWIDTH 24 0
BBX 24 24 0 -4
BITMAP
000000
001800
001800
3FFFFC
3FFFFC
001800
003000
1FFFF8
1FFFF8
006000
00C000
7FFFFE
7FFFFE
018060
030060
3FFFFE
3FFFFE
0CE060
187060
303060
000060
000FE0
000FC0
000000
ENDCHAR

STARTCHAR A5DE
ENCODING 42462
SWIDTH 960 0
DWIDTH 24 0
BBX 24 24 0 -4
BITMAP
000000
0000F8
007FE0
07FC00
060000
0C3030
0C1818
180C0C
380C06
300180
000180
7FFFFE
7FFFFE
000180
060180
030180
018180
00C180
000180
000180
000180
003F80
003F00
000000
ENDCHAR

STARTCHAR A5DF
ENCODING 42463
SWIDTH 960 0
DWIDTH 24 0
BBX 24 24 0 -4
BITMAP
000000
001FF8
001FF8
7FF180
7FF180
0CC180
0CC180
0CC180
0CC180
0CCFF0
0CCFF0
0CC180
0CC180
0CC180
0CC180
18C180
18DFF8
18DFF8
18C000
30C006
30C006
60FFFE
407FFC
000000
ENDCHAR

STARTCHAR A5E0
ENCODING 42464
SWIDTH 960 0
DWIDTH 24 0
BBX 24 24 0 -4
BITMAP
000000
060060
060060
060060
066060
666060
6667FE
6667FE
666666
666666
666666
666666
666666
666666
6667FE
6667FE
666666
666060
7FE060
7FE060
606060
000060
000060
000000
ENDCHAR

STARTCHAR A5E1
ENCODING 42465
SWIDTH 960 0
DWIDTH 24 0
BBX 24 24 0 -4
BITMAP
000000
0607FE
0607FE
060606
066606
666606
666606
6667FE
6667FE
666606
666606
666606
666606
6667FE
6667FE
666606
7FE606
7FE606
606606
600C06
000C06
00183E
00103C
000000
ENDCHAR

STARTCHAR A5E2
ENCODING 42466
SWIDTH 960 0
DWIDTH 24 0
BBX 24 24 0 -4
BITMAP
000000
0600C0
060060
066660
666630
666630
666C18
666C18
66780C
66700C
666FFE
666FF8
666318
666318
666318
666318
7FE318
7FE618
606618
600C18
000C18
0019F8
0011F0
000000
ENDCHAR

STARTCHAR A5E3
ENCODING 42467
SWIDTH 960 0
DWIDTH 24 0
BBX 24 24 0 -4
BITMAP
000000
003000
303018
303018
303018
303018
3FFFF8
3FFFF8
300018
000000
7FFFF8
7FFFF8
603018
603018
603018
7FFFF8
7FFFF8
600018
600006
600006
600006
7FFFFE
3FFFFC
000000
ENDCHAR

STARTCHAR A5E4
ENCODING 42468
SWIDTH 960 0
DWIDTH 24 0
BBX 24 24 0 -4
BITMAP
000000
001800
181818
181818
181818
181818
1FFFF8
1FFFF8
183018
001800
7FFFFE
7FFFFE
0300C0
0380C0
01C180
00E300
007600
003C00
003C00
00EE00
038780
0E01F0
78003E
000000
ENDCHAR

STARTCHAR A5E5
ENCODING 42469
SWIDTH 960 0
DWIDTH 24 0
BBX 24 24 0 -4
BITMAP
000000
060300
060380
060180
0601C0
6660C0
667FFE
667FFE
666618
666618
666618
666618
666330
666330
666330
6661A0
6661E0
7FE0C0
7FE0E0
6061B0
600318
00060C
001C06
000000
ENDCHAR

STARTCHAR A5E6
ENCODING 42470
SWIDTH 960 0
DWIDTH 24 0
BBX 24 24 0 -4
BITMAP
000000
060000
0607FE
0607FE
066600
666600
666600
666600
6667FE
6667FE
6666C6
6666C6
6666CC
6666CC
6666CC
6666D8
666C78
7FEC70
7FEC70
6018D8
001998
00330C
006606
000000
ENDCHAR

STARTCHAR A5E7
ENCODING 42471
SWIDTH 960 0
DWIDTH 24 0
BBX 24 24 0 -4
BITMAP
000000
0003F8
0FFFE0
0FFC00
0C0000
0C0000
0FFFFE
0FFFFE
0C0000
0C0000
0CFFFC
0CFFFC
0CC30C
0CC30C
0CC30C
0CFFFC
18FFFC
18C000
18C006
18C006
30C006
30FFFE
607FFC
000000
ENDCHAR

STARTCHAR A5E8
ENCODING 42472
SWIDTH 960 0
DWIDTH 24 0
BBX 24 24 0 -4
BITMAP
000000
060000
060660
060660
7FE630
7FE630
666C30
666C18
666818
66680C
66700C
666FFE
666FF8
666318
666318
67E318
67C318
660618
060618
060C18
060C30
0619F0
0031E0
000000
ENDCHAR

STARTCHAR A5E9
ENCODING 42473
SWIDTH 960 0
DWIDTH 24 0
BBX 24 24 0 -4
BITMAP
000000
0600C0
0601C0
0601E0
7FE360
7FE330
666618
66661C
666C0E
667806
666330
666330
666330
666330
666330
666330
67E330
67C630
660630
060C30
060C30
061830
063030
000000
ENDCHAR

STARTCHAR A5EA
ENCODING 42474
SWIDTH 960 0
DWIDTH 24 0
BBX 24 24 0 -4
BITMAP
000000
00300C
00301C
1FFF38
1FFF70
0030E0
0031C0
7FFFFC
7FFFFC
003C00
00EC00
03CC00
0F0C00
3FFFF8
67FFF8
060C18
060C18
060C18
060CF8
060CF0
060C00
000C00
000C00
000000
ENDCHAR

STARTCHAR A5EB
ENCODING 42475
SWIDTH 960 0
DWIDTH 24 0
BBX 24 24 0 -4
BITMAP
000000
0007F0
1FFF80
1FF800
181800
181800
1FFFFE
1FFFFE
180600
180300
18F1C6
1FC0FE
7F0C3C
000C00
0FFFFC
0FFFFC
0C0C0C
0C0C0C
0C0C0C
0C0C7C
0C0C78
000C00
000C00
000000
ENDCHAR

STARTCHAR A5EC
ENCODING 42476
SWIDTH 960 0
DWIDTH 24 0
BBX 24 24 0 -4
BITMAP
000000
000C00
000E00
000600
1FFFFE
1FFFFE
180000
180CE0
180C70
180C00
1BFFFC
1BFFFC
180C00
180C00
180618
180630
180660
1803C0
300380
300FC6
3038E6
60E07E
63803C
000000
ENDCHAR

STARTCHAR A5ED
ENCODING 42477
SWIDTH 960 0
DWIDTH 24 0
BBX 24 24 0 -4
BITMAP
000000
001800
001C00
000C00
0FFFFE
0FFFFE
0C0000
0C0600
0C0600
0C0600
0C0600
0C0600
0FFFFC
0FFFFC
0C0600
180600
180660
180630
180618
180618
300600
37FFFE
27FFFE
000000
ENDCHAR

STARTCHAR A5EE
ENCODING 42478
SWIDTH 960 0
DWIDTH 24 0
BBX 24 24 0 -4
BITMAP
000000
000C00
000E00
000600
1FFFFE
1FFFFE
180000
1803F8
19FF80
19F800
198000
19FFFC
19FFFC
19800C
19800C
19FFFC
19FFFC
19800C
198000
318000
330000
630000
460000
000000
ENDCHAR

STARTCHAR A5EF
ENCODING 42479
SWIDTH 960 0
DWIDTH 24 0
BBX 24 24 0 -4
BITMAP
000000
003000
003800
001800
7FFFFE
7FFFFE
006000
00C180
0180C0
030060
07FFF0
0FFFF8
018198
018180
018180
7FFFFE
7FFFFE
018180
018180
030180
030180
060180
0C0180
000000
ENDCHAR

STARTCHAR A5F0
ENCODING 42480
SWIDTH 960 0
DWIDTH 24 0
BBX 24 24 0 -4
BITMAP
000000
000600
7F8600
7F8600
018600
018600
01FFFE
01FFFE
3F8600
3F8C00
300CC0
700CC0
600CC0
7F8CC0
7F9980
019980
019990
019B18
03330C
03330C
03663E
3E47E6
3C0602
000000
ENDCHAR

STARTCHAR A5F1
ENCODING 42481
SWIDTH 960 0
DWIDTH 24 0
BBX 24 24 0 -4
BITMAP
000000
7F8C00
7F8C00
018C00
019FFE
019FFE
01B806
01B18C
3FB18C
3FE198
3061B0
6003C0
6003C0
7F8340
7F8760
018660
018E30
018C30
031818
031818
06300C
3E600C
3CC006
000000
ENDCHAR

STARTCHAR A5F2
ENCODING 42482
SWIDTH 960 0
DWIDTH 24 0
BBX 24 24 0 -4
BITMAP
000000
01800C
01C00C
00E018
006030
7FFE60
7FFEC0
0C198C
0C180C
0E1818
063030
063060
0330C6
036186
01E00C
01C018
00C030
01E060
03B0C0
061C00
0C0780
1801F0
30003E
000000
ENDCHAR

STARTCHAR A5F3
ENCODING 42483
SWIDTH 960 0
DWIDTH 24 0
BBX 24 24 0 -4
BITMAP
000000
060000
060000
060700
060380
0601C0
068060
36C600
36C600
364600
363600
663618
663618
46660C
06660C
066606
06C606
06C602
068618
060618
060618
0607F8
0603F0
000000
ENDCHAR

STARTCHAR A5F4
ENCODING 42484
SWIDTH 960 0
DWIDTH 24 0
BBX 24 24 0 -4
BITMAP
000000
060180
0601A0
0601B0
060198
06018C
078180
37DFFE
36DFFE
36C3C0
3603C0
6603C0
6603C0
4606C0
0606C0
0606C0
0606C0
060CC0
060CC6
0618C6
0618C6
0630FE
06607C
000000
ENDCHAR

STARTCHAR A5F5
ENCODING 42485
SWIDTH 960 0
DWIDTH 24 0
BBX 24 24 0 -4
BITMAP
000000
060600
060600
060600
060C00
060FFE
079FFE
37B000
36E000
36CFFC
660FFC
660000
660000
461FF8
061FF8
060038
0600F0
0603C0
060F00
061C06
061806
061FFE
060FFC
000000
ENDCHAR

STARTCHAR A5F6
ENCODING 42486
SWIDTH 960 0
DWIDTH 24 0
BBX 24 24 0 -4
BITMAP
000000
060180
060180
0601C0
0603C0
060360
078630
378C18
36D80C
36F006
666C18
660C18
660C18
460C18
060C18
060C18
060C18
061818
061818
061818
063018
063018
066018
000000
ENDCHAR

STARTCHAR A5F7
ENCODING 42487
SWIDTH 960 0
DWIDTH 24 0
BBX 24 24 0 -4
BITMAP
000000
000C00
000E00
000600
1FFFFE
1FFFFE
180000
180E00
180700
180180
181800
181800
199830
199818
19980C
19980C
1B1806
1B1806
331800
321818
301818
601FF8
400FF0
000000
ENDCHAR

STARTCHAR A5F8
ENCODING 42488
SWIDTH 960 0
DWIDTH 24 0
BBX 24 24 0 -4
BITMAP
000000
0001F0
00FFC0
0FFC00
001800
001800
001800
7FFFFE
7FFFFE
001800
001800
001800
001800
000000
033000
031C18
1B0E1C
1B000E
3300C6
3300C0
6300C0
03FFC0
01FF80
000000
ENDCHAR

STARTCHAR A5F9
ENCODING 42489
SWIDTH 960 0
DWIDTH 24 0
BBX 24 24 0 -4
BITMAP
000000
060600
060700
060380
060180
063FFE
07BFFE
378300
36C300
36C300
6603FC
6603FC
66030C
46030C
06060C
06060C
06060C
060C0C
060C0C
06180C
06181C
0631F8
0061F0
000000
ENDCHAR

STARTCHAR A5FA
ENCODING 42490
SWIDTH 960 0
DWIDTH 24 0
BBX 24 24 0 -4
BITMAP
000000
060600
060700
060380
060180
067FFC
077FFC
378000
36C000
36DFE0
661FE0
661860
661860
461860
061860
061860
061860
063060
063066
063066
066066
06607E
06C03C
000000
ENDCHAR

STARTCHAR A5FB
ENCODING 42491
SWIDTH 960 0
DWIDTH 24 0
BBX 24 24 0 -4
BITMAP
000000
060300
060380
060180
0600C0
0700C0
37BFFE
36FFFE
36CC18
360C18
660C18
660618
660630
460330
060360
0601E0
0601C0
0600C0
0601E0
0603B0
060F18
061C0C
067006
000000
ENDCHAR

STARTCHAR A5FC
ENCODING 42492
SWIDTH 960 0
DWIDTH 24 0
BBX 24 24 0 -4
BITMAP
000000
060000
063FF8
063FF8
060018
060030
071E60
3787C0
368180
36C1C0
367FFE
667FFE
660186
46018C
060198
060180
060180
060180
060180
060180
060180
060F80
060F00
000000
ENDCHAR

STARTCHAR A5FD
ENCODING 42493
SWIDTH 960 0
DWIDTH 24 0
BBX 24 24 0 -4
BITMAP
000000
060000
061FF8
061FF8
060000
060000
070000
378000
36C000
36FFFE
663FFE
660300
660300
460300
060300
060600
060600
060630
060618
060C0C
060CFC
063FCE
063C06
000000
ENDCHAR

STARTCHAR A5FE
ENCODING 42494
SWIDTH 960 0
DWIDTH 24 0
BBX 24 24 0 -4
BITMAP
000000
060300
060360
060330
060318
06030C
078300
37C300
36FFFE
367FFE
660300
660380
660780
0607C0
0606C0
060CC0
060C60
061860
061830
063030
063018
06600C
06C006
000000
ENDCHAR

STARTCHAR A6A1
ENCODING 42657
SWIDTH 960 0
DWIDTH 24 0
BBX 24 24 0 -4
BITMAP
000000
060180
060180
060180
060180
060180
078180
37FFFE
36FFFE
36C180
660180
6601C0
6603C0
4603C0
060660
060660
060C60
060C30
061B30
063318
063198
06618C
06C006
000000
ENDCHAR

STARTCHAR A6A2
ENCODING 42658
SWIDTH 960 0
DWIDTH 24 0
BBX 24 24 0 -4
BITMAP
000000
060600
060600
060600
067FE0
067FE0
070660
378660
37CC60
36CC60
361866
661866
66307E
6631BC
066180
060180
06FFFE
06FFFE
060180
060180
060180
060180
060180
000000
ENDCHAR

STARTCHAR A6A3
ENCODING 42659
SWIDTH 960 0
DWIDTH 24 0
BBX 24 24 0 -4
BITMAP
000000
060000
0600F8
060FE0
067F00
060300
070300
378300
36C300
36C300
360300
660300
66FFFE
66FFFE
060300
060300
060300
060300
060300
060300
060300
067FFC
067FFC
000000
ENDCHAR

STARTCHAR A6A4
ENCODING 42660
SWIDTH 960 0
DWIDTH 24 0
BBX 24 24 0 -4
BITMAP
000000
060000
060180
061980
0618C0
0618C0
071860
373060
37B030
36E018
36C00C
663FFE
663FF0
660630
060630
060630
060C30
060C30
061830
061830
063060
0663E0
06C3C0
000000
ENDCHAR

STARTCHAR A6A5
ENCODING 42661
SWIDTH 960 0
DWIDTH 24 0
BBX 24 24 0 -4
BITMAP
000000
000660
000670
000638
000600
7FFFFE
7FFFFE
000600
000600
1FE618
1FE618
186630
186330
186360
186360
1861C0
1FE180
1FE3C0
000EC0
0038E6
00E076
07803E
0C001C
000000
ENDCHAR

STARTCHAR A6A6
ENCODING 42662
SWIDTH 960 0
DWIDTH 24 0
BBX 24 24 0 -4
BITMAP
000000
000660
000670
000638
000618
7FFFFE
7FFFFE
000600
060600
060618
0C0618
0CC638
0C6330
187360
1833E0
1FF1C0
783180
0003C0
00F6C0
3F9CE6
703876
00603E
00C01E
000000
ENDCHAR

STARTCHAR A6A7
ENCODING 42663
SWIDTH 960 0
DWIDTH 24 0
BBX 24 24 0 -4
BITMAP
000000
000300
000370
000338
000300
0FFFFE
0FFFFE
0C0300
0C0300
0C0300
0FF98C
0FF98C
0C6198
0C6198
0C60F0
0C60F0
186060
1860E0
1861E0
306366
33E636
33CC3E
60181E
000000
ENDCHAR

STARTCHAR A6A8
ENCODING 42664
SWIDTH 960 0
DWIDTH 24 0
BBX 24 24 0 -4
BITMAP
000000
0007F8
0FFF80
0FF000
0C0000
0FFFFC
0FFFFC
0C000C
0C000C
0C000C
0FFFFC
0FFFFC
0C0600
0C0600
0FFFFE
0FFFFE
180F00
181B00
183980
3070C0
30E070
318018
67000E
000000
ENDCHAR

STARTCHAR A6A9
ENCODING 42665
SWIDTH 960 0
DWIDTH 24 0
BBX 24 24 0 -4
BITMAP
000000
7FE7FE
7FE7FE
006600
006600
006600
006600
7FE7FE
7FE7FE
606606
606606
606606
606606
7FE7FE
7FE7FE
006600
006600
00C600
00C600
018600
030600
060600
0C0600
000000
ENDCHAR

STARTCHAR A6AA
ENCODING 42666
SWIDTH 960 0
DWIDTH 24 0
BBX 24 24 0 -4
BITMAP
000000
060000
06FFFC
06FFFC
060300
7FC300
7FC300
060300
060300
060300
060300
063FF8
07BFF8
0F0300
7E0300
760300
060300
060300
060300
060300
060300
3EFFFE
3CFFFE
000000
ENDCHAR

STARTCHAR A6AB
ENCODING 42667
SWIDTH 960 0
DWIDTH 24 0
BBX 24 24 0 -4
BITMAP
000000
060000
063FFC
063FFC
061860
7FD860
7FD860
061860
061860
061860
061FFE
06DFFE
0780E0
1E01E0
760360
060660
060C60
061860
063060
060060
060060
3E03E0
3C03C0
000000
ENDCHAR

STARTCHAR A6AC
ENCODING 42668
SWIDTH 960 0
DWIDTH 24 0
BBX 24 24 0 -4
BITMAP
000000
060300
060340
060360
060330
7FC318
7FC300
060300
06FFFE
06FFFE
060300
060300
07C780
1F0780
7606C0
060CC0
060C60
061860
063030
063030
066018
3EC00C
3D8006
000000
ENDCHAR

STARTCHAR A6AD
ENCODING 42669
SWIDTH 960 0
DWIDTH 24 0
BBX 24 24 0 -4
BITMAP
000000
0600F0
0607E0
063F00
060300
7FC300
7FC300
060300
063FFC
063FFC
060300
060300
07C300
1F0300
767FFE
067FFE
060300
060300
060306
060306
060306
3E03FE
3C01FC
000000
ENDCHAR

STARTCHAR A6AE
ENCODING 42670
SWIDTH 960 0
DWIDTH 24 0
BBX 24 24 0 -4
BITMAP
000000
060C0C
060C0C
060C0C
060C0C
7FCC0C
7FCC0C
060FFC
060FFC
060C00
060C00
06CC00
078C00
1F0FFC
7E0FFC
060C0C
060C0C
06180C
06180C
06300C
06300C
3E600C
3C400C
000000
ENDCHAR

STARTCHAR A6AF
ENCODING 42671
SWIDTH 960 0
DWIDTH 24 0
BBX 24 24 0 -4
BITMAP
000000
060000
060000
060E00
060300
7FC180
7FC0C0
060600
060600
060600
063600
063618
0F3618
3E660C
76660C
066606
06C606
06C606
06C600
060618
060718
3E07F8
3C03F0
000000
ENDCHAR

STARTCHAR A6B0
ENCODING 42672
SWIDTH 960 0
DWIDTH 24 0
BBX 24 24 0 -4
BITMAP
000000
060300
060380
0601C0
0600C0
7FDFFE
7FDFFE
060300
060300
060300
0603FC
0603FC
07C30C
1F030C
7E060C
06060C
060C0C
060C0C
06180C
06180C
063018
3E63F8
3C03F0
000000
ENDCHAR

STARTCHAR A6B1
ENCODING 42673
SWIDTH 960 0
DWIDTH 24 0
BBX 24 24 0 -4
BITMAP
000000
060000
061FFC
061FFC
06180C
7FD80C
7FD80C
06180C
061FFC
061FFC
06198C
06D980
0798C0
1F18C0
7E18C0
063060
063060
063030
066030
066018
06C00C
3E8006
3C0000
000000
ENDCHAR

STARTCHAR A6B2
ENCODING 42674
SWIDTH 960 0
DWIDTH 24 0
BBX 24 24 0 -4
BITMAP
000000
061FFE
061FFE
061806
061806
7FD806
7FD87E
06187C
061800
061800
061FFE
061FFE
07DB06
1F9B06
7E198C
06198C
0618D8
061878
061830
061870
0618D8
3E198C
3C1B06
000000
ENDCHAR

STARTCHAR A6B3
ENCODING 42675
SWIDTH 960 0
DWIDTH 24 0
BBX 24 24 0 -4
BITMAP
000000
0C6060
0C6060
0C6060
0C6060
0C6060
7FFFFE
7FFFFE
0C6666
0C6666
0C6666
0C6666
0F6666
1E6666
7C66C6
0C66C6
0C66C6
0CC79E
0CC79C
0CC606
0D860E
7D87FC
7B03F8
000000
ENDCHAR

STARTCHAR A6B4
ENCODING 42676
SWIDTH 960 0
DWIDTH 24 0
BBX 24 24 0 -4
BITMAP
000000
0C0C00
0C0C00
0C0C00
0C7FFE
0C7FFE
7F9800
7F9800
0C1800
0C1FF8
0C1FF8
0C3618
0C3618
0F3630
1E3330
7C6360
6C61E0
0C60C0
0CC1E0
0CC330
0D8E18
7D980C
7B6006
000000
ENDCHAR

STARTCHAR A6B5
ENCODING 42677
SWIDTH 960 0
DWIDTH 24 0
BBX 24 24 0 -4
BITMAP
000000
0C00F8
0C0FE0
0C7F80
0C0180
0C0180
7F8180
7F8180
0C7FFC
0C7FFC
0C0180
0C0180
0C0180
1F0180
7CFFFE
6CFFFE
0C0180
0C0180
0C0180
0C0180
0C0180
7C1F80
781F00
000000
ENDCHAR

STARTCHAR A6B6
ENCODING 42678
SWIDTH 960 0
DWIDTH 24 0
BBX 24 24 0 -4
BITMAP
000000
0C0060
0C0F60
0C3C60
0CF860
0C1860
7F9860
7F9860
0C1860
0C1860
0DFFFE
0DFFFE
0C1860
0F1860
1E1860
7C1860
0C3060
0C3060
0C3060
0C6060
0C6060
7CC060
78C060
000000
ENDCHAR

STARTCHAR A6B7
ENCODING 42679
SWIDTH 960 0
DWIDTH 24 0
BBX 24 24 0 -4
BITMAP
000000
0C0600
0C0600
0C0600
0C0FFE
0C0FFE
7F9806
7F9806
0C3006
0C6306
0CE306
0C0606
0F0666
1E0666
7C0C36
0C0DF6
0C3FB6
0C3836
0C0016
0C0006
0C000C
7C00FC
7800F8
000000
ENDCHAR

STARTCHAR A6B8
ENCODING 42680
SWIDTH 960 0
DWIDTH 24 0
BBX 24 24 0 -4
BITMAP
000000
0C1800
0C1800
0C1BFE
0C33FE
0C3006
7F6006
7FC306
0DC306
0CF606
0C3C06
0C1806
0F1806
1E3006
7C3606
0C6306
0C6306
0CFF86
0DE18C
0C000C
0C001C
7C01F8
7801F0
000000
ENDCHAR

STARTCHAR A6B9
ENCODING 42681
SWIDTH 960 0
DWIDTH 24 0
BBX 24 24 0 -4
BITMAP
000000
0C0000
0C0180
0C01C0
0C03C0
0C0760
7F8630
7F8C30
0C1818
0C300C
0CE606
0C0700
0F0180
1E00C0
7C0060
6C0000
0C0C00
0C0E00
0C0700
0C0180
0C00E0
7C0078
780018
000000
ENDCHAR

STARTCHAR A6BA
ENCODING 42682
SWIDTH 960 0
DWIDTH 24 0
BBX 24 24 0 -4
BITMAP
000000
3FF300
3FF300
030300
030300
0307FE
0307FE
030618
030C18
031C18
7FFC18
7FF630
030630
030630
030260
030360
0301E0
0301C0
0300C0
0301E0
030330
1F0618
1E0C0C
000000
ENDCHAR

STARTCHAR A6BB
ENCODING 42683
SWIDTH 960 0
DWIDTH 24 0
BBX 24 24 0 -4
BITMAP
000000
001800
000C00
7FFFFE
7FFFFE
038070
01C0E0
007380
001F00
003E00
00F780
078CF0
7C0C1E
000C00
07FFF0
07FFF0
000C00
000C00
1FFFFC
1FFFFC
000C00
000C00
000C00
000000
ENDCHAR

STARTCHAR A6BC
ENCODING 42684
SWIDTH 960 0
DWIDTH 24 0
BBX 24 24 0 -4
BITMAP
000000
000600
000600
7F8600
7F8C00
618FFE
619FFE
61B800
61B000
61E000
7F9FF0
7F9FF0
618030
618060
6181C0
618300
618600
7F8C00
7F9806
619806
001806
001FFE
000FFC
000000
ENDCHAR

STARTCHAR A6BD
ENCODING 42685
SWIDTH 960 0
DWIDTH 24 0
BBX 24 24 0 -4
BITMAP
000000
000030
000030
7F8030
7F8030
618030
618030
61BFFE
61BFFE
618030
7F8030
7F9830
618C30
618C30
618630
618630
618030
7F8030
7F8030
618030
000070
0003F0
0003E0
000000
ENDCHAR

STARTCHAR A6BE
ENCODING 42686
SWIDTH 960 0
DWIDTH 24 0
BBX 24 24 0 -4
BITMAP
000000
0FFFF0
0FFFF0
0C0030
0C0030
0FFFF0
0FFFF0
0C0030
0C0030
0FFFF0
0FFFF0
0C0030
000000
7FFFFE
7FFFFE
006300
006300
00C300
00C300
018300
030300
0E03FC
3801FC
000000
ENDCHAR

STARTCHAR A6BF
ENCODING 42687
SWIDTH 960 0
DWIDTH 24 0
BBX 24 24 0 -4
BITMAP
000000
0FFFF0
0FFFF0
0C0030
0C0030
0FFFF0
0FFFF0
0C0030
0C0030
0FFFF0
0FFFF0
0C3030
003000
003000
003000
003FF8
003FF8
003000
003000
003000
003000
7FFFFE
7FFFFE
000000
ENDCHAR

STARTCHAR A6C0
ENCODING 42688
SWIDTH 960 0
DWIDTH 24 0
BBX 24 24 0 -4
BITMAP
000000
1FFFF8
1FFFF8
180018
180018
1FFFF8
1FFFF8
180018
180018
1FFFF8
1FFFF8
180018
000000
0FFFC0
0FFFC0
000380
000E00
7FFFFE
7FFFFE
000C00
000C00
007C00
007800
000000
ENDCHAR

STARTCHAR A6C1
ENCODING 42689
SWIDTH 960 0
DWIDTH 24 0
BBX 24 24 0 -4
BITMAP
000000
003380
0030E0
003000
3FFFF8
3FFFF8
303018
303018
3FFFF8
3FFFF8
303018
303018
3FFFF8
3FFFF8
301818
000C00
000EE0
000780
001F86
00F1C6
0F80F6
78003E
00001C
000000
ENDCHAR

STARTCHAR A6C2
ENCODING 42690
SWIDTH 960 0
DWIDTH 24 0
BBX 24 24 0 -4
BITMAP
000000
061FFC
061FFC
06000C
06000C
06000C
7FE00C
7FEFFC
060FFC
060C00
0F1800
0F9800
1EDFFE
1EDFFE
361806
760006
660006
06000C
06000C
06000C
060018
0600F8
0600F0
000000
ENDCHAR

STARTCHAR A6C3
ENCODING 42691
SWIDTH 960 0
DWIDTH 24 0
BBX 24 24 0 -4
BITMAP
000000
060180
060180
060180
060180
060180
7FE180
7FEDB0
060DB0
0E0DB0
0F19B0
0F9998
1ED998
1E718C
36318C
763186
666186
066180
060180
060180
060180
060F80
060F00
000000
ENDCHAR

STARTCHAR A6C4
ENCODING 42692
SWIDTH 960 0
DWIDTH 24 0
BBX 24 24 0 -4
BITMAP
000000
060000
0600FC
0607E0
063F00
063300
7FE300
7FE300
060300
0E0300
0F9FFE
0FDFFE
1EE300
1E6300
360300
760300
660300
060300
060306
060306
060306
0603FE
0601FC
000000
ENDCHAR

STARTCHAR A6C5
ENCODING 42693
SWIDTH 960 0
DWIDTH 24 0
BBX 24 24 0 -4
BITMAP
000000
060000
067FF8
067FF8
060618
060618
7FC618
7FC618
063618
061E18
0F8E18
0FCE18
1EE618
1E6618
360C18
760C18
660C18
061818
061818
063018
063030
0661F0
06C1E0
000000
ENDCHAR

STARTCHAR A6C6
ENCODING 42694
SWIDTH 960 0
DWIDTH 24 0
BBX 24 24 0 -4
BITMAP
000000
060000
063FF0
063FF0
060630
060630
7FE630
7FE630
060630
0E0630
0F3FB0
0FBFB0
1EC630
1E4630
360630
360C30
660C30
060C36
060C36
061836
06183E
06301E
063000
000000
ENDCHAR

STARTCHAR A6C7
ENCODING 42695
SWIDTH 960 0
DWIDTH 24 0
BBX 24 24 0 -4
BITMAP
000000
1FFFFE
1FFFFE
180006
180006
1FFFFE
1FFFFE
180606
180600
180600
1FFFFE
1FFFFE
180600
180F00
181F80
1836C0
186660
31C638
33861C
36060E
300600
600600
400600
000000
ENDCHAR

STARTCHAR A6C8
ENCODING 42696
SWIDTH 960 0
DWIDTH 24 0
BBX 24 24 0 -4
BITMAP
000000
06003C
0603F0
063FC0
0638C0
0600C0
7FE0C0
7FE0C0
0600C0
0600C0
0F3FFE
0FBFFE
1EC0C0
1E40C0
3600C0
3600C0
6600C0
0600C0
0600C0
0600C0
0600C0
0600C0
0600C0
000000
ENDCHAR

STARTCHAR A6C9
ENCODING 42697
SWIDTH 960 0
DWIDTH 24 0
BBX 24 24 0 -4
BITMAP
000000
061806
0618C6
0618C6
0618C6
0618C6
7FD8C6
7FD8C6
0618C6
0E18C6
0F18C6
0F98C6
1ED8C6
1ED8C6
3618C6
3618C6
6618C6
4618C6
0630C6
063006
063006
066006
064006
000000
ENDCHAR

STARTCHAR A6CA
ENCODING 42698
SWIDTH 960 0
DWIDTH 24 0
BBX 24 24 0 -4
BITMAP
000000
018000
018000
03FFE0
07FFE0
0F8300
19C600
70EC00
003C00
00E780
0781F0
3C183C
001800
7FFFFE
7FFFFE
001800
0198C0
0198E0
031870
061838
1C181C
701808
001800
000000
ENDCHAR

STARTCHAR A6CB
ENCODING 42699
SWIDTH 960 0
DWIDTH 24 0
BBX 24 24 0 -4
BITMAP
000000
000030
300030
181830
0C1C30
040E30
000630
000230
600030
703030
181830
000C30
000630
000030
060030
06FFFE
0CFFFE
0C0030
180030
180030
300030
300030
600030
000000
ENDCHAR

STARTCHAR A6CC
ENCODING 42700
SWIDTH 960 0
DWIDTH 24 0
BBX 24 24 0 -4
BITMAP
000000
107FFC
387FFC
0C0018
060030
000E60
000760
0001C0
7000E0
38FFFE
18FFFE
000186
00018C
060198
0601B0
0C0180
0C0180
180180
180180
300180
300180
600F80
000F00
000000
ENDCHAR

STARTCHAR A6CD
ENCODING 42701
SWIDTH 960 0
DWIDTH 24 0
BBX 24 24 0 -4
BITMAP
000000
000000
38FFF0
0CFFF0
060C30
000C30
000C30
000C30
700C30
180C30
080C30
01FFFC
01FFFC
061860
061860
0C1860
0C1860
181860
181860
301860
301860
63FFFE
03FFFE
000000
ENDCHAR

STARTCHAR A6CE
ENCODING 42702
SWIDTH 960 0
DWIDTH 24 0
BBX 24 24 0 -4
BITMAP
000000
600000
31FFFE
19FFFE
0C0300
000300
000300
60FFFC
30FFFC
18C30C
0CC30C
00C30C
00C30C
00C30C
00C30C
06C30C
06C30C
0CC30C
0CC37C
18C378
380300
300300
600300
000000
ENDCHAR

STARTCHAR A6CF
ENCODING 42703
SWIDTH 960 0
DWIDTH 24 0
BBX 24 24 0 -4
BITMAP
000000
000600
380640
0C06E0
060630
000618
000600
01FFFE
61FFFE
300600
180600
000600
000618
000338
0C0370
0C03E0
0C0180
1803C0
180EC0
3018E6
307076
63C03E
00001C
000000
ENDCHAR

STARTCHAR A6D0
ENCODING 42704
SWIDTH 960 0
DWIDTH 24 0
BBX 24 24 0 -4
BITMAP
000000
000C00
380C00
1C1800
071FFE
001FFE
003006
003006
706006
38C006
1D9FF6
001FF6
000006
000006
030006
030006
063FF6
063FF6
0C0006
18000E
18000C
3001FC
0001F8
000000
ENDCHAR

STARTCHAR A6D1
ENCODING 42705
SWIDTH 960 0
DWIDTH 24 0
BBX 24 24 0 -4
BITMAP
000000
000180
383180
1C3180
063180
003180
007FFC
007FFC
606180
38C180
0CC180
000180
000180
00FFFE
06FFFE
060180
0C0180
0C0180
180180
300180
300180
600180
000180
000000
ENDCHAR

STARTCHAR A6D2
ENCODING 42706
SWIDTH 960 0
DWIDTH 24 0
BBX 24 24 0 -4
BITMAP
000000
000E00
380E00
0C0C00
060FFE
001FFE
001806
603006
703006
386606
0CC606
000C06
060D86
060D86
0618C6
0C18C6
0C3FE6
18F866
30002C
30000C
60001C
0000F8
0000F0
000000
ENDCHAR

STARTCHAR A6D3
ENCODING 42707
SWIDTH 960 0
DWIDTH 24 0
BBX 24 24 0 -4
BITMAP
000000
000600
300700
1C0700
060D80
0018C0
003060
006038
60C01C
398006
1C3FF0
003FF0
000000
000000
06FFFC
06FFFC
0C000C
0C0018
180030
180060
3000C0
600180
000300
000000
ENDCHAR

STARTCHAR A6D4
ENCODING 42708
SWIDTH 960 0
DWIDTH 24 0
BBX 24 24 0 -4
BITMAP
000000
003000
003800
001800
7FFFFE
7FFFFE
600006
601806
001800
001830
001860
3F99C0
3F9B00
019A00
031B00
031980
0618C0
061860
0C1830
18181C
30180E
60F800
00F000
000000
ENDCHAR

STARTCHAR A6D5
ENCODING 42709
SWIDTH 960 0
DWIDTH 24 0
BBX 24 24 0 -4
BITMAP
000000
001800
30180C
30180C
30180C
3FFFFC
3FFFFC
30000C
001800
00181C
3FD830
3FDAE0
00DB80
019B00
019980
0319C0
0318C0
061860
0C1838
18181C
701806
00F800
007800
000000
ENDCHAR

STARTCHAR A6D6
ENCODING 42710
SWIDTH 960 0
DWIDTH 24 0
BBX 24 24 0 -4
BITMAP
000000
303FFC
383FFC
1C300C
06300C
00300C
00300C
60300C
303FFC
1C3FFC
0C330C
003300
003180
063180
0630C0
0660C0
0C6060
0C6060
18C030
18C018
31800C
630006
060000
000000
ENDCHAR

STARTCHAR A6D7
ENCODING 42711
SWIDTH 960 0
DWIDTH 24 0
BBX 24 24 0 -4
BITMAP
000000
000030
303060
183060
0C1860
018CC6
018CC6
018786
718386
398306
0D8386
018786
0186C6
018EC6
078C66
0D9866
0D9836
19B036
198006
318006
31FFFE
61FFFE
018006
000000
ENDCHAR

STARTCHAR A6D8
ENCODING 42712
SWIDTH 960 0
DWIDTH 24 0
BBX 24 24 0 -4
BITMAP
000000
000600
380600
1E0C00
060C00
000C00
001800
601FFE
783FFE
1C3030
087030
007860
00D860
068C60
060CC0
0606C0
0C07C0
0C0380
180380
1806C0
301C60
607038
01C01C
000000
ENDCHAR

STARTCHAR A6D9
ENCODING 42713
SWIDTH 960 0
DWIDTH 24 0
BBX 24 24 0 -4
BITMAP
000000
001FE0
381FE0
0E1860
061860
001860
003060
603060
78607E
1C603E
08C000
000000
00FFF8
06FFF8
063030
063830
0C1C60
0C0EC0
180780
180780
300DE0
603878
00E01E
000000
ENDCHAR

STARTCHAR A6DA
ENCODING 42714
SWIDTH 960 0
DWIDTH 24 0
BBX 24 24 0 -4
BITMAP
000000
001800
381800
1C1800
063FFC
003FFC
006018
006618
70C630
38C630
1D8600
000700
000F00
000D80
061980
0618C0
0C30C0
0C3060
186030
186018
30C00C
618006
030000
000000
ENDCHAR

STARTCHAR A6DB
ENCODING 42715
SWIDTH 960 0
DWIDTH 24 0
BBX 24 24 0 -4
BITMAP
000000
0000FC
1C3FE0
0E3E00
073000
003000
003FFE
003FFE
703006
383006
0C3006
003006
003FFE
033FFE
033006
066000
066000
0C6000
0CC000
18C000
318000
618000
030000
000000
ENDCHAR

STARTCHAR A6DC
ENCODING 42716
SWIDTH 960 0
DWIDTH 24 0
BBX 24 24 0 -4
BITMAP
000000
000070
3807E0
1CFE60
06CC60
00CC60
00CC60
00CC60
70CC60
38CC60
0CCC60
00CC60
00CC60
04CC30
04CC30
0CCC30
0D8C18
198C18
198C18
330C0C
330C0C
660C06
060C06
000000
ENDCHAR

STARTCHAR A6DD
ENCODING 42717
SWIDTH 960 0
DWIDTH 24 0
BBX 24 24 0 -4
BITMAP
000000
0000C0
1800C0
0E0CC0
070CC0
000C60
001860
001860
703030
383030
0C6018
006018
00C60C
008606
060600
060C00
0C0C00
0C0C30
181818
38180C
7030FC
603FE6
00F806
000000
ENDCHAR

STARTCHAR A6DE
ENCODING 42718
SWIDTH 960 0
DWIDTH 24 0
BBX 24 24 0 -4
BITMAP
000000
030018
0300F0
0307C0
033F00
030300
632300
636300
334300
330300
337FFE
037FFE
030300
030300
060300
070300
07C300
0CE300
0C3306
180306
180306
3003FE
6001FC
000000
ENDCHAR

STARTCHAR A6DF
ENCODING 42719
SWIDTH 960 0
DWIDTH 24 0
BBX 24 24 0 -4
BITMAP
000000
001800
001800
301818
301830
181C60
0C3600
006300
00C180
0180C0
070070
0C0038
31818C
018180
7FFFFE
7FFFFE
018180
018180
030180
030180
060180
060180
0C0180
000000
ENDCHAR

STARTCHAR A6E0
ENCODING 42720
SWIDTH 960 0
DWIDTH 24 0
BBX 24 24 0 -4
BITMAP
000000
003000
003800
001800
7FFFFE
7FFFFE
600006
601806
601806
001800
0C1818
0C1830
061C60
063C40
033600
006600
006300
00C180
0180C0
030070
0E0038
18001C
700006
000000
ENDCHAR

STARTCHAR A6E1
ENCODING 42721
SWIDTH 960 0
DWIDTH 24 0
BBX 24 24 0 -4
BITMAP
000000
030180
030180
030180
030300
6333FE
7337FE
336606
334C06
13180C
033E0C
03630C
030198
0600D8
060070
070060
0780C0
0CE180
0C3300
180600
380C00
303800
606000
000000
ENDCHAR

STARTCHAR A6E2
ENCODING 42722
SWIDTH 960 0
DWIDTH 24 0
BBX 24 24 0 -4
BITMAP
000000
0FFFF0
0FFFF0
000030
000030
7FFFFE
7FFFFE
000030
000030
0FFFF0
0FFFF0
001800
18180C
181818
0C1C30
0C1E60
063700
006380
00C1C0
018060
030038
0E001C
380006
000000
ENDCHAR

STARTCHAR A6E3
ENCODING 42723
SWIDTH 960 0
DWIDTH 24 0
BBX 24 24 0 -4
BITMAP
000000
001800
001800
001800
0FFFF0
0FFFF0
001800
001800
7FFFFE
7FFFFE
000000
001800
0C1800
0C180C
061C38
061E60
033700
006380
00C0C0
018060
030038
0E001C
380006
000000
ENDCHAR

STARTCHAR A6E4
ENCODING 42724
SWIDTH 960 0
DWIDTH 24 0
BBX 24 24 0 -4
BITMAP
000000
018000
198180
1981C0
1980E0
198060
1FFFFE
3FFFFE
318C00
318C00
618C00
018C00
018C00
03EC00
1F8C00
798C00
018C00
018C00
018C00
018C06
018C06
018FFE
0187FC
000000
ENDCHAR

STARTCHAR A6E5
ENCODING 42725
SWIDTH 960 0
DWIDTH 24 0
BBX 24 24 0 -4
BITMAP
000000
018000
198FFC
198FFC
1980C0
1980C0
1FF0C0
3FF0C0
3180C0
3180C0
619FFE
019FFE
0180C0
01F0C0
0FC0C0
7D80C0
7180C0
0180C0
0180C0
0180C0
0180C0
0180C0
0180C0
000000
ENDCHAR

STARTCHAR A6E6
ENCODING 42726
SWIDTH 960 0
DWIDTH 24 0
BBX 24 24 0 -4
BITMAP
000000
100180
18C180
0D8180
070180
0E7FFE
1E7FFE
760180
030180
033FFC
033FFC
07318C
07318C
0F318C
1B318C
73318C
03318C
03318C
03318C
0331BC
0731B8
3E0180
3C0180
000000
ENDCHAR

STARTCHAR A6E7
ENCODING 42727
SWIDTH 960 0
DWIDTH 24 0
BBX 24 24 0 -4
BITMAP
000000
300060
38FF60
1BFF60
0F0360
0C0660
1E3C60
761860
660C60
060DE0
060F60
071E60
0F7660
1BC660
330660
630660
430660
030660
030666
030666
060E66
1E7C7E
1C783C
000000
ENDCHAR

STARTCHAR A6E8
ENCODING 42728
SWIDTH 960 0
DWIDTH 24 0
BBX 24 24 0 -4
BITMAP
000000
300180
198180
1B0180
0E0180
1C0180
3E7FFE
767FFE
060180
0603C0
0603C0
0607E0
0F0DB0
1F0DB0
3B1998
733198
63618C
03C186
030180
030180
070180
1E0180
1C0180
000000
ENDCHAR

STARTCHAR A6E9
ENCODING 42729
SWIDTH 960 0
DWIDTH 24 0
BBX 24 24 0 -4
BITMAP
000000
300300
188360
1D8360
0F0330
0C0318
1E0300
367FFE
667FFE
0303C0
0303C0
0703C0
0F06C0
0D86C0
1986C0
318CC0
618CC0
018CC0
0198C6
0318C6
0730C6
3E60FE
3CC07C
000000
ENDCHAR

STARTCHAR A6EA
ENCODING 42730
SWIDTH 960 0
DWIDTH 24 0
BBX 24 24 0 -4
BITMAP
000000
000300
318360
1B8370
0F0338
0E0318
1E0300
360300
667FFC
067FFC
060300
070300
0F0380
0F0780
1B06C0
330CC0
630C60
431830
031830
033018
06300C
3E600C
3CC006
000000
ENDCHAR

STARTCHAR A6EB
ENCODING 42731
SWIDTH 960 0
DWIDTH 24 0
BBX 24 24 0 -4
BITMAP
000000
030300
030360
030330
030318
63030C
730300
1F0300
077FFC
037FFC
030300
030380
030380
0F0780
1B06C0
330CC0
630C60
031860
031830
033038
03301C
03600E
034006
000000
ENDCHAR

STARTCHAR A6EC
ENCODING 42732
SWIDTH 960 0
DWIDTH 24 0
BBX 24 24 0 -4
BITMAP
000000
300180
39819C
1B81F8
0F1FE0
0C7F80
1E0180
360180
66318C
03318C
03318C
07318C
0F318C
1B318C
333FFC
633FFC
43318C
030180
030186
030186
070186
1E01FE
1C01FC
000000
ENDCHAR

STARTCHAR A6ED
ENCODING 42733
SWIDTH 960 0
DWIDTH 24 0
BBX 24 24 0 -4
BITMAP
000000
30007C
18CFF0
0D8F80
070C00
0E0C00
1E0C00
360C00
630FFE
030FFE
030C30
070C30
070C30
0D8C30
198C30
318C30
618C30
018C30
018C30
019830
031830
1F3030
1E2030
000000
ENDCHAR

STARTCHAR A6EE
ENCODING 42734
SWIDTH 960 0
DWIDTH 24 0
BBX 24 24 0 -4
BITMAP
000000
7FEFFC
7FEFFC
06000C
06000C
06000C
06000C
06000C
06000C
3FC7FC
3FC7FC
06060C
060600
060600
060600
060600
06E600
078600
1E0606
780606
000606
0007FE
0003FC
000000
ENDCHAR

STARTCHAR A6EF
ENCODING 42735
SWIDTH 960 0
DWIDTH 24 0
BBX 24 24 0 -4
BITMAP
000000
000000
7FEFFE
7FEFFE
03000C
030038
030360
0301C0
0300C0
3FE0C0
3FFFFE
031FFE
0300C0
0300C0
0300C0
0300C0
0300C0
03E0C0
1F00C0
7C00C0
0000C0
0007C0
000780
000000
ENDCHAR

STARTCHAR A6F0
ENCODING 42736
SWIDTH 960 0
DWIDTH 24 0
BBX 24 24 0 -4
BITMAP
000000
001FFC
001FFC
7FE000
7FE000
060000
060000
067FFE
067FFE
060300
3FC300
3FC300
0607FE
0607FE
060606
060006
060006
06E006
078006
1E000C
78001C
0001F8
0001F0
000000
ENDCHAR

STARTCHAR A6F1
ENCODING 42737
SWIDTH 960 0
DWIDTH 24 0
BBX 24 24 0 -4
BITMAP
000000
003FF0
7FFFF0
7FE630
060630
060630
060630
060630
060630
3FD630
3FDE30
060F30
0607B0
0606B0
060630
060C30
060C36
07CC36
0F0C36
701836
00183E
00301C
002000
000000
ENDCHAR

STARTCHAR A6F2
ENCODING 42738
SWIDTH 960 0
DWIDTH 24 0
BBX 24 24 0 -4
BITMAP
000000
000300
7FE300
7FE300
666300
666300
666300
666300
666380
666380
7FE780
7FE780
666780
666CC0
666CC0
666C60
666C60
7FF830
7FF830
003018
00600C
00C006
018000
000000
ENDCHAR

STARTCHAR A6F3
ENCODING 42739
SWIDTH 960 0
DWIDTH 24 0
BBX 24 24 0 -4
BITMAP
000000
000600
000700
000300
07FFFE
07FFFE
460000
660000
367FF0
367FF0
161830
061830
061860
061860
1E307E
3630FE
6630C6
0C6006
0C6006
0CC006
18C00E
1980FC
1300F8
000000
ENDCHAR

STARTCHAR A6F4
ENCODING 42740
SWIDTH 960 0
DWIDTH 24 0
BBX 24 24 0 -4
BITMAP
000000
007000
00C000
1FFFF0
1FFFF0
180030
180030
1FFFF0
1FFFF0
180030
180030
180030
1FFFF0
1FFFF0
0C0000
0C0000
0C07E0
0C7E00
0FE000
0C0006
0C0006
0FFFFE
07FFFC
000000
ENDCHAR

STARTCHAR A6F5
ENCODING 42741
SWIDTH 960 0
DWIDTH 24 0
BBX 24 24 0 -4
BITMAP
000000
001800
003000
1FFFF8
1FFFF8
180018
180018
1FFFF8
1FFFF8
180018
180018
1FFFF8
1FFFF8
186018
006000
00C000
00C000
018060
018030
030038
0607FC
1FFE0E
0E0006
000000
ENDCHAR

STARTCHAR A6F6
ENCODING 42742
SWIDTH 960 0
DWIDTH 24 0
BBX 24 24 0 -4
BITMAP
000000
000C00
001800
1FFFF8
1FFFF8
180018
180018
180018
1FFFF8
1FFFF8
180018
180018
180018
1FFFF8
1FFFF8
18C318
00C300
018300
018306
030306
060306
1C03FE
7801FC
000000
ENDCHAR

STARTCHAR A6F7
ENCODING 42743
SWIDTH 960 0
DWIDTH 24 0
BBX 24 24 0 -4
BITMAP
000000
006000
006000
006000
006000
007000
007C00
006E00
006380
0060C0
006000
006000
006000
006000
1FFFF8
1FFFF8
18C618
18C618
18C618
18C618
18C618
7FFFFE
7FFFFE
000000
ENDCHAR

STARTCHAR A6F8
ENCODING 42744
SWIDTH 960 0
DWIDTH 24 0
BBX 24 24 0 -4
BITMAP
000000
1FFF80
1FFF80
00C180
00C300
00C3FC
0183FC
01860C
03000C
03000C
060018
0C00F8
1800F0
000000
1FFFF0
1FFFF0
18C630
18C630
18C630
18C630
18C630
7FFFFE
7FFFFE
000000
ENDCHAR

STARTCHAR A6F9
ENCODING 42745
SWIDTH 960 0
DWIDTH 24 0
BBX 24 24 0 -4
BITMAP
000000
7FBFFE
7FBFFE
618600
618600
618600
618C00
7F8C00
7F9FFC
619FFC
61980C
61800C
61800C
7F800C
7F800C
61800C
61800C
61800C
7F800C
7F800C
618018
0001F8
0001F0
000000
ENDCHAR

STARTCHAR A6FA
ENCODING 42746
SWIDTH 960 0
DWIDTH 24 0
BBX 24 24 0 -4
BITMAP
000000
000600
3FF600
3FF600
060600
060600
06061C
0C06F0
0C07C0
0FE600
1FE600
1C6600
3C6600
3C6600
6C6600
0C6600
0C6600
0C6600
0FE606
0FE606
0C6606
0C07FE
0003FC
000000
ENDCHAR

STARTCHAR A6FB
ENCODING 42747
SWIDTH 960 0
DWIDTH 24 0
BBX 24 24 0 -4
BITMAP
000000
3FEFFE
3FEFFE
060060
060060
060060
0C0060
0C0060
0C0060
1FE060
1FE060
1C6060
3C6060
3C6060
6C6060
0C6060
0C6060
0C6060
0FE060
0FE060
0C6060
0C03E0
0003C0
000000
ENDCHAR

STARTCHAR A6FC
ENCODING 42748
SWIDTH 960 0
DWIDTH 24 0
BBX 24 24 0 -4
BITMAP
000000
3FF806
3FF806
0300C6
0600C6
0600C6
0600C6
0C00C6
0C00C6
1FF8C6
1FF8C6
1C18C6
3C18C6
3C18C6
6C18C6
0C18C6
0C18C6
0C1806
0FF806
0FF806
0C1806
0C003E
0C003C
000000
ENDCHAR

STARTCHAR A6FD
ENCODING 42749
SWIDTH 960 0
DWIDTH 24 0
BBX 24 24 0 -4
BITMAP
000000
03BFF0
0F3FF0
7E0C30
060C30
060C30
060C60
7FEC60
7FEC60
060CFE
070CFE
0F9986
0ED806
1E5806
1E1806
361806
361806
66300C
06300C
06300C
066018
0660F8
0640F0
000000
ENDCHAR

STARTCHAR A6FE
ENCODING 42750
SWIDTH 960 0
DWIDTH 24 0
BBX 24 24 0 -4
BITMAP
000000
0C0000
060FE0
060FE0
030C60
030C60
7FEC60
7FEC60
000C60
00CC60
30CC60
30CC60
18CC60
18CC60
18CC60
0D8C60
0D8C60
0D9860
031866
03D866
1F1866
7C307E
00203C
000000
ENDCHAR

STARTCHAR A7A1
ENCODING 42913
SWIDTH 960 0
DWIDTH 24 0
BBX 24 24 0 -4
BITMAP
000000
0C00C0
0600C0
0600C0
0300C0
0300C0
7FF0C0
7FF0C0
001FFE
001FFE
30C0C0
18C0C0
18C0C0
18C0C0
1980C0
0980C0
0D80C0
0D80C0
0D80C0
0078C0
03E0C0
1F00C0
7000C0
000000
ENDCHAR

STARTCHAR A7A2
ENCODING 42914
SWIDTH 960 0
DWIDTH 24 0
BBX 24 24 0 -4
BITMAP
000000
020600
070600
0E0600
0C0600
18C600
318600
7B0600
1F0600
060600
0D8600
18C600
33C600
7EE600
004600
060600
36C600
36C606
36C606
766606
66670C
6667FC
0003F8
000000
ENDCHAR

STARTCHAR A7A3
ENCODING 42915
SWIDTH 960 0
DWIDTH 24 0
BBX 24 24 0 -4
BITMAP
000000
1FC000
1FDFFC
18DFFC
18C000
18C000
18C000
1EFFFE
1BFFFE
18C600
18C600
18C600
1BC7FC
1ECFFC
18CC0C
18C00C
18C00C
18C00C
30C018
30C018
30C038
67C1F0
4781E0
000000
ENDCHAR

STARTCHAR A7A4
ENCODING 42916
SWIDTH 960 0
DWIDTH 24 0
BBX 24 24 0 -4
BITMAP
000000
1FC600
1FC600
18C600
18C600
18CC00
18CFFE
1EDFFE
1BD806
18D806
18F006
18C606
18C306
1BC186
1EC0C6
18C006
18C006
38C006
30C006
30C006
30C006
67C07E
67807C
000000
ENDCHAR

STARTCHAR A7A5
ENCODING 42917
SWIDTH 960 0
DWIDTH 24 0
BBX 24 24 0 -4
BITMAP
000000
1FC300
1FC300
18C300
18C300
18C318
18FFFE
1EFFFE
1BC318
18C318
18C618
18C618
18C618
1BCC30
1ECC30
18CC30
18DFB0
18D9E0
30C070
30C1F8
30C31C
67CE06
479806
000000
ENDCHAR

STARTCHAR A7A6
ENCODING 42918
SWIDTH 960 0
DWIDTH 24 0
BBX 24 24 0 -4
BITMAP
000000
1FC0C0
1FC0C0
18CCC0
18CCC0
18CCC6
18CCDE
1ECCF6
1BCFC6
18DEC6
18FCC6
18CCC6
18CCC6
1BCCC6
1ECCDE
18CCDC
18CCC0
18CCC0
30CC06
30CC06
30CC06
67CFFE
6787FC
000000
ENDCHAR

STARTCHAR A7A7
ENCODING 42919
SWIDTH 960 0
DWIDTH 24 0
BBX 24 24 0 -4
BITMAP
000000
030060
030060
7FE7FE
7FE7FE
030060
030060
000C00
000C00
000C00
000C00
000C00
060C60
060C30
0C0C18
180C0C
300C0E
600C06
000C00
000C00
000C00
00FC00
00F800
000000
ENDCHAR

STARTCHAR A7A8
ENCODING 42920
SWIDTH 960 0
DWIDTH 24 0
BBX 24 24 0 -4
BITMAP
000000
030060
030060
7FE7FE
7FE7FE
030060
000000
030060
033060
019860
018CC0
00CCC0
00C180
006180
003300
001E00
001C00
003600
006300
01C1C0
070078
1C001E
700000
000000
ENDCHAR

STARTCHAR A7A9
ENCODING 42921
SWIDTH 960 0
DWIDTH 24 0
BBX 24 24 0 -4
BITMAP
000000
030060
030060
7FE7FE
7FE7FE
030060
000000
03FFE0
03FFE0
000000
000000
7FFFFE
7FFFFE
030000
030000
07FFF8
07FFF8
060018
000018
000018
000038
0003F0
0003E0
000000
ENDCHAR

STARTCHAR A7AA
ENCODING 42922
SWIDTH 960 0
DWIDTH 24 0
BBX 24 24 0 -4
BITMAP
000000
060060
060060
7FE7FE
7FE7FE
060060
000000
3FFFF8
3FFFF8
000018
300018
300018
300018
3FFFF8
3FFFF8
300000
300000
300006
300006
300006
30000E
3FFFFC
1FFFF8
000000
ENDCHAR

STARTCHAR A7AB
ENCODING 42923
SWIDTH 960 0
DWIDTH 24 0
BBX 24 24 0 -4
BITMAP
000000
060060
060060
7FE7FE
7FE7FE
061860
001800
003000
003FFC
007FFC
00E00C
01C00C
038018
076018
0C3830
180E60
0003C0
000380
000700
001C00
007800
03C000
1F0000
000000
ENDCHAR

STARTCHAR A7AC
ENCODING 42924
SWIDTH 960 0
DWIDTH 24 0
BBX 24 24 0 -4
BITMAP
000000
060060
060060
7FE7FE
7FE7FE
060060
000000
00C000
00C000
00FFE0
01FFE0
018060
0380C0
06C0C0
0CE180
187300
003E00
001C00
003F00
00E380
0380E0
1E0038
70000E
000000
ENDCHAR

STARTCHAR A7AD
ENCODING 42925
SWIDTH 960 0
DWIDTH 24 0
BBX 24 24 0 -4
BITMAP
000000
060300
060300
060300
060300
060300
7FE300
7FE300
666300
666300
666300
666300
666300
7FE300
7FE300
660300
060300
06C300
066306
063306
07F306
7E33FE
7011FC
000000
ENDCHAR

STARTCHAR A7AE
ENCODING 42926
SWIDTH 960 0
DWIDTH 24 0
BBX 24 24 0 -4
BITMAP
000000
000038
0003F0
00FF80
3FF800
3C1800
001800
001800
1FFFF8
1FFFF8
181818
181818
181818
1FFFF8
1FFFF8
181818
001800
001830
001818
001818
001FFC
7FFF86
7F0006
000000
ENDCHAR

STARTCHAR A7AF
ENCODING 42927
SWIDTH 960 0
DWIDTH 24 0
BBX 24 24 0 -4
BITMAP
000000
000C00
001800
007180
01E380
070E20
003870
00E1E0
0F0700
003C00
01EC00
0F0C00
000C00
030C00
030FF8
030FF8
030C00
070C00
078C00
0DCC00
18EC00
303FFE
600FFE
000000
ENDCHAR

STARTCHAR A7B0
ENCODING 42928
SWIDTH 960 0
DWIDTH 24 0
BBX 24 24 0 -4
BITMAP
000000
300300
180300
0C0300
0C0300
000300
00FFFC
00FFFC
7E0300
7E0780
060780
060CC0
0C0CC0
0C1860
181860
383030
1C3018
0C6018
0CC00C
0D8006
1E0000
33FFFE
61FFFE
000000
ENDCHAR

STARTCHAR A7B1
ENCODING 42929
SWIDTH 960 0
DWIDTH 24 0
BBX 24 24 0 -4
BITMAP
000000
300060
180060
0C0060
0C0060
000060
00FFFE
00FFFE
7E0060
7E0060
063060
061860
0C0860
0C0C60
180460
380060
1C0060
0C0060
0C03E0
0C03C0
1E0000
33FFFE
61FFFE
000000
ENDCHAR

STARTCHAR A7B2
ENCODING 42930
SWIDTH 960 0
DWIDTH 24 0
BBX 24 24 0 -4
BITMAP
000000
300000
183FFC
0C3FFC
0C0018
000030
0006E0
000380
7E0300
7E0180
06FFFE
06FFFE
0C0180
0C0180
180180
380180
1C0180
0C0180
0C1F80
0C1F00
1E0000
33FFFE
61FFFE
000000
ENDCHAR

STARTCHAR A7B3
ENCODING 42931
SWIDTH 960 0
DWIDTH 24 0
BBX 24 24 0 -4
BITMAP
000000
30003C
1801F0
0C0FC0
0C7D80
000180
000180
000180
7E0180
7EFFFE
06FFFE
060180
0C0180
0C0180
180180
380180
1C0180
0C0180
0C0180
0C0180
1E0000
33FFFE
61FFFE
000000
ENDCHAR

STARTCHAR A7B4
ENCODING 42932
SWIDTH 960 0
DWIDTH 24 0
BBX 24 24 0 -4
BITMAP
000000
0181FE
0181FE
018186
018186
618D8C
618D8C
319998
319998
19B1B0
19B198
018198
03C18C
03C186
036186
066186
063186
063186
0C19BE
0C19BC
180980
300180
200180
000000
ENDCHAR

STARTCHAR A7B5
ENCODING 42933
SWIDTH 960 0
DWIDTH 24 0
BBX 24 24 0 -4
BITMAP
000000
00FC00
1FF1FE
1F01FE
180186
180186
18018C
18018C
180198
1FFD98
1FFDB0
186198
18618C
186186
186186
186186
186186
186186
3061BC
3061BC
306180
606180
406180
000000
ENDCHAR

STARTCHAR A7B6
ENCODING 42934
SWIDTH 960 0
DWIDTH 24 0
BBX 24 24 0 -4
BITMAP
000000
1FF9FE
1FF9FE
000186
000186
00018C
00018C
000198
7FFF98
7FFFB0
0301B8
030198
03018C
06018C
060186
0C6186
0C3186
181986
1819BE
30FDBC
3F8D80
7C0D80
000180
000000
ENDCHAR

STARTCHAR A7B7
ENCODING 42935
SWIDTH 960 0
DWIDTH 24 0
BBX 24 24 0 -4
BITMAP
000000
0181FE
0181FE
018186
018186
01818C
3FFD8C
3FFD8C
018198
01C198
03C1B0
07E198
07B18C
0DB18C
0D9986
199986
318D86
618586
0181BE
0181BC
018180
018180
018180
000000
ENDCHAR

STARTCHAR A7B8
ENCODING 42936
SWIDTH 960 0
DWIDTH 24 0
BBX 24 24 0 -4
BITMAP
000000
1FF9FE
1FF9FE
181986
1A1986
1B198C
19998C
18D998
181998
1819B0
181998
7FFF98
7FFF8C
18198C
181986
181986
181986
301986
3019BC
3019BC
601980
60F980
40F180
000000
ENDCHAR

STARTCHAR A7B9
ENCODING 42937
SWIDTH 960 0
DWIDTH 24 0
BBX 24 24 0 -4
BITMAP
000000
0301FE
0301FE
030186
7FF986
7FF98C
03018C
030188
631998
6319B0
631998
631988
63198C
631984
631986
7FF986
7FF986
631986
0301BC
0301BC
030180
03F980
01F180
000000
ENDCHAR

STARTCHAR A7BA
ENCODING 42938
SWIDTH 960 0
DWIDTH 24 0
BBX 24 24 0 -4
BITMAP
000000
7F8030
7F8030
619830
618C30
630630
630330
630130
660030
663030
6C1830
660E30
630630
630030
618030
61BFFE
61BFFE
618030
638030
7F0030
6E0030
600030
600030
000000
ENDCHAR

STARTCHAR A7BB
ENCODING 42939
SWIDTH 960 0
DWIDTH 24 0
BBX 24 24 0 -4
BITMAP
000000
7F8180
7F8180
618180
618180
633186
63318C
62318C
661998
661998
6C1990
661180
6303C0
6303C0
618360
618660
618630
618C30
618C18
7F1818
6E180C
603006
600002
000000
ENDCHAR

STARTCHAR A7BC
ENCODING 42940
SWIDTH 960 0
DWIDTH 24 0
BBX 24 24 0 -4
BITMAP
000000
7F8000
7FFFFE
61FFFE
6180C0
6180C0
630180
630180
660380
6C07A0
6607B0
630D98
63198C
61B186
61A186
618180
618180
618180
638180
7F0180
7E0180
600180
600180
000000
ENDCHAR

STARTCHAR A7BD
ENCODING 42941
SWIDTH 960 0
DWIDTH 24 0
BBX 24 24 0 -4
BITMAP
000000
7F8000
7F9FFE
619FFE
619806
631806
631806
631806
661806
661806
6C1FFE
661FFE
631806
619806
619806
619806
619806
619806
639806
7F1FFE
7E1FFE
601806
600000
000000
ENDCHAR

STARTCHAR A7BE
ENCODING 42942
SWIDTH 960 0
DWIDTH 24 0
BBX 24 24 0 -4
BITMAP
000000
7F8FFE
7F8FFE
618C06
618C06
618C06
630C06
630FFE
660FFE
660C06
6C0C06
660C06
630C06
618FFE
618FFE
618C06
618C06
618C06
619806
7F9806
6F3006
60303E
60603C
000000
ENDCHAR

STARTCHAR A7BF
ENCODING 42943
SWIDTH 960 0
DWIDTH 24 0
BBX 24 24 0 -4
BITMAP
000000
7F8130
7F83B0
619E30
61FC30
630C30
630C30
630C30
660C30
660C30
6CFFFE
66FFFE
630C30
618C30
618C30
618C30
619830
619830
619830
7FB030
6F3030
606030
604030
000000
ENDCHAR

STARTCHAR A7C0
ENCODING 42944
SWIDTH 960 0
DWIDTH 24 0
BBX 24 24 0 -4
BITMAP
000000
7FE7FE
7FE7FE
000000
000000
000000
3FE7FC
3FE7FC
30660C
30660C
30670C
3E67CC
3766EC
31666C
30660C
30660C
30660C
30660C
30660C
30660C
30660C
33E67C
33C678
000000
ENDCHAR

STARTCHAR A7C1
ENCODING 42945
SWIDTH 960 0
DWIDTH 24 0
BBX 24 24 0 -4
BITMAP
000000
3FF7FE
3FF7FE
003006
00600C
1CC398
0F81F8
030070
01C038
7FFFFE
7FFFFE
033066
033066
03606C
03C078
030060
030060
030060
030060
030060
030060
1F03E0
1E03C0
000000
ENDCHAR

STARTCHAR A7C2
ENCODING 42946
SWIDTH 960 0
DWIDTH 24 0
BBX 24 24 0 -4
BITMAP
000000
003000
003000
006000
006000
00C180
00C0C0
07FFC0
07FFE0
0300C0
0600C0
06418C
0C618C
1FF7FE
3FF7FE
003006
000000
1FFFF8
1FFFF8
000000
000000
7FFFFE
7FFFFE
000000
ENDCHAR

STARTCHAR A7C3
ENCODING 42947
SWIDTH 960 0
DWIDTH 24 0
BBX 24 24 0 -4
BITMAP
000000
030600
030600
037FF8
067FF8
060618
060618
0CFFFE
0CFFFE
1C0618
1C0618
3C7FF8
6C7FF8
4C0600
0C0600
0CFFF8
0CFFF8
0C0600
0C0600
0DFFFC
0DFFFC
0C0600
0C0600
000000
ENDCHAR

STARTCHAR A7C4
ENCODING 42948
SWIDTH 960 0
DWIDTH 24 0
BBX 24 24 0 -4
BITMAP
000000
018300
018300
018300
03630C
036318
063318
063330
0E1300
0E0300
1EFFFE
1EFFFE
360CC0
660CC0
460CC0
060CC0
0618C0
0618C0
0618C0
0630C6
0630C6
0660FE
06C07C
000000
ENDCHAR

STARTCHAR A7C5
ENCODING 42949
SWIDTH 960 0
DWIDTH 24 0
BBX 24 24 0 -4
BITMAP
000000
018300
018318
0183F0
031FC0
037B00
060300
060300
0E7FF8
0E7FF8
1E0300
1E0300
360300
67FFFE
47FFFE
060780
060FC0
061F60
063B30
067318
06C30C
078306
060300
000000
ENDCHAR

STARTCHAR A7C6
ENCODING 42950
SWIDTH 960 0
DWIDTH 24 0
BBX 24 24 0 -4
BITMAP
000000
06FFF0
06FFF0
06C030
06C030
0CFFF0
0CFFF0
0CCC30
1CCC30
1CCFB0
3CDFB0
3CD9B0
6CF1B0
0CFDB0
0CEF30
0CC330
0CC330
0D8630
0D8636
0D8C36
0F183E
0E301C
0C6000
000000
ENDCHAR

STARTCHAR A7C7
ENCODING 42951
SWIDTH 960 0
DWIDTH 24 0
BBX 24 24 0 -4
BITMAP
000000
018C00
018C00
018FF8
031FF8
031830
073C60
0666C0
0EC380
0E07C0
1E1CF0
3E70DC
76C0CE
463FFC
063FFC
0630C0
0630C0
0630C0
063FFE
063FFE
0600C0
0600C0
0600C0
000000
ENDCHAR

STARTCHAR A7C8
ENCODING 42952
SWIDTH 960 0
DWIDTH 24 0
BBX 24 24 0 -4
BITMAP
000000
018180
018180
01A18C
03319C
033198
0619B8
0619B0
0E0180
0EFFFE
1EFFFE
3E0180
760180
460DB0
060DB0
061998
063998
06718C
06E18C
07C186
060180
060180
060180
000000
ENDCHAR

STARTCHAR A7C9
ENCODING 42953
SWIDTH 960 0
DWIDTH 24 0
BBX 24 24 0 -4
BITMAP
000000
030300
030300
030300
070300
06FFFC
0EFFFC
0C0300
1C6318
1C6318
3C3330
3C1B60
6DFFFE
0DFFFE
0C0780
0C0780
0C06C0
0C0CE0
0C0C60
0C1830
0C3018
0C600C
0CC006
000000
ENDCHAR

STARTCHAR A7CA
ENCODING 42954
SWIDTH 960 0
DWIDTH 24 0
BBX 24 24 0 -4
BITMAP
000000
03FFFC
03FFFC
030300
060300
067FF8
0E7FF8
0C6318
1C6318
1C6318
3DFFFE
3DFFFE
6C6318
0C6318
0C6318
0DFFFE
0DFFFE
0C6018
0C6018
0C6018
0C6018
0C60F8
0C6070
000000
ENDCHAR

STARTCHAR A7CB
ENCODING 42955
SWIDTH 960 0
DWIDTH 24 0
BBX 24 24 0 -4
BITMAP
000000
018000
018000
03FFFE
037FFE
030660
070660
067FFE
0E7FFE
0E6666
1E6666
3E6666
766666
066666
066666
066666
066666
066666
066666
066666
067FFE
067FFE
066006
000000
ENDCHAR

STARTCHAR A7CC
ENCODING 42956
SWIDTH 960 0
DWIDTH 24 0
BBX 24 24 0 -4
BITMAP
000000
018180
018180
018300
03FFFE
037FFE
070300
060600
0E0600
0E0FFC
1E1FFC
3E3818
7678F0
66F8E0
06D860
061FFE
061FFE
061860
061860
061860
061860
0619E0
0619C0
000000
ENDCHAR

STARTCHAR A7CD
ENCODING 42957
SWIDTH 960 0
DWIDTH 24 0
BBX 24 24 0 -4
BITMAP
000000
018000
01BFFC
01BFFC
03B00C
03300C
07300C
06300C
0E3FFC
1E3FFC
1E0000
360000
760000
067FFE
067FFE
066006
066006
066006
066006
066006
067FFE
067FFE
066006
000000
ENDCHAR

STARTCHAR A7CE
ENCODING 42958
SWIDTH 960 0
DWIDTH 24 0
BBX 24 24 0 -4
BITMAP
000000
030000
037FFE
037FFE
036006
066006
066006
066006
0E6006
0E6006
1E7FFE
367FFE
361886
6619C6
06318C
063398
066318
066318
066318
06318C
06318C
0618C6
0618C6
000000
ENDCHAR

STARTCHAR A7CF
ENCODING 42959
SWIDTH 960 0
DWIDTH 24 0
BBX 24 24 0 -4
BITMAP
000000
018180
018180
018300
0303FE
0307FE
060E0E
061C0C
0E3E18
0E6730
1E01E0
3601C0
660300
460C00
061FFE
067FFE
06D806
061806
061806
061806
061FFE
061FFE
061806
000000
ENDCHAR

STARTCHAR A7D0
ENCODING 42960
SWIDTH 960 0
DWIDTH 24 0
BBX 24 24 0 -4
BITMAP
000000
018180
018380
018300
033FFE
033FFE
063006
063006
0E3006
1E3FFE
3E3FFE
763006
663006
063006
063FFE
063FFE
063006
063006
063006
063FFE
063FFE
063006
063006
000000
ENDCHAR

STARTCHAR A7D1
ENCODING 42961
SWIDTH 960 0
DWIDTH 24 0
BBX 24 24 0 -4
BITMAP
000000
001800
003C00
006600
00C380
0181C0
031870
0E0C1C
380C0E
07FFE0
07FFE0
0001C0
000380
0FFFF8
0FFFF8
000000
000000
7FFFFE
7FFFFE
00C060
018030
07FFF8
07FC18
000000
ENDCHAR

STARTCHAR A7D2
ENCODING 42962
SWIDTH 960 0
DWIDTH 24 0
BBX 24 24 0 -4
BITMAP
000000
003000
001800
7FFFFE
7FFFFE
00C0C0
018060
030030
0E6018
1CC0CC
718066
031FF0
0FFFD8
3FC30C
00C304
00C300
00C300
018300
018306
030306
060306
1C03FC
7001F8
000000
ENDCHAR

STARTCHAR A7D3
ENCODING 42963
SWIDTH 960 0
DWIDTH 24 0
BBX 24 24 0 -4
BITMAP
000000
0FFFF8
0FFFF8
007018
00E018
01C038
0383F0
0703E0
000000
1FFFFC
1FFFFC
18180C
18180C
18180C
1FFFFC
1FFFFC
006C00
006CE0
00CC76
018C36
030C06
0E0FFE
3807FC
000000
ENDCHAR

STARTCHAR A7D4
ENCODING 42964
SWIDTH 960 0
DWIDTH 24 0
BBX 24 24 0 -4
BITMAP
000000
07FFF0
07FFF0
060030
060030
07FFF0
07FFF0
060030
060030
07FFF0
07FFF0
060030
060030
07FFF0
07FFF0
060030
000000
7FFFFE
7FFFFE
01C1C0
0380E0
0E0038
18000E
000000
ENDCHAR

STARTCHAR A7D5
ENCODING 42965
SWIDTH 960 0
DWIDTH 24 0
BBX 24 24 0 -4
BITMAP
000000
3FFFFE
3FFFFE
300006
3FFFFE
3FFFFE
300006
3FFFFE
3FFFFE
300006
000000
0FFFFC
0FFFFC
0C000C
0FFFFC
0FFFFC
0C000C
0FFFFC
0FFFFC
0C000C
0C000C
0C00FC
0C00F8
000000
ENDCHAR

STARTCHAR A7D6
ENCODING 42966
SWIDTH 960 0
DWIDTH 24 0
BBX 24 24 0 -4
BITMAP
000000
001860
001860
301860
181860
181860
0DFFFC
01FFFC
001860
001860
001860
001860
061860
061860
0DFFFE
0DFFFE
1818C0
183060
303060
706030
60C018
01800C
030006
000000
ENDCHAR

STARTCHAR A7D7
ENCODING 42967
SWIDTH 960 0
DWIDTH 24 0
BBX 24 24 0 -4
BITMAP
000000
00FFFE
00FFFE
38C006
18C006
0CDFF6
06DFF6
00C006
00C006
00CFE6
00CFE6
02CC66
06CC66
06CC66
0CCFE6
0CCFE6
18CC66
18C006
30C006
60C006
00C006
00C07E
00C07C
000000
ENDCHAR

STARTCHAR A7D8
ENCODING 42968
SWIDTH 960 0
DWIDTH 24 0
BBX 24 24 0 -4
BITMAP
000000
000C00
300E00
100700
180F80
0C1CC0
003060
006030
00C018
01800C
03FFFE
00FFF8
0C0300
0C0300
0C0300
18FFF8
18FFF8
300300
300300
600300
600300
03FFFE
03FFFE
000000
ENDCHAR

STARTCHAR A7D9
ENCODING 42969
SWIDTH 960 0
DWIDTH 24 0
BBX 24 24 0 -4
BITMAP
000000
0301F8
030FC0
067F00
060300
0C0300
1DFFFE
3DFFFE
6C0300
0C0300
0CFFFC
0CFFFC
000000
01FFC0
01FFC0
0180C0
0300C0
0300C0
0600C6
0600C6
0C00C6
1800FE
30007C
000000
ENDCHAR

STARTCHAR A7DA
ENCODING 42970
SWIDTH 960 0
DWIDTH 24 0
BBX 24 24 0 -4
BITMAP
000000
3FFFFC
3FFFFC
003000
003000
606006
606FF6
6F6FF6
6F6636
693636
693366
691B66
6919E6
6919C6
6F18C6
6F19E6
601B66
60FE36
60F016
600006
7FFFFE
7FFFFE
600006
000000
ENDCHAR

STARTCHAR A7DB
ENCODING 42971
SWIDTH 960 0
DWIDTH 24 0
BBX 24 24 0 -4
BITMAP
000000
000006
3FFC06
3FFCC6
0000C6
0000C6
0000C6
1FF8C6
1FF8C6
1818C6
1818C6
1FF8C6
1FF8C6
1818C6
1818C6
1FF8C6
1FF8C6
181806
000006
000006
00FE06
0FF03E
7E003C
000000
ENDCHAR

STARTCHAR A7DC
ENCODING 42972
SWIDTH 960 0
DWIDTH 24 0
BBX 24 24 0 -4
BITMAP
000000
000006
3F7E06
3F7EC6
0C18C6
0C18C6
0C18C6
0C18C6
0C18C6
0F18C6
1E7EC6
7C7EC6
0C18C6
0C18C6
0C18C6
0C18C6
1818C6
181806
181806
301806
301806
60183E
40183C
000000
ENDCHAR

STARTCHAR A7DD
ENCODING 42973
SWIDTH 960 0
DWIDTH 24 0
BBX 24 24 0 -4
BITMAP
000000
030FF8
030FF8
030198
030198
3FF198
3FF198
030198
030998
030D98
030798
030398
7FF998
7FFBD8
0603F8
0E0338
0C061C
0CC61E
18661A
186C18
33EC18
7F68F8
7020F0
000000
ENDCHAR

STARTCHAR A7DE
ENCODING 42974
SWIDTH 960 0
DWIDTH 24 0
BBX 24 24 0 -4
BITMAP
000000
1FF006
1FF006
033006
033066
063E66
063E66
0C0666
0C0666
180666
39BE66
31BC66
018066
7FFE66
7FFE66
018066
0DB066
0DB066
199866
318C06
618606
41803E
01803C
000000
ENDCHAR

STARTCHAR A7DF
ENCODING 42975
SWIDTH 960 0
DWIDTH 24 0
BBX 24 24 0 -4
BITMAP
000000
000806
0C1866
0E3066
03C066
01E066
073066
1CDC66
30C066
00C066
00C066
7FFF66
7FFF66
00C066
06D866
06D866
0CD866
0CD806
18D806
18DF06
30CF06
30C03E
00C03C
000000
ENDCHAR

STARTCHAR A7E0
ENCODING 42976
SWIDTH 960 0
DWIDTH 24 0
BBX 24 24 0 -4
BITMAP
000000
060060
070060
038060
018060
7FFC60
7FFC60
0667FE
0C67FE
0C3066
181866
300066
606066
0C6066
06C0C6
03C0C6
0180C6
03C186
036186
063186
0C330E
18037E
30067C
000000
ENDCHAR

STARTCHAR A7E1
ENCODING 42977
SWIDTH 960 0
DWIDTH 24 0
BBX 24 24 0 -4
BITMAP
000000
0C1830
061860
063060
003000
0FFFF8
0FFFF8
006600
00C300
7FFFFE
7FFFFE
018180
0318C0
061860
0FFFF0
1FFFFC
70303E
003030
006030
006030
00C030
0183F0
0703E0
000000
ENDCHAR

STARTCHAR A7E2
ENCODING 42978
SWIDTH 960 0
DWIDTH 24 0
BBX 24 24 0 -4
BITMAP
000000
060180
060180
060FF8
7FCFF8
7FC198
060D98
06C798
1F8398
7E03D8
6606D8
06065A
3E0C1E
3C680E
006000
3FFFF8
3FFFF8
00C018
00C018
018018
030018
0601F8
1C01F0
000000
ENDCHAR

STARTCHAR A7E3
ENCODING 42979
SWIDTH 960 0
DWIDTH 24 0
BBX 24 24 0 -4
BITMAP
000000
030060
030060
0180C0
0180C0
000180
0FFFF0
0FFFF0
0C1830
0C1830
0FFFF0
0FFFF0
0C1830
0C1830
0FFFF0
0FFFF0
001800
001800
7FFFFE
7FFFFE
001800
001800
001800
000000
ENDCHAR

STARTCHAR A7E4
ENCODING 42980
SWIDTH 960 0
DWIDTH 24 0
BBX 24 24 0 -4
BITMAP
000000
003000
003000
003FFE
003FFE
003000
003000
3FFFFE
3FFFFE
300006
300006
31FFC6
31FFC6
3180C6
3180C6
3180C6
31FFC6
31FFC6
300006
300006
3FFFFE
3FFFFE
300006
000000
ENDCHAR

STARTCHAR A7E5
ENCODING 42981
SWIDTH 960 0
DWIDTH 24 0
BBX 24 24 0 -4
BITMAP
000000
018000
0181FE
03FDFE
07FD86
0E0D86
381986
031986
01B186
01E186
01C186
070186
3CC186
018186
03FF86
07FF86
0E0786
180D86
3319BE
01B1BC
01E180
0F8180
7C0180
000000
ENDCHAR

STARTCHAR A7E6
ENCODING 42982
SWIDTH 960 0
DWIDTH 24 0
BBX 24 24 0 -4
BITMAP
000000
0FFFE0
0FFFE0
0001C0
000F00
3FFE0C
3FFB18
00DBB0
018DC0
070CE0
0C0C70
30381C
7FFFFE
7FFFFE
000000
07FFC0
07FFC0
0600C0
0607C6
060786
060006
07FFFE
03FFFC
000000
ENDCHAR

STARTCHAR A7E7
ENCODING 42983
SWIDTH 960 0
DWIDTH 24 0
BBX 24 24 0 -4
BITMAP
000000
1FFFFE
1FFFFE
180600
180600
180600
19FFF8
19FFF8
180600
180600
180600
1BFFFE
1BFFFE
180600
180600
180600
19FFF8
19FFF8
300600
300600
300600
27FFFE
67FFFE
000000
ENDCHAR

STARTCHAR A7E8
ENCODING 42984
SWIDTH 960 0
DWIDTH 24 0
BBX 24 24 0 -4
BITMAP
000000
1FFFFE
1FFFFE
180C00
180C00
180600
19FFFE
19FFFE
180600
180E00
180F00
181B0C
183998
1870F0
18F0C0
19B060
1B3060
383030
303038
30319C
303F0E
61FC06
61C000
000000
ENDCHAR

STARTCHAR A7E9
ENCODING 42985
SWIDTH 960 0
DWIDTH 24 0
BBX 24 24 0 -4
BITMAP
000000
003000
003000
006300
00C180
01FFC0
07F8C0
003000
7FFFFE
7FFFFE
01C380
0780E0
1E0078
7FFFFE
0FFFF0
000000
000000
07FFE0
07FFE0
000000
000000
7FFFFE
7FFFFE
000000
ENDCHAR

STARTCHAR A7EA
ENCODING 42986
SWIDTH 960 0
DWIDTH 24 0
BBX 24 24 0 -4
BITMAP
000000
003000
003000
006180
00C0C0
01FFE0
07FC60
003000
003000
7FFFFE
7FFFFE
006300
01C7C0
071C70
1C719C
71C706
070C30
0030E0
01C380
070E00
003800
01E000
0F0000
000000
ENDCHAR

STARTCHAR A7EB
ENCODING 42987
SWIDTH 960 0
DWIDTH 24 0
BBX 24 24 0 -4
BITMAP
000000
3FF7FC
3FF7FC
0C330C
0C630C
066198
07C1F0
0380E0
0380B0
06C198
0C770C
301E06
7FF7FC
3FF7FC
0C230C
0C6198
06C1B0
0780E0
0380E0
03C1B0
06E318
1C360C
701C06
000000
ENDCHAR

STARTCHAR A7EC
ENCODING 42988
SWIDTH 960 0
DWIDTH 24 0
BBX 24 24 0 -4
BITMAP
000000
003000
003800
001800
3FFFFC
3FFFFC
018180
018180
01C300
00C300
7FFFFE
7FFFFE
000000
000000
07FFE0
07FFE0
060060
060060
060060
060060
07FFE0
07FFE0
060060
000000
ENDCHAR

STARTCHAR A7ED
ENCODING 42989
SWIDTH 960 0
DWIDTH 24 0
BBX 24 24 0 -4
BITMAP
000000
000600
7F0700
7F0300
63FFFC
63FFFC
630000
636030
636030
636030
636030
633060
633060
633060
7F3060
7F18C0
6318C0
6318C0
6018C0
000180
000180
01FFFE
01FFFE
000000
ENDCHAR

STARTCHAR A7EE
ENCODING 42990
SWIDTH 960 0
DWIDTH 24 0
BBX 24 24 0 -4
BITMAP
000000
000300
000380
7F01C0
7F00C0
637FFE
637FFE
630300
630300
630600
630C00
631830
637830
631C60
630E60
6303C0
7F0180
7F0180
630300
600618
000C0C
007FF6
007C06
000000
ENDCHAR

STARTCHAR A7EF
ENCODING 42991
SWIDTH 960 0
DWIDTH 24 0
BBX 24 24 0 -4
BITMAP
000000
00FFFE
7FFFFE
7F1800
631800
631800
631800
631FF0
631FF0
633030
633030
633630
633630
633330
6333B0
6331B0
7F3030
7F3030
633030
6037F6
00FE36
00003E
00001C
000000
ENDCHAR

STARTCHAR A7F0
ENCODING 42992
SWIDTH 960 0
DWIDTH 24 0
BBX 24 24 0 -4
BITMAP
000000
000300
7E0300
7E0300
660300
667FF8
667FF8
666318
666318
666318
666318
666318
67FFFE
67FFFE
660600
660600
7E0CC0
7E0CC0
661860
603060
006030
00C018
01800C
000000
ENDCHAR

STARTCHAR A7F1
ENCODING 42993
SWIDTH 960 0
DWIDTH 24 0
BBX 24 24 0 -4
BITMAP
000000
000180
001980
7F1980
7F1980
631FFC
633FFC
633180
636180
636180
634180
630180
637FFE
637FFE
630380
6303C0
7F06C0
7F0660
630C60
601830
003018
00600C
00C006
000000
ENDCHAR

STARTCHAR A7F2
ENCODING 42994
SWIDTH 960 0
DWIDTH 24 0
BBX 24 24 0 -4
BITMAP
000000
0FFFE0
0FFFE0
0C0060
0C0060
0FFFE0
0FFFE0
003000
003000
7FFFF8
7FFFF8
603018
603018
7FFFF8
7FFFF8
603018
603018
7FFFF8
7FFFF8
003006
003006
003FFE
001FFC
000000
ENDCHAR

STARTCHAR A7F3
ENCODING 42995
SWIDTH 960 0
DWIDTH 24 0
BBX 24 24 0 -4
BITMAP
000000
000600
000700
7F0380
7F00C0
630000
633F80
633F80
630180
630186
637D8C
637D98
630DB0
630DE0
630DB0
7F19B0
7F1998
633198
60318C
006186
00C180
000F80
000F00
000000
ENDCHAR

STARTCHAR A7F4
ENCODING 42996
SWIDTH 960 0
DWIDTH 24 0
BBX 24 24 0 -4
BITMAP
000000
001FF8
7F1FF8
7F0000
630000
630000
630000
637FFE
637FFE
630180
630180
631980
631998
631998
7F318C
7F318C
636186
606186
00C180
000180
000180
000F80
000F00
000000
ENDCHAR

STARTCHAR A7F5
ENCODING 42997
SWIDTH 960 0
DWIDTH 24 0
BBX 24 24 0 -4
BITMAP
000000
000330
003330
7F3330
7F3330
633330
633330
633330
63FFFE
63FFFE
633330
633330
633330
633330
7F3330
7F33F0
6333F0
603330
003000
003000
003FFC
003FFC
003000
000000
ENDCHAR

STARTCHAR A7F6
ENCODING 42998
SWIDTH 960 0
DWIDTH 24 0
BBX 24 24 0 -4
BITMAP
000000
1FE7F8
1FE7F8
186618
186618
186618
1FE7F8
1FE7F8
186618
000000
7FFFFE
7FFFFE
018000
018000
018000
03FFF0
03FFF0
030030
000030
000030
000070
0007E0
0007C0
000000
ENDCHAR

STARTCHAR A7F7
ENCODING 42999
SWIDTH 960 0
DWIDTH 24 0
BBX 24 24 0 -4
BITMAP
000000
000300
7F0300
7F0300
630300
6303F8
6303F8
630300
630300
630300
637FFE
637FFE
630300
630380
7F03C0
7F0360
630330
600318
000300
000300
000300
000300
000300
000000
ENDCHAR

STARTCHAR A7F8
ENCODING 43000
SWIDTH 960 0
DWIDTH 24 0
BBX 24 24 0 -4
BITMAP
000000
007FFC
007FFC
00600C
7E600C
7E600C
66600C
66600C
667FFC
667FFC
666CCC
660CC0
660CC0
660CC0
660CC0
7E0CC0
7E0CC0
6618C0
6618C6
6030C6
0030C6
0060FE
01C07C
000000
ENDCHAR

STARTCHAR A7F9
ENCODING 43001
SWIDTH 960 0
DWIDTH 24 0
BBX 24 24 0 -4
BITMAP
000000
00007C
0007F0
003F80
7F0180
7F0180
630180
630180
630180
637FFE
637FFE
630380
6303C0
6307C0
630DE0
6319B0
633198
7F618C
7FC186
630180
600180
600180
000180
000000
ENDCHAR

STARTCHAR A7FA
ENCODING 43002
SWIDTH 960 0
DWIDTH 24 0
BBX 24 24 0 -4
BITMAP
000000
000180
000180
000300
7F0300
7F3FFE
633FFE
633006
633006
633006
633006
633006
633006
633FFE
633FFE
633006
7F3006
7F3006
633006
633006
603FFE
003FFE
003006
000000
ENDCHAR

STARTCHAR A7FB
ENCODING 43003
SWIDTH 960 0
DWIDTH 24 0
BBX 24 24 0 -4
BITMAP
000000
7FFFFE
7FFFFE
600006
600006
67FFE6
67FFE6
601806
601806
601806
63FFC6
63FFC6
601806
601986
6019C6
6018C6
6FFFF6
6FFFF6
600006
600006
7FFFFE
7FFFFE
600006
000000
ENDCHAR

STARTCHAR A7FC
ENCODING 43004
SWIDTH 960 0
DWIDTH 24 0
BBX 24 24 0 -4
BITMAP
000000
7FFFFE
7FFFFE
600006
67FFC6
67FFC6
6600C6
6600C6
67FFC6
67FFC6
661806
661806
67FFE6
67FFE6
660C06
660666
66F366
67C1E6
6E00C6
600006
7FFFFE
7FFFFE
600006
000000
ENDCHAR

STARTCHAR A7FD
ENCODING 43005
SWIDTH 960 0
DWIDTH 24 0
BBX 24 24 0 -4
BITMAP
000000
7FFFFE
7FFFFE
600006
600006
67FFE6
67FFE6
600C06
600C06
600C06
618FC6
618FC6
618C06
618C06
618C06
618C06
6FFFF6
6FFFF6
600006
600006
7FFFFE
7FFFFE
600006
000000
ENDCHAR

STARTCHAR A7FE
ENCODING 43006
SWIDTH 960 0
DWIDTH 24 0
BBX 24 24 0 -4
BITMAP
000000
7FFFFE
7FFFFE
600006
600006
67FFE6
67FFE6
661866
661866
67FFE6
67FFE6
661866
661866
67FFE6
67FFE6
661866
601806
601806
601806
600006
7FFFFE
7FFFFE
600006
000000
ENDCHAR

STARTCHAR A8A1
ENCODING 43169
SWIDTH 960 0
DWIDTH 24 0
BBX 24 24 0 -4
BITMAP
000000
7FFFFE
7FFFFE
600006
606006
606006
60C006
60C186
6180C6
63FFE6
6FF836
600006
63FFC6
63FFC6
6300C6
6300C6
63FFC6
63FFC6
6300C6
600006
7FFFFE
7FFFFE
600006
000000
ENDCHAR

STARTCHAR A8A2
ENCODING 43170
SWIDTH 960 0
DWIDTH 24 0
BBX 24 24 0 -4
BITMAP
000000
7FFFFE
7FFFFE
60C606
60C606
618606
618606
6307F6
661BE6
6C1806
601806
67FFE6
67FFE6
601806
601806
601806
6FFFF6
6FFFF6
600006
600006
7FFFFE
7FFFFE
600006
000000
ENDCHAR

STARTCHAR A8A3
ENCODING 43171
SWIDTH 960 0
DWIDTH 24 0
BBX 24 24 0 -4
BITMAP
000000
0C3FF8
0C3FF8
0C3018
0C3018
0C3018
0C3018
7FBFF8
7FBFF8
0C3018
0C3018
0C3018
0C3018
0C3018
0C3FF8
0C3FF8
0FB018
7E3018
703018
003018
003018
01FFFE
01FFFE
000000
ENDCHAR

STARTCHAR A8A4
ENCODING 43172
SWIDTH 960 0
DWIDTH 24 0
BBX 24 24 0 -4
BITMAP
000000
000C00
0C0C00
0C0C00
0C1FFC
0C1FFC
0C30C0
0C30C0
7FA0C0
7F80C0
0C00C0
0C00C0
0C3FFE
0C3FFE
0C01C0
0C0360
0C0360
0FC630
1F0E30
781C18
003818
00700C
00E006
000000
ENDCHAR

STARTCHAR A8A5
ENCODING 43173
SWIDTH 960 0
DWIDTH 24 0
BBX 24 24 0 -4
BITMAP
000000
001800
0C1860
061860
0718C0
0218C0
7FFFFE
7FFFFE
600006
601806
601806
001800
001800
001800
0FFFF0
0FFFF0
001800
001800
001800
001800
001800
7FFFFE
7FFFFE
000000
ENDCHAR

STARTCHAR A8A6
ENCODING 43174
SWIDTH 960 0
DWIDTH 24 0
BBX 24 24 0 -4
BITMAP
000000
060000
060000
063FFE
063FFE
060600
060600
060600
7F8C00
7F8C00
060C00
061FFC
061FFC
061C0C
063C0C
063C0C
066C0C
0F8C0C
7E0C0C
700C0C
000FFC
000FFC
000C0C
000000
ENDCHAR

STARTCHAR A8A7
ENCODING 43175
SWIDTH 960 0
DWIDTH 24 0
BBX 24 24 0 -4
BITMAP
000000
000180
000180
0C0180
0C0180
0C1FF8
0C1FF8
0C1998
7F9998
7F9998
0C7FFE
0C7FFE
0C1998
0C1998
0C1998
0C7FFE
0C7FFE
0F9818
1E1818
781818
001818
0018F8
0018F0
000000
ENDCHAR

STARTCHAR A8A8
ENCODING 43176
SWIDTH 960 0
DWIDTH 24 0
BBX 24 24 0 -4
BITMAP
000000
0C0300
0C0300
0C0300
0C0600
0C0630
0C0C18
0C0C0C
7F980C
7F99FE
0C1FC6
0C7C00
0C0000
0C1FFC
0C1FFC
0C180C
0C180C
0F980C
1E180C
70180C
001FFC
001FFC
00180C
000000
ENDCHAR

STARTCHAR A8A9
ENCODING 43177
SWIDTH 960 0
DWIDTH 24 0
BBX 24 24 0 -4
BITMAP
000000
000C00
0C0C00
0C0C00
0C0FFE
0C0FFE
0C1806
0C1806
0C3006
7FB7E6
7FA7E6
0C0666
0C0666
0C0666
0C0666
0C0666
0C07E6
0C07E6
0F8666
1E0006
70000C
0000FC
0000F8
000000
ENDCHAR

STARTCHAR A8AA
ENCODING 43178
SWIDTH 960 0
DWIDTH 24 0
BBX 24 24 0 -4
BITMAP
000000
000618
0C0618
0C0C18
0C0C18
0C1818
0C3818
0C37FE
0C77FE
7FF018
7FF018
0CB018
0C3318
0C3198
0C3198
0C3198
0C3018
0DB018
0F3018
3C3018
703018
003078
003070
000000
ENDCHAR

STARTCHAR A8AB
ENCODING 43179
SWIDTH 960 0
DWIDTH 24 0
BBX 24 24 0 -4
BITMAP
000000
00C300
00C300
00C300
00C300
3FC3FC
3FC3FC
00C300
00C300
00C306
03C306
1FC306
78C3FE
0001FC
001800
001800
001800
1FFFF8
1FFFF8
001800
001800
7FFFFE
7FFFFE
000000
ENDCHAR

STARTCHAR A8AC
ENCODING 43180
SWIDTH 960 0
DWIDTH 24 0
BBX 24 24 0 -4
BITMAP
000000
001800
001800
001800
001860
3F9860
3F9860
319860
319870
3198F0
3198D8
3F998C
3F9B06
319B06
001800
001800
3FFFFC
3FFFFC
001800
001800
001800
7FFFFE
7FFFFE
000000
ENDCHAR

STARTCHAR A8AD
ENCODING 43181
SWIDTH 960 0
DWIDTH 24 0
BBX 24 24 0 -4
BITMAP
000000
001800
001800
7FFFFE
7FFFFE
001800
001800
1FFFF8
1FFFF8
000000
7FFFFE
7FFFFE
600006
67FFE6
07FFE0
000000
03FF80
03FF80
030180
03018C
06018C
0E01FC
1C00F8
000000
ENDCHAR

STARTCHAR A8AE
ENCODING 43182
SWIDTH 960 0
DWIDTH 24 0
BBX 24 24 0 -4
BITMAP
000000
001800
001800
003000
7FFFFE
7FFFFE
006300
00C180
0180C0
030060
0E0038
18001C
3FFFFE
7FFFFC
180C0C
180C0C
1FFFFC
1FFFFC
180C0C
180C0C
1FFFFC
1FFFFC
18000C
000000
ENDCHAR

STARTCHAR A8AF
ENCODING 43183
SWIDTH 960 0
DWIDTH 24 0
BBX 24 24 0 -4
BITMAP
000000
003000
003000
003FF0
003FF0
003000
003000
07FFE0
07FFE0
060060
060060
07FFE0
07FFE0
061860
001800
001800
7FFFFE
7FFFFE
003000
00E300
01C380
0700E0
3C0038
000000
ENDCHAR

STARTCHAR A8B0
ENCODING 43184
SWIDTH 960 0
DWIDTH 24 0
BBX 24 24 0 -4
BITMAP
000000
0C0000
0C3FFC
0C3FFC
0D8180
7FD98C
7FD98C
199998
198D98
198DB0
198180
318180
33FFFE
33FFFE
7B0180
6F0180
670180
030180
078180
0CC180
180180
300180
600180
000000
ENDCHAR

STARTCHAR A8B1
ENCODING 43185
SWIDTH 960 0
DWIDTH 24 0
BBX 24 24 0 -4
BITMAP
000000
0C0000
0C3FFE
0C3FFE
0D80C0
7FC0C0
7FC1C0
198180
1983E0
1983B0
198798
318D8C
331986
333182
7B0180
6F0180
670180
030180
078180
0CC180
183FFE
303FFE
600000
000000
ENDCHAR

STARTCHAR A8B2
ENCODING 43186
SWIDTH 960 0
DWIDTH 24 0
BBX 24 24 0 -4
BITMAP
000000
0C0180
0C0180
0C0180
0CDFFE
7FFFFE
7FE300
0CC6C0
0CC6C0
18CCC0
18CFFC
199FFC
319CCC
31BCCC
396CCC
7F4CCC
6F0CCC
070CCC
078CCC
0CCCDC
180CD8
3800C0
6000C0
000000
ENDCHAR

STARTCHAR A8B3
ENCODING 43187
SWIDTH 960 0
DWIDTH 24 0
BBX 24 24 0 -4
BITMAP
000000
0C0600
0C0670
0C0638
0CC60C
7FE600
7FFFFE
18DFFE
18C600
18C600
18C60C
31860C
31860C
31870C
318F18
7B0D98
6F0D98
0718F0
079870
0DD8F0
18B1D8
30330C
606E06
000000
ENDCHAR

STARTCHAR A8B4
ENCODING 43188
SWIDTH 960 0
DWIDTH 24 0
BBX 24 24 0 -4
BITMAP
000000
0C3FFE
0C3FFE
0C0006
0D8006
7FC006
7FFFE6
19BFE6
198006
198006
199FC6
319FC6
3318C6
3318C6
7B18C6
6F18C6
671FC6
031FC6
0798C6
0CC006
18C006
30007E
60007C
000000
ENDCHAR

STARTCHAR A8B5
ENCODING 43189
SWIDTH 960 0
DWIDTH 24 0
BBX 24 24 0 -4
BITMAP
000000
0C0000
0C3FFC
0C3FFC
0DB00C
7FF00C
7FF00C
19BFFC
19BFFC
19B180
19B180
31B180
333180
333FFE
7B3FFE
6F30C0
6730C0
0330C0
07B060
0DF366
18BF36
303C1E
60300C
000000
ENDCHAR

STARTCHAR A8B6
ENCODING 43190
SWIDTH 960 0
DWIDTH 24 0
BBX 24 24 0 -4
BITMAP
000000
0C0000
0C1FFE
0C1FFE
0D98C6
7FD8C6
7FD8C6
1998C6
1998C6
1998C6
1998C6
319FFE
331FFE
3318C6
7B18C6
6F18C6
6718C6
0318C6
0798C6
0CDFFE
18DFFE
301806
600000
000000
ENDCHAR

STARTCHAR A8B7
ENCODING 43191
SWIDTH 960 0
DWIDTH 24 0
BBX 24 24 0 -4
BITMAP
000000
0C0000
0C003C
0C1FE0
0D80C0
7FC0C0
7FC0C0
1980C0
199FFC
199FFC
19800C
318018
330018
330030
7B0030
6F0060
6700C0
030180
079B00
0CDE00
189780
3031FE
60207E
000000
ENDCHAR

STARTCHAR A8B8
ENCODING 43192
SWIDTH 960 0
DWIDTH 24 0
BBX 24 24 0 -4
BITMAP
000000
0C0600
0C0600
0C0600
0D8C00
7FCFFE
7FCFFE
199980
19B180
19A180
1981FE
3181FE
318180
330180
7B0180
6F0180
6701FE
0301FE
078180
0CC180
186180
300180
600180
000000
ENDCHAR

STARTCHAR A8B9
ENCODING 43193
SWIDTH 960 0
DWIDTH 24 0
BBX 24 24 0 -4
BITMAP
000000
0C0600
0C0600
0C0600
0D8FFE
7FCFFE
7FD806
199806
19B006
19AFE6
198FE6
318C66
330C66
330C66
7B0FE6
6E0FE6
670C0C
030C7C
078C78
0CCC06
18CC06
300FFE
6007FC
000000
ENDCHAR

STARTCHAR A8BA
ENCODING 43194
SWIDTH 960 0
DWIDTH 24 0
BBX 24 24 0 -4
BITMAP
000000
0C0600
0C0600
0C0600
0D87FC
7FCFFC
7FCE0C
199E18
19B330
198330
1981E0
3181C0
330370
330E18
7B300E
6F0700
6701C0
030070
078018
0CC000
18C780
3001F0
60001C
000000
ENDCHAR

STARTCHAR A8BB
ENCODING 43195
SWIDTH 960 0
DWIDTH 24 0
BBX 24 24 0 -4
BITMAP
000000
0C0000
0C00F8
0C0FC0
0D8C00
7FCC00
7FCC00
198C00
198C00
198FFC
198FFC
318C60
330C60
330C60
7B0C60
6E0C60
670C60
030C60
078C60
0CCC60
18CC60
303FFE
603FFE
000000
ENDCHAR

STARTCHAR A8BC
ENCODING 43196
SWIDTH 960 0
DWIDTH 24 0
BBX 24 24 0 -4
BITMAP
000000
003FFE
7FFFFE
7FC180
060300
0607FC
060FFC
060C0C
060018
07E030
1F01F0
7801E0
003000
0060C0
7FFFFE
7FFFFE
00C0C0
018180
03F300
033F00
000F80
0079E0
0FC038
000000
ENDCHAR

STARTCHAR A8BD
ENCODING 43197
SWIDTH 960 0
DWIDTH 24 0
BBX 24 24 0 -4
BITMAP
000000
030000
0303FE
7FF3FE
7FF306
063306
063306
0C3306
0C3306
1833FE
18F3FE
30E306
603000
0030C0
7FFFFE
7FFFFE
00C0C0
018180
01F380
033F00
000F80
0039E0
07E078
000000
ENDCHAR

STARTCHAR A8BE
ENCODING 43198
SWIDTH 960 0
DWIDTH 24 0
BBX 24 24 0 -4
BITMAP
000000
1FFFF8
1FFFF8
181818
181818
1FFFF8
1FFFF8
181818
181818
1FFFF8
1FFFF8
003000
0030C0
7FFFFE
7FFFFE
00C0C0
018180
03F300
063F00
000F80
0079E0
03C078
1F001C
000000
ENDCHAR

STARTCHAR A8BF
ENCODING 43199
SWIDTH 960 0
DWIDTH 24 0
BBX 24 24 0 -4
BITMAP
000000
0C00C0
0C00C0
0C00C0
0D80C0
7FFFFE
7FFFFE
1980C0
1980C0
199FFE
199FFE
3198C6
3318C6
3318C6
7B18C6
6F18C6
6718C6
0318C6
0798C6
0CD8DE
18D8DC
3000C0
6000C0
000000
ENDCHAR

STARTCHAR A8C0
ENCODING 43200
SWIDTH 960 0
DWIDTH 24 0
BBX 24 24 0 -4
BITMAP
000000
0C3FFE
0C3FFE
0C000C
0D800C
7FC00C
7FCFCC
198FCC
198CCC
198CCC
198CCC
318CCC
330CCC
330FCC
7B0FCC
6F0CCC
670CCC
03000C
07800C
0CC00C
18C00C
3000FC
6000F8
000000
ENDCHAR

STARTCHAR A8C1
ENCODING 43201
SWIDTH 960 0
DWIDTH 24 0
BBX 24 24 0 -4
BITMAP
000000
0C0000
0C3FFE
0C3FFE
0D8600
7FC600
7FC600
198600
198C00
198C00
198FFC
319FFC
331C0C
333C0C
7B3C0C
6F6C0C
676C0C
030C0C
078C0C
0CCC0C
18CFFC
300FFC
600C0C
000000
ENDCHAR

STARTCHAR A8C2
ENCODING 43202
SWIDTH 960 0
DWIDTH 24 0
BBX 24 24 0 -4
BITMAP
000000
181800
181800
181800
19983E
7F983E
7FFFB6
19FFB6
1999B6
1999B6
1999B6
3199B6
3319B6
3319B6
7B31B6
7F31B6
6E31B6
0631B6
0761B6
0DE1BE
18633E
30DF36
619E00
000000
ENDCHAR

STARTCHAR A8C3
ENCODING 43203
SWIDTH 960 0
DWIDTH 24 0
BBX 24 24 0 -4
BITMAP
000000
0607FC
0607FC
06060C
06660C
3FF60C
3FF60C
0C660C
0C67FC
0C67FC
0C6600
18C600
18C600
18C7FE
38C7FE
3D8606
378606
038606
03C606
06E606
0C67FE
1807FE
300606
000000
ENDCHAR

STARTCHAR A8C4
ENCODING 43204
SWIDTH 960 0
DWIDTH 24 0
BBX 24 24 0 -4
BITMAP
000000
0C3FF8
0C3FF8
0C0618
0D8630
7FCC7E
7FCC7E
199806
19983E
19B03C
19A000
319FF0
331FF0
3300C0
7B0380
6F0180
673FFE
033FFE
078180
0CC180
18C180
300F80
600F00
000000
ENDCHAR

STARTCHAR A8C5
ENCODING 43205
SWIDTH 960 0
DWIDTH 24 0
BBX 24 24 0 -4
BITMAP
000000
0C00C0
0C06C0
0C06C0
0D8CC0
7FCFFC
7FCFFC
1998C0
1998C0
19B0C0
1980C0
3180C0
333FFE
333FFE
7B00C0
6F01E0
6701A0
030330
078318
0CC618
180C0C
30180C
603006
000000
ENDCHAR

STARTCHAR A8C6
ENCODING 43206
SWIDTH 960 0
DWIDTH 24 0
BBX 24 24 0 -4
BITMAP
000000
300000
307EFC
307EFC
3366CC
7FE6CC
7FE6CC
3366CC
3366CC
3366CC
3366CC
33FFFE
36FFFE
6666CC
6666CC
7666CC
7C66CC
5C66CC
0E66CC
1F66CC
1AC6CC
30DEBC
619EB8
000000
ENDCHAR

STARTCHAR A8C7
ENCODING 43207
SWIDTH 960 0
DWIDTH 24 0
BBX 24 24 0 -4
BITMAP
000000
0C0180
0C0380
0C03C0
0D86C0
7FCC60
7FD830
199818
19B00C
19A186
198180
318180
330DA0
330DB0
7B19B0
6E1998
673198
03318C
07A18C
0CC180
18C180
300F80
600F00
000000
ENDCHAR

STARTCHAR A8C8
ENCODING 43208
SWIDTH 960 0
DWIDTH 24 0
BBX 24 24 0 -4
BITMAP
000000
1FFFF8
1FFFF8
000018
0FFF98
0FFF98
000018
07FF18
07FF18
060318
07FF18
07FF18
060378
000070
1FFF80
1FFF00
000600
000C00
7FFFFE
7FFFFE
000C00
007C00
007800
000000
ENDCHAR

STARTCHAR A8C9
ENCODING 43209
SWIDTH 960 0
DWIDTH 24 0
BBX 24 24 0 -4
BITMAP
000000
1FF000
1FF7FE
1837FE
1A300E
1B300C
19B1B8
18B0F0
1830E0
7FF860
7FF860
3067FE
3667FE
336060
336060
316060
306060
3FF060
3FF060
00C060
00C060
07C1E0
0781C0
000000
ENDCHAR

STARTCHAR A8CA
ENCODING 43210
SWIDTH 960 0
DWIDTH 24 0
BBX 24 24 0 -4
BITMAP
000000
001800
000C00
7FFFFE
7FFFFE
600006
600186
7FE186
3FE180
006180
006180
1FE300
1FE300
180300
180300
3FE300
3FE600
006618
006618
00660C
00E7FE
0FDFE6
0F8000
000000
ENDCHAR

STARTCHAR A8CB
ENCODING 43211
SWIDTH 960 0
DWIDTH 24 0
BBX 24 24 0 -4
BITMAP
000000
001800
000C00
7FFFFE
7FFFFE
600C06
638C06
60CC06
006C00
070C00
038C00
00CC00
7FFFFE
7FFFFE
001C00
001E00
003600
006300
00E180
01C0C0
030060
0E0038
38000E
000000
ENDCHAR

STARTCHAR A8CC
ENCODING 43212
SWIDTH 960 0
DWIDTH 24 0
BBX 24 24 0 -4
BITMAP
000000
001800
000C00
7FFFFE
7FFFFE
600006
600006
603006
001800
000C00
3FFFFC
3FFFFC
000C00
000C00
000C00
0FFFF8
0FFFF8
000C00
000C00
000C00
000C00
7FFFFE
7FFFFE
000000
ENDCHAR

STARTCHAR A8CD
ENCODING 43213
SWIDTH 960 0
DWIDTH 24 0
BBX 24 24 0 -4
BITMAP
000000
003800
001C00
7FFFFE
7FFFFE
601806
601806
6FFFF6
0FFFF0
001800
001800
1FFFF8
1FFFF8
001800
001800
7FFFFE
7FFFFE
006600
00C300
018180
0700E0
1C0078
70001E
000000
ENDCHAR

STARTCHAR A8CE
ENCODING 43214
SWIDTH 960 0
DWIDTH 24 0
BBX 24 24 0 -4
BITMAP
000000
003000
003800
001800
7FFFFE
7FFFFE
600006
600006
0FFFF0
0FFFF0
000C00
000C00
000C00
000C00
0FFFF0
0FFFF0
000C00
000C60
000C30
000C18
000C00
3FFFFC
3FFFFC
000000
ENDCHAR

STARTCHAR A8CF
ENCODING 43215
SWIDTH 960 0
DWIDTH 24 0
BBX 24 24 0 -4
BITMAP
000000
003000
001800
7FFFFE
7FFFFE
600006
601806
601806
001800
001800
7FFFFE
7FFFFE
001800
001800
001800
07FFF0
07FFF0
060030
060030
060030
07FFF0
07FFF0
060030
000000
ENDCHAR

STARTCHAR A8D0
ENCODING 43216
SWIDTH 960 0
DWIDTH 24 0
BBX 24 24 0 -4
BITMAP
000000
000018
7FF018
7FF018
600018
600018
600018
67E7FE
67E7FE
666018
666018
666018
666618
666618
67E318
67E318
660118
600018
600018
600018
7FF818
7FF9F8
6001F0
000000
ENDCHAR

STARTCHAR A8D1
ENCODING 43217
SWIDTH 960 0
DWIDTH 24 0
BBX 24 24 0 -4
BITMAP
000000
001800
031840
031860
061830
0C1818
187818
003000
3FFFFC
3FFFFC
30000C
30000C
30FF0C
30FF0C
30C30C
30C30C
30FF0C
30FF0C
30C30C
30000C
30000C
3001FC
3001F8
000000
ENDCHAR

STARTCHAR A8D2
ENCODING 43218
SWIDTH 960 0
DWIDTH 24 0
BBX 24 24 0 -4
BITMAP
000000
0FFFFE
0FFFFE
0C0006
0C0006
0FFFFE
0FFFFE
0C0C06
0C0600
0C0600
0FFFFC
0FFFFC
0C0000
0CC030
0CC030
0C6060
0C6060
183060
1830C0
1810C0
300080
37FFFE
67FFFE
000000
ENDCHAR

STARTCHAR A8D3
ENCODING 43219
SWIDTH 960 0
DWIDTH 24 0
BBX 24 24 0 -4
BITMAP
000000
1FFFFC
1FFFFC
18000C
18000C
18000C
1FFFFC
1FFFFC
180C0C
180C00
180C00
1BEDF8
1BEDF8
180C00
180C00
1BEDF8
1BEDF8
180C00
300C06
300C06
300C06
600FFE
6007FC
000000
ENDCHAR

STARTCHAR A8D4
ENCODING 43220
SWIDTH 960 0
DWIDTH 24 0
BBX 24 24 0 -4
BITMAP
000000
1FFFFE
1FFFFE
180006
180006
1FFFFE
1FFFFE
18C636
18C630
18C630
18C630
1BFFFE
1BFFFE
18C630
18C630
18C630
18C7F0
30C7F0
30C000
30C000
30FFFC
60FFFC
60C000
000000
ENDCHAR

STARTCHAR A8D5
ENCODING 43221
SWIDTH 960 0
DWIDTH 24 0
BBX 24 24 0 -4
BITMAP
000000
1FFFFE
1FFFFE
180006
180006
1FFFFE
1FFFFE
180606
180600
180600
1BFFFC
1BFFFC
1B060C
1B060C
1B060C
1BFFFC
1BFFFC
33060C
33060C
33060C
33FFFC
63FFFC
63000C
000000
ENDCHAR

STARTCHAR A8D6
ENCODING 43222
SWIDTH 960 0
DWIDTH 24 0
BBX 24 24 0 -4
BITMAP
000000
0607FE
0607FE
060606
066606
666606
666606
6667FE
6667FE
666606
6666C0
6666C0
6666C0
6666FE
6666FE
6666C0
6666C0
6666C0
666CC0
7FECC6
7FECC6
6068FE
00107C
000000
ENDCHAR

STARTCHAR A8D7
ENCODING 43223
SWIDTH 960 0
DWIDTH 24 0
BBX 24 24 0 -4
BITMAP
000000
06000E
06007C
0607F0
066630
666630
666630
666630
666630
666630
6667FE
6667FE
666630
666630
666630
666636
666636
7FE6F6
7FE79E
606F0E
000006
0007F0
0007F0
000000
ENDCHAR

STARTCHAR A8D8
ENCODING 43224
SWIDTH 960 0
DWIDTH 24 0
BBX 24 24 0 -4
BITMAP
000000
000C00
180C0C
180C0C
1FFFFC
1FFFFC
18000C
03E000
1F01FE
1801FE
186186
186186
186186
186186
186186
1BE186
1E6186
38C186
00C186
01819E
03019C
060180
0C0180
000000
ENDCHAR

STARTCHAR A8D9
ENCODING 43225
SWIDTH 960 0
DWIDTH 24 0
BBX 24 24 0 -4
BITMAP
000000
0001F0
007FC0
1FF800
001800
001800
7FFFFE
7FFFFE
003C00
00DF00
0399C0
0E1878
78181E
001800
000000
001800
001800
181818
181818
181818
1FFFF8
1FFFF8
180018
000000
ENDCHAR

STARTCHAR A8DA
ENCODING 43226
SWIDTH 960 0
DWIDTH 24 0
BBX 24 24 0 -4
BITMAP
000000
0607FE
0607FE
060600
066600
6666FC
6666FC
666630
666630
666630
666630
6667FE
6667FE
666630
666630
666630
666630
666630
666630
7FEC30
7FEC30
606830
601030
000000
ENDCHAR

STARTCHAR A8DB
ENCODING 43227
SWIDTH 960 0
DWIDTH 24 0
BBX 24 24 0 -4
BITMAP
000000
063FFE
063FFE
06000C
06600C
66600C
666FCC
666FCC
666CCC
666CCC
666CCC
666CCC
666CCC
666CCC
666FCC
666FCC
666C0C
66600C
66600C
7FE00C
7FE00C
6060FC
6000F8
000000
ENDCHAR

STARTCHAR A8DC
ENCODING 43228
SWIDTH 960 0
DWIDTH 24 0
BBX 24 24 0 -4
BITMAP
000000
060000
060FFE
060FFE
066186
666186
666186
666306
666306
666706
666E0C
667C7C
667878
666000
6667FE
6667FE
666606
666606
7FE606
7FE606
6067FE
6007FE
000606
000000
ENDCHAR

STARTCHAR A8DD
ENCODING 43229
SWIDTH 960 0
DWIDTH 24 0
BBX 24 24 0 -4
BITMAP
000000
060300
060300
060600
066600
6667FE
666FFE
666D80
667980
667180
6661FE
6661FE
666180
666180
666180
666180
6661FE
6661FE
7FE180
7FE180
606180
600180
000180
000000
ENDCHAR

STARTCHAR A8DE
ENCODING 43230
SWIDTH 960 0
DWIDTH 24 0
BBX 24 24 0 -4
BITMAP
000000
000000
06007C
0607F0
060700
066600
666600
666600
666600
6667FE
6667FE
666630
666630
666630
666630
666630
666630
7FE630
7FE630
606630
600630
003FFE
003FFE
000000
ENDCHAR

STARTCHAR A8DF
ENCODING 43231
SWIDTH 960 0
DWIDTH 24 0
BBX 24 24 0 -4
BITMAP
000000
000C00
180C0C
180C0C
1FFFFC
1FFFFC
18000C
001800
003E00
006300
00C180
03B0E0
0E1878
1C0C1C
700006
1FFFF8
1FFFF8
003018
003018
003018
003078
003070
003000
000000
ENDCHAR

STARTCHAR A8E0
ENCODING 43232
SWIDTH 960 0
DWIDTH 24 0
BBX 24 24 0 -4
BITMAP
000000
3FF3FE
3FF3FE
063306
063306
063306
063306
0C3306
0C3306
1833FE
39F3FE
71E306
600300
3FF300
3FF300
303300
303300
303300
303306
3FF306
3FF306
3033FE
0001FC
000000
ENDCHAR

STARTCHAR A8E1
ENCODING 43233
SWIDTH 960 0
DWIDTH 24 0
BBX 24 24 0 -4
BITMAP
000000
0600C0
0600C0
0600C0
0600C0
7FFFFE
7FFFFE
6660C0
6660C0
6660C0
666FFC
666FFC
6660C0
6661E0
6661F0
6663D8
6666DC
67ECCE
67F8C6
0670C0
0600C0
0600C0
0600C0
000000
ENDCHAR

STARTCHAR A8E2
ENCODING 43234
SWIDTH 960 0
DWIDTH 24 0
BBX 24 24 0 -4
BITMAP
000000
0180C0
038670
070630
0E0700
1EFFFC
36FFFC
660180
0600C6
060066
06183E
06181E
001800
1FFFFC
1FFFFC
18180C
18180C
18180C
18180C
18187C
181878
001800
001800
000000
ENDCHAR

STARTCHAR A8E3
ENCODING 43235
SWIDTH 960 0
DWIDTH 24 0
BBX 24 24 0 -4
BITMAP
000000
030060
0600C0
0600C0
0C0180
3FE7FC
3FE7FC
030060
030060
030060
030060
030060
030060
7FFFFE
7FFFFE
030060
030060
030060
060060
060060
0C0060
0C0060
180060
000000
ENDCHAR

STARTCHAR A8E4
ENCODING 43236
SWIDTH 960 0
DWIDTH 24 0
BBX 24 24 0 -4
BITMAP
000000
001C00
000E00
1FFFFE
1FFFFE
180000
180000
18FFF8
18FFF8
18C018
18C018
18C018
18FFF8
18FFF8
18C018
18C018
18FFF8
18FFF8
30C018
30C018
30C018
67FFFE
47FFFE
000000
ENDCHAR

STARTCHAR A8E5
ENCODING 43237
SWIDTH 960 0
DWIDTH 24 0
BBX 24 24 0 -4
BITMAP
000000
001800
000C00
1FFFFE
1FFFFE
180000
180000
19FFF8
19FFF8
198618
198618
19FFF8
19FFF8
198618
198618
19FFF8
19FFF8
198618
300600
300600
300600
600600
400600
000000
ENDCHAR

STARTCHAR A8E6
ENCODING 43238
SWIDTH 960 0
DWIDTH 24 0
BBX 24 24 0 -4
BITMAP
000000
003800
001C00
1FFFFE
1FFFFE
180000
187CFE
19E0FE
198CC6
198CC6
198CC6
198CC6
198CC6
198CC6
19BCC6
19F8C6
1B18C6
1818C6
3030DE
3030DC
3060C0
60C0C0
4180C0
000000
ENDCHAR

STARTCHAR A8E7
ENCODING 43239
SWIDTH 960 0
DWIDTH 24 0
BBX 24 24 0 -4
BITMAP
000000
000C00
000600
1FFFFE
1FFFFE
180000
180300
180300
18FFFC
18FFFC
18C30C
18C30C
18C30C
18C30C
18FFFC
18FFFC
18C30C
18C30C
30C30C
30C30C
30FFFC
60FFFC
40C00C
000000
ENDCHAR

STARTCHAR A8E8
ENCODING 43240
SWIDTH 960 0
DWIDTH 24 0
BBX 24 24 0 -4
BITMAP
000000
001800
000C00
1FFFFE
1FFFFE
181800
181FF0
183FF0
187030
18F860
19CCC0
1B0780
180780
180DC0
183870
18E61C
1B8386
1800E0
183000
301C00
300780
6001E0
400070
000000
ENDCHAR

STARTCHAR A8E9
ENCODING 43241
SWIDTH 960 0
DWIDTH 24 0
BBX 24 24 0 -4
BITMAP
000000
000180
7F0180
7F0180
030180
067FFE
067FFE
0C6186
186186
186186
3F6186
7F7FFE
637FFE
036186
336186
366186
1E6186
0E7FFE
0F7FFE
1B8000
38E000
707FFE
600FFE
000000
ENDCHAR

STARTCHAR A8EA
ENCODING 43242
SWIDTH 960 0
DWIDTH 24 0
BBX 24 24 0 -4
BITMAP
000000
007FFE
7F7FFE
7F6006
036006
0667E6
0667E6
0C6666
186666
186666
3F6666
7F67E6
0367E6
036666
366666
1E6006
0C6006
0E603E
0F603C
1B8000
38E000
707FFE
601FFE
000000
ENDCHAR

STARTCHAR A8EB
ENCODING 43243
SWIDTH 960 0
DWIDTH 24 0
BBX 24 24 0 -4
BITMAP
000000
000180
7F0380
7F0300
033FFC
063FFC
06300C
0C300C
18300C
38300C
3FBFFC
3FBFFC
01B00C
31B00C
1B300C
1B300C
0E3FFC
0E3FFC
0F300C
1B8000
19E000
307FFE
600FFE
000000
ENDCHAR

STARTCHAR A8EC
ENCODING 43244
SWIDTH 960 0
DWIDTH 24 0
BBX 24 24 0 -4
BITMAP
000000
0CC330
0CC330
0CC330
0CC330
3FEFFC
3FEFFC
0CC330
0CC330
0CC330
0CC330
0CC330
7FFFFE
7FFFFE
0CC330
0CC330
0CC330
18C630
18C630
30CC30
30CC30
60D830
00C030
000000
ENDCHAR

STARTCHAR A8ED
ENCODING 43245
SWIDTH 960 0
DWIDTH 24 0
BBX 24 24 0 -4
BITMAP
000000
001800
001800
1FFFF8
1FFFF8
001800
001800
7FFFFE
7FFFFE
003000
0060E0
00C070
1FFFF8
1FFFDC
0180C0
0180C0
0180C0
7FFFFE
7FFFFE
0300C0
0300C0
0600C0
0C00C0
000000
ENDCHAR

STARTCHAR A8EE
ENCODING 43246
SWIDTH 960 0
DWIDTH 24 0
BBX 24 24 0 -4
BITMAP
000000
7FCFFC
7FCFFC
00CC00
00CC00
00CC00
00CC00
3FCC00
3FCFFC
300FFC
700C0C
600C0C
600C0C
7FCC0C
7FCFFC
00CFFC
00CC0C
00CC00
018C00
018C00
038C00
3F0FFE
3E0FFE
000000
ENDCHAR

STARTCHAR A8EF
ENCODING 43247
SWIDTH 960 0
DWIDTH 24 0
BBX 24 24 0 -4
BITMAP
000000
7FC600
7FC600
00CC00
00CFFE
00DFFE
00D8C0
3FF0C0
3FE0C0
3078CE
30D8FE
601BF6
601FC6
7FD8C6
7FD8C6
00D8C6
00D8DE
00D8DC
00D8C0
019806
039806
3F1FFE
3E0FFC
000000
ENDCHAR

STARTCHAR A8F0
ENCODING 43248
SWIDTH 960 0
DWIDTH 24 0
BBX 24 24 0 -4
BITMAP
000000
7FCC00
7FCC00
00CC00
00CFFE
00CFFE
00D8C0
3FD8C0
3FF0C0
3030C0
3000C0
6000C0
600CCC
7FCCCC
7FCCCC
00D8CC
00D8C6
0198C6
01B0C6
01B0C6
0180C0
3F87C0
3F0780
000000
ENDCHAR

STARTCHAR A8F1
ENCODING 43249
SWIDTH 960 0
DWIDTH 24 0
BBX 24 24 0 -4
BITMAP
000000
0FFFF0
0FFFF0
000030
000030
0FFFF0
0FFFF0
000030
000030
7FFFFE
7FFFFE
001800
001838
3C18E0
0F1B80
001E00
019B00
031980
0618C0
0C1860
381838
60F80E
00F000
000000
ENDCHAR

STARTCHAR A8F2
ENCODING 43250
SWIDTH 960 0
DWIDTH 24 0
BBX 24 24 0 -4
BITMAP
000000
060006
06000C
06001C
0C0038
0C3070
0C18E0
181980
180C06
31FE0C
7F0618
000030
000060
1FFDC0
1FFC00
180C06
180C06
180C0C
180C18
180C30
1FFCE0
1FFD80
180C00
000000
ENDCHAR

STARTCHAR A8F3
ENCODING 43251
SWIDTH 960 0
DWIDTH 24 0
BBX 24 24 0 -4
BITMAP
000000
061800
06180C
061818
061830
3FFE60
3FFEC0
061980
069806
06D80C
065818
061830
7FFE60
7FFEC0
061800
061806
061806
0C180C
0C1818
181830
181860
3018C0
601980
000000
ENDCHAR

STARTCHAR A8F4
ENCODING 43252
SWIDTH 960 0
DWIDTH 24 0
BBX 24 24 0 -4
BITMAP
000000
030180
070180
0E0180
180180
300180
637FFE
037FFE
066186
0E6186
0C6186
1C6186
3C6186
6C7FFE
4C7FFE
0C6186
0C6186
0C6186
0C6186
0C6186
0C7FFE
0C7FFE
0C6006
000000
ENDCHAR

STARTCHAR A8F5
ENCODING 43253
SWIDTH 960 0
DWIDTH 24 0
BBX 24 24 0 -4
BITMAP
000000
060000
06FFF8
0CFFF8
183830
701830
631C60
030EE0
0607C0
0E0380
0C07C0
1C1CF0
3C703C
6DC30E
4C0300
0C0300
0CFFFC
0CFFFC
0C0300
0C0300
0C0300
0DFFFE
0DFFFE
000000
ENDCHAR

STARTCHAR A8F6
ENCODING 43254
SWIDTH 960 0
DWIDTH 24 0
BBX 24 24 0 -4
BITMAP
000000
018180
030180
061980
0C1980
381980
71B180
01BFFC
033FFC
077180
0E6180
0EC180
1E0180
363FF8
663FF8
060180
060180
060180
060180
060180
060180
06FFFE
06FFFE
000000
ENDCHAR

STARTCHAR A8F7
ENCODING 43255
SWIDTH 960 0
DWIDTH 24 0
BBX 24 24 0 -4
BITMAP
000000
060600
060700
060380
060180
067FFE
377FFE
378300
36C300
364600
660E30
663C30
661860
060C60
0606C0
0603C0
060180
060180
060318
06030C
06067C
063FE6
063F06
000000
ENDCHAR

STARTCHAR A8F8
ENCODING 43256
SWIDTH 960 0
DWIDTH 24 0
BBX 24 24 0 -4
BITMAP
000000
060000
061FFC
061FFC
061800
061800
371800
379800
36DFFC
365FFC
66180C
66180C
46180C
06180C
061FFC
061FFC
06180C
061800
061800
061800
061800
061FFE
061FFE
000000
ENDCHAR

STARTCHAR A8F9
ENCODING 43257
SWIDTH 960 0
DWIDTH 24 0
BBX 24 24 0 -4
BITMAP
000000
061818
061818
061818
061818
061818
377FFE
37FFFE
36D818
36D818
661818
661818
461818
061FF8
061FF8
061818
061818
061818
061818
061818
061FF8
061FF8
061818
000000
ENDCHAR

STARTCHAR A8FA
ENCODING 43258
SWIDTH 960 0
DWIDTH 24 0
BBX 24 24 0 -4
BITMAP
000000
060180
060180
060180
060180
063FFE
073FFE
37B186
37B18C
36B18C
363180
663FFC
663FFC
463E0C
063618
063618
063330
066360
0661E0
0661C0
06C370
06C618
068C0E
000000
ENDCHAR

STARTCHAR A8FB
ENCODING 43259
SWIDTH 960 0
DWIDTH 24 0
BBX 24 24 0 -4
BITMAP
000000
0FFFF0
0FFFF0
001800
001800
7FFFFE
7FFFFE
003800
007600
00E300
01C180
0380E0
0E0078
38001E
019806
0D8C18
19860C
198006
318062
318060
6180E0
01FFE0
00FFC0
000000
ENDCHAR

STARTCHAR A8FC
ENCODING 43260
SWIDTH 960 0
DWIDTH 24 0
BBX 24 24 0 -4
BITMAP
000000
0FFFF8
0FFFF8
0C0C00
0C0C00
0C0C00
0FFFFE
0FFFFE
001E00
001E00
003600
006606
00C606
0387FE
0E13FC
399800
018E1C
19860E
198006
318060
618060
01FFE0
00FFC0
000000
ENDCHAR

STARTCHAR A8FD
ENCODING 43261
SWIDTH 960 0
DWIDTH 24 0
BBX 24 24 0 -4
BITMAP
000000
3FFF80
3FFF80
00C180
00C180
01C3F8
01F3F8
03B870
031CE0
060FC0
0C0380
1807C0
303CF0
61E03E
000000
019C18
0D8C0C
19860E
198006
318032
61C030
01FFF0
00FFE0
000000
ENDCHAR

STARTCHAR A8FE
ENCODING 43262
SWIDTH 960 0
DWIDTH 24 0
BBX 24 24 0 -4
BITMAP
000000
008000
0180C0
0300E0
031860
063030
0C3038
18601C
706186
00C0C0
00C060
018030
018FF8
0FFFDC
00000C
019818
198C0C
198606
318006
318030
618030
01FFF0
00FFE0
000000
ENDCHAR

STARTCHAR A9A1
ENCODING 43425
SWIDTH 960 0
DWIDTH 24 0
BBX 24 24 0 -4
BITMAP
000000
060180
060180
060180
060180
060180
37BFFC
37BFFC
36C180
36C180
667FFE
667FFE
660180
0603C0
0607E0
060FB0
061DB8
06399C
06718E
06E186
060180
060180
060180
000000
ENDCHAR

STARTCHAR A9A2
ENCODING 43426
SWIDTH 960 0
DWIDTH 24 0
BBX 24 24 0 -4
BITMAP
000000
0C3330
0C3330
0C3330
0C3330
0C3330
2F3330
3FFFFE
3DFFFE
3CB330
6C3330
6C3330
4C3330
0C3330
0C3330
0C33F0
0C33F0
0C3330
0C3000
0C3000
0C3FFE
0C3FFE
0C3000
000000
ENDCHAR

STARTCHAR A9A3
ENCODING 43427
SWIDTH 960 0
DWIDTH 24 0
BBX 24 24 0 -4
BITMAP
000000
0C0300
0C0300
0C0300
0C0300
0C0300
2F7FFC
3DFFFC
3D8300
6C8780
6C0780
6C0FC0
4C0F60
0C1B60
0C1B30
0C3330
0C6318
0CFFFC
0CFFFE
0D8306
0C0300
0C0300
0C0300
000000
ENDCHAR

STARTCHAR A9A4
ENCODING 43428
SWIDTH 960 0
DWIDTH 24 0
BBX 24 24 0 -4
BITMAP
000000
0C0300
0C0300
0C0300
0C0300
0C0300
3F7FFE
3D7FFE
3D8600
3C8600
6C0C00
6C0C00
4C1FFC
0C1FFC
0C3C0C
0C6C0C
0CCC0C
0D8C0C
0C0C0C
0C0C0C
0C0FFC
0C0FFC
0C0C0C
000000
ENDCHAR

STARTCHAR A9A5
ENCODING 43429
SWIDTH 960 0
DWIDTH 24 0
BBX 24 24 0 -4
BITMAP
000000
0C0180
0C0180
0C0180
0C0180
7F8180
7FBFFC
0C3FFC
0C0180
0C0180
0C7FFE
0C7FFE
0F03C0
1E03E0
7C07E0
6C0DB0
0C1DB0
0C3998
0C718C
0CC186
0C0180
3C0180
380180
000000
ENDCHAR

STARTCHAR A9A6
ENCODING 43430
SWIDTH 960 0
DWIDTH 24 0
BBX 24 24 0 -4
BITMAP
000000
0C0000
0C7FFE
0C7FFE
0C0018
7F8018
7F8018
0C3F98
0C3F98
0C3198
0C3198
0DB198
0F3198
1E3F98
7C3F98
6C3198
0C3018
0C0018
0C0018
0C0018
0C0018
3C01F8
3801F0
000000
ENDCHAR

STARTCHAR A9A7
ENCODING 43431
SWIDTH 960 0
DWIDTH 24 0
BBX 24 24 0 -4
BITMAP
000000
060300
060380
060180
067FFE
7FFFFE
7F8300
060600
060E30
060C30
061818
061FFC
07BFCC
1F0CCC
7E0CC0
660CC0
060CC0
060CC0
0618C6
0618C6
0630C6
3E60FE
3C407C
000000
ENDCHAR

STARTCHAR A9A8
ENCODING 43432
SWIDTH 960 0
DWIDTH 24 0
BBX 24 24 0 -4
BITMAP
000000
0C0000
0C0000
0C7FFC
0C7FFC
7F8300
7F8300
0C0300
0C0700
0C0700
0C0FC0
0F0F60
1F1B30
3C3318
6C630C
4C4300
0C0300
0C0300
0C0300
0C0300
0C0000
3CFFFE
38FFFE
000000
ENDCHAR

STARTCHAR A9A9
ENCODING 43433
SWIDTH 960 0
DWIDTH 24 0
BBX 24 24 0 -4
BITMAP
000000
0C0300
0C0300
0C0300
0C0300
7F83F0
7F83F0
0C0300
0C0300
0C0300
0CFFFE
0CFFFE
0F0300
1E0380
7C03C0
6C0360
0C0330
0C0318
0C0308
0C0300
0C0300
3C0300
380300
000000
ENDCHAR

STARTCHAR A9AA
ENCODING 43434
SWIDTH 960 0
DWIDTH 24 0
BBX 24 24 0 -4
BITMAP
000000
0C0000
0C7FFC
0C7FFC
0C600C
7FE00C
7FE00C
0C600C
0C600C
0C600C
0C600C
0C7FFC
0F7FFC
3E600C
7C0000
6C0CC0
0C0C60
0C1860
0C3030
0C6018
0CC00C
3D8006
380000
000000
ENDCHAR

STARTCHAR A9AB
ENCODING 43435
SWIDTH 960 0
DWIDTH 24 0
BBX 24 24 0 -4
BITMAP
000000
0C0000
0CFFFC
0CFFFC
0C1800
7F9800
7F9800
0C1800
0C1800
0C3FF0
0C3FF0
0C3030
0FB630
1E3330
7C31B0
6C31B0
0C30B0
0C3030
0C3030
0C37F6
0CFF36
3CF83E
38001C
000000
ENDCHAR

STARTCHAR A9AC
ENCODING 43436
SWIDTH 960 0
DWIDTH 24 0
BBX 24 24 0 -4
BITMAP
000000
0C0700
0C1E00
0C787E
0C607E
7F6666
7F6666
0C6666
0C6666
0C6666
0C6666
0C6666
0F6666
1E6666
7C6666
6C6666
0C7E66
0CE67E
0DCC7C
0C0C60
0C1860
3C3060
380060
000000
ENDCHAR

STARTCHAR A9AD
ENCODING 43437
SWIDTH 960 0
DWIDTH 24 0
BBX 24 24 0 -4
BITMAP
000000
0C001C
0C01F0
0C3F30
0C3330
7FB330
7FB330
0C3330
0C3330
0C3330
0C3330
0C3330
0F6330
1E6318
7C6318
6C6318
0C6318
0CC34C
0CC36C
0CC32C
0CC3F6
3D8F36
398C06
000000
ENDCHAR

STARTCHAR A9AE
ENCODING 43438
SWIDTH 960 0
DWIDTH 24 0
BBX 24 24 0 -4
BITMAP
000000
0C0600
0C0700
0C0380
0C0180
7F7FFE
7F7FFE
0C6006
0C6006
0C0C00
0C0C00
0C0C18
0F8C70
1E0DC0
7C0F80
6C0C00
0C0C00
0C0C00
0C0C06
0C0C06
0C0C06
3C0FFE
3807FC
000000
ENDCHAR

STARTCHAR A9AF
ENCODING 43439
SWIDTH 960 0
DWIDTH 24 0
BBX 24 24 0 -4
BITMAP
000000
0C0180
0C00C0
0C7FFE
0C7FFE
0C6000
7FE000
7FE000
0C60C0
0C60C0
0C6180
0C6180
0FE300
0F6300
1C6300
7C6618
6CC618
0CCC18
0CCC0C
0D98FC
0D9FCC
3D9F06
3B0006
000000
ENDCHAR

STARTCHAR A9B0
ENCODING 43440
SWIDTH 960 0
DWIDTH 24 0
BBX 24 24 0 -4
BITMAP
000000
0C0000
0C3FFC
0C3FFC
0C0180
7F8180
7F8180
0C3FFC
0C3FFC
0C0180
0C0180
0C3FFC
0FBFFC
1E0180
7C0180
6C7FFE
0C7FFE
0C0180
0C0180
0C0180
0C0180
3C0180
380180
000000
ENDCHAR

STARTCHAR A9B1
ENCODING 43441
SWIDTH 960 0
DWIDTH 24 0
BBX 24 24 0 -4
BITMAP
000000
0C0000
0C7FFE
0C7FFE
0C0180
7F8180
7F8180
0C7FFE
0C7FFE
0C6186
0C6386
0C63C6
0FE666
1E6666
7C6C36
6C781E
0C7006
0C6006
0C6006
0C6006
0C6006
3C603E
38603C
000000
ENDCHAR

STARTCHAR A9B2
ENCODING 43442
SWIDTH 960 0
DWIDTH 24 0
BBX 24 24 0 -4
BITMAP
000000
186000
186000
186000
18607E
7E607E
7FFE66
19FE66
186666
186666
186666
186666
1E6666
1C6666
786666
78C666
18C666
18C666
19867E
19867E
1B0C66
7B7C66
723800
000000
ENDCHAR

STARTCHAR A9B3
ENCODING 43443
SWIDTH 960 0
DWIDTH 24 0
BBX 24 24 0 -4
BITMAP
000000
0C0000
0C0000
0C3FF8
0C3FF8
7FB018
7FB018
0C3018
0C3018
0C3018
0C3FF8
0C3FF8
0FB018
1E3018
7C3018
6C3018
0C3FF8
0C3FF8
0C3018
0C0000
0C0000
3DFFFE
39FFFE
000000
ENDCHAR

STARTCHAR A9B4
ENCODING 43444
SWIDTH 960 0
DWIDTH 24 0
BBX 24 24 0 -4
BITMAP
000000
0C0000
0C7FFC
0C7FFC
0C600C
7FE00C
7FE00C
0C600C
0C600C
0C7FFC
0C7FFC
0C6CCC
0F8CC0
1E0CC0
7C0CC0
6C0CC0
0C0CC0
0C18C0
0C18C6
0C30C6
0C60C6
3CC0FE
39807C
000000
ENDCHAR

STARTCHAR A9B5
ENCODING 43445
SWIDTH 960 0
DWIDTH 24 0
BBX 24 24 0 -4
BITMAP
000000
060000
06300C
06300C
06300C
7FF00C
7FF00C
06300C
06300C
063018
063218
063318
07B198
1F30D0
7E3030
663760
063C70
0638F8
0671D8
06438C
06070C
3E0E06
3C1806
000000
ENDCHAR

STARTCHAR A9B6
ENCODING 43446
SWIDTH 960 0
DWIDTH 24 0
BBX 24 24 0 -4
BITMAP
000000
180000
183000
183000
1831F8
7F61F8
7F7D98
18FD98
18CD98
18CD98
198D98
19CD98
1BED9A
7E7D9A
7C399E
181D0E
183E00
183600
186380
18C0E0
198078
7B001E
700000
000000
ENDCHAR

STARTCHAR A9B7
ENCODING 43447
SWIDTH 960 0
DWIDTH 24 0
BBX 24 24 0 -4
BITMAP
000000
0C0000
0C03F0
0C3F80
0C3C00
7FB000
7FB000
0C3000
0C3000
0C3FFC
0C3FFC
0C3060
0FB060
1E3060
7C3060
6C3060
0C3060
0C3060
0C3060
0C3060
0C3060
3DFFFE
39FFFE
000000
ENDCHAR

STARTCHAR A9B8
ENCODING 43448
SWIDTH 960 0
DWIDTH 24 0
BBX 24 24 0 -4
BITMAP
000000
06007E
061FF0
061800
061800
7F9FFE
7F9FFE
061806
061806
061FFE
061FFE
061806
079800
1F1FF8
7E1FF8
663030
0630E0
063180
066306
066606
066606
3EC7FE
3CC3FC
000000
ENDCHAR

STARTCHAR A9B9
ENCODING 43449
SWIDTH 960 0
DWIDTH 24 0
BBX 24 24 0 -4
BITMAP
000000
001800
000C00
7FFFFE
7FFFFE
038070
01C0E0
00E1C0
003700
001E00
00F780
0781F0
7F007E
030060
03FFE0
03FFE0
030060
030060
03FFE0
03FFE0
060060
060060
0C0060
000000
ENDCHAR

STARTCHAR A9BA
ENCODING 43450
SWIDTH 960 0
DWIDTH 24 0
BBX 24 24 0 -4
BITMAP
000000
1FF818
1FF818
000318
000198
0000D8
000058
000018
3FFA18
3FFB18
066198
066198
066018
066018
0667FE
0667FE
0C6018
0C6018
0C6018
186618
187C18
307018
600018
000000
ENDCHAR

STARTCHAR A9BB
ENCODING 43451
SWIDTH 960 0
DWIDTH 24 0
BBX 24 24 0 -4
BITMAP
000000
03E07C
1F87F0
180600
180600
180600
180600
180600
1FF7FE
1FF7FE
18C630
18C630
18C630
18C630
18C630
18C630
18C630
30C630
30CC30
30CC30
30CC30
60D830
00C030
000000
ENDCHAR

STARTCHAR A9BC
ENCODING 43452
SWIDTH 960 0
DWIDTH 24 0
BBX 24 24 0 -4
BITMAP
000000
180180
1C0180
0E01C0
0603C0
7FE360
7FE630
0C0C18
0C180C
0C7006
0FC618
0FC618
18C618
18C618
18C618
18C618
18C618
18C618
30CC18
30CC18
319818
679818
673018
000000
ENDCHAR

STARTCHAR A9BD
ENCODING 43453
SWIDTH 960 0
DWIDTH 24 0
BBX 24 24 0 -4
BITMAP
000000
000180
7F8180
7F8180
618180
618180
61BFFC
61BFFC
618180
7F8180
7F8180
618180
61FFFE
61FFFE
618180
618180
7F83C0
7F83C0
618660
000E30
001C18
00380C
00E006
000000
ENDCHAR

STARTCHAR A9BE
ENCODING 43454
SWIDTH 960 0
DWIDTH 24 0
BBX 24 24 0 -4
BITMAP
000000
000C00
7F8C00
7F8C00
619800
619FFC
61BFFC
61B180
61E180
7FC180
7F8180
618180
61FFFE
61FFFE
618180
618180
7F8180
7F8180
618180
000180
000180
000180
000180
000000
ENDCHAR

STARTCHAR A9BF
ENCODING 43455
SWIDTH 960 0
DWIDTH 24 0
BBX 24 24 0 -4
BITMAP
000000
7FFFFE
7FFFFE
001800
003B00
007980
00D8E0
039870
061818
1C180C
301800
000000
07FFF0
07FFF0
060030
060030
07FFF0
07FFF0
060030
060030
07FFF0
07FFF0
060030
000000
ENDCHAR

STARTCHAR A9C0
ENCODING 43456
SWIDTH 960 0
DWIDTH 24 0
BBX 24 24 0 -4
BITMAP
000000
0FFFF0
0FFFF0
0C0030
0C0030
0FFFF0
0FFFF0
0C0030
0C0030
0FFFF0
0FFFF0
003000
001800
7FFFFE
7FFFFE
000000
00C180
0180C0
030060
060030
0C0018
38000C
600006
000000
ENDCHAR

ENDFONT
